#N canvas 639 92 670 590 10;
#X declare -stdpath Fraise;
#X declare -path absGAMME;
#X declare -stdpath moonlib -stdlib iemlib -stdpath iemlib -lib iemlib1
-lib iemlib2 -lib creb -stdpath creb;
#X obj 48 21 declare -stdpath Fraise;
#X obj 47 44 pied/pied 0 41424;
#X floatatom 349 93 5 0 400 0 - - -, f 5;
#X obj 349 73 r trainVitesse;
#X floatatom 349 111 5 0 400 0 - - -, f 5;
#X obj 349 129 s trainVitesse;
#X obj 506 81 loadbang;
#X msg 506 102 \; pd dsp 1;
#X obj 389 224 throw~ motor;
#X obj 235 55 declare -path absGAMME;
#X obj 525 205 GAMMEKBV GAMME;
#X obj 511 289 r GAMME;
#X floatatom 511 310 5 0 0 0 - - -, f 5;
#X obj 573 311 loadbang;
#X msg 573 332 1257;
#X obj 573 353 s GAMME;
#X obj 46 200 audioMaster;
#X obj 113 221 locoVapeur;
#X obj 47 221 l locoElec;
#X obj 47 264 rails;
#X obj 47 243 freinage-accel;
#X obj 46 133 pupitreMaitre/interfacePupitreMaitre;
#X obj 46 153 pupitreDisjo/interfacePupitreDisjo;
#X obj 46 175 pupitreJoystick/interfacePupitreJoystick;
#X obj 136 199 vitesseTrain;
#N canvas 460 189 937 642 interface-loco 0;
#X obj 69 219 s freinage;
#X obj 69 166 tgl 15 0 empty empty empty 17 7 0 10 -262144 -1 -1 0
1;
#X obj 167 174 tgl 15 0 empty empty empty 17 7 0 10 -262144 -1 -1 0
1;
#X obj 167 237 s accel;
#X obj 296 310 s trainMode;
#X msg 331 282 elec;
#X msg 366 281 vapeur;
#X msg 296 282 none;
#X obj 235 75 route sw;
#X floatatom 143 126 5 0 0 0 - - -, f 5;
#X obj 235 54 r pupitreMaitre;
#X obj 69 139 route 20 21;
#N canvas 1 81 450 300 rnd 0;
#X obj 99 31 inlet;
#X obj 99 52 t f f, f 9;
#X obj 150 74 metro 200;
#X obj 119 137 tgl 15 0 empty empty empty 17 7 0 10 -262144 -1 -1 0
1;
#X obj 146 27 tgl 15 0 empty empty empty 17 7 0 10 -262144 -1 -1 0
1;
#X obj 167 120 + 200;
#X obj 167 99 random 500;
#X obj 99 73 sel 0;
#X msg 99 94 0;
#X obj 119 157 outlet;
#X connect 0 0 1 0;
#X connect 1 0 7 0;
#X connect 1 1 2 0;
#X connect 2 0 3 0;
#X connect 2 0 6 0;
#X connect 3 0 9 0;
#X connect 4 0 1 0;
#X connect 5 0 2 1;
#X connect 6 0 5 0;
#X connect 7 0 8 0;
#X connect 8 0 3 0;
#X restore 97 179 pd rnd;
#X obj 195 168 tgl 15 0 empty empty empty 17 7 0 10 -262144 -1 -1 1
1;
#X obj 167 215 *;
#X obj 192 215 t b f;
#X obj 167 149 route 22 16 17;
#X obj 227 169 tgl 15 0 empty empty empty 17 7 0 10 -262144 -1 -1 0
1;
#X obj 195 187 *;
#X obj 220 187 t b f;
#X obj 98 160 == 0;
#X obj 94 198 t b f;
#X obj 69 198 ||;
#X obj 296 135 route 18 19;
#X obj 296 156 == 0;
#X obj 330 156 == 0;
#X obj 330 177 * 2;
#X obj 321 199 t b f;
#X obj 296 199 +;
#X obj 296 260 sel 0 1 2;
#X obj 320 231 *;
#X obj 350 229 t b f;
#X obj 62 334 / 180;
#X msg 62 403 vu1 \$1;
#X obj 62 424 s toPupitreMaitre;
#X obj 62 313 r trainVitesse;
#X obj 188 328 r enGareVar;
#X obj 188 425 s toPupitreMaitre;
#X msg 188 404 vu2 \$1;
#X obj 539 54 r pupitreMaitre;
#X obj 539 75 route pot;
#X obj 539 142 s fenetre;
#X obj 539 96 * -1;
#X obj 539 117 + 1;
#X obj 402 139 route 0;
#X obj 412 165 tgl 15 0 empty empty empty 17 7 0 10 -262144 -1 -1 0
1;
#X obj 402 189 s tunnel;
#X msg 499 432 led 0 \$1;
#X obj 499 361 tgl 15 0 empty empty empty 17 7 0 10 -262144 -1 -1 1
1;
#X obj 499 296 r trainMode;
#X obj 499 317 route vapeur;
#X msg 499 338 1;
#X msg 544 339 0;
#X obj 311 401 tgl 15 0 empty empty empty 17 7 0 10 -262144 -1 -1 0
1;
#X msg 311 423 led 1 \$1;
#X obj 389 496 s toPupitreMaitre;
#X obj 492 240 tgl 15 0 empty empty empty 17 7 0 10 -262144 -1 -1 0
1;
#X msg 492 262 led 2 \$1;
#X obj 707 397 tgl 15 0 empty empty empty 17 7 0 10 -262144 -1 -1 0
1;
#X msg 707 419 led 3 \$1;
#X msg 582 435 led 4 \$1;
#X obj 582 361 tgl 15 0 empty empty empty 17 7 0 10 -262144 -1 -1 0
1;
#X obj 582 296 r trainMode;
#X msg 582 338 1;
#X msg 627 339 0;
#X obj 582 317 route elec;
#X obj 646 65 r pupitreMaitre;
#X obj 646 86 route sw;
#X obj 646 107 route 3;
#X obj 646 128 s reflexions;
#X obj 499 388 &&;
#X obj 499 409 change;
#X obj 527 387 t b f;
#X obj 582 389 &&;
#X obj 582 410 change;
#X obj 610 388 t b f;
#X msg 685 288 1;
#X msg 721 310 0;
#X obj 685 223 loadbang;
#X obj 685 248 tgl 15 0 empty empty empty 17 7 0 10 -262144 -1 -1 1
1;
#X obj 685 309 f;
#X obj 685 267 metro 1600;
#X obj 721 289 del 800;
#X obj 188 353 * 0.57;
#X obj 188 377 clip 0 0.57;
#X obj 62 355 * 0.77;
#X obj 62 376 clip 0 0.77;
#X msg 247 509 0;
#X obj 512 213 s portemoteur;
#X obj 467 166 tgl 15 0 empty empty empty 17 7 0 10 -262144 -1 -1 0
1;
#X obj 457 140 route 14;
#X obj 512 173 == 0;
#X obj 752 176 tgl 15 0 empty empty empty 17 7 0 10 -262144 -1 -1 0
1;
#X obj 784 152 route 13;
#X obj 784 173 == 0;
#X obj 512 194 autostop;
#X obj 784 197 autostop 10000;
#X obj 784 218 s aiguillage;
#X obj 239 237 s tension;
#X obj 222 269 s marche;
#X connect 1 0 22 0;
#X connect 2 0 14 0;
#X connect 5 0 4 0;
#X connect 6 0 4 0;
#X connect 7 0 4 0;
#X connect 8 0 9 0;
#X connect 8 0 11 0;
#X connect 8 0 16 0;
#X connect 8 0 23 0;
#X connect 8 0 44 0;
#X connect 8 0 90 0;
#X connect 8 0 93 0;
#X connect 10 0 8 0;
#X connect 11 0 1 0;
#X connect 11 1 20 0;
#X connect 12 0 21 0;
#X connect 13 0 18 0;
#X connect 14 0 3 0;
#X connect 15 0 14 0;
#X connect 15 1 14 1;
#X connect 16 0 2 0;
#X connect 16 1 13 0;
#X connect 16 2 17 0;
#X connect 17 0 19 0;
#X connect 17 0 56 0;
#X connect 17 0 98 0;
#X connect 18 0 15 0;
#X connect 18 0 31 0;
#X connect 18 0 53 0;
#X connect 18 0 99 0;
#X connect 19 0 18 0;
#X connect 19 1 18 1;
#X connect 20 0 12 0;
#X connect 21 0 22 0;
#X connect 21 1 22 1;
#X connect 22 0 0 0;
#X connect 23 0 24 0;
#X connect 23 1 25 0;
#X connect 24 0 28 0;
#X connect 25 0 26 0;
#X connect 26 0 27 0;
#X connect 27 0 28 0;
#X connect 27 1 28 1;
#X connect 28 0 29 0;
#X connect 29 0 7 0;
#X connect 29 1 5 0;
#X connect 29 2 6 0;
#X connect 31 0 30 0;
#X connect 31 1 30 1;
#X connect 32 0 85 0;
#X connect 33 0 34 0;
#X connect 35 0 32 0;
#X connect 36 0 83 0;
#X connect 38 0 37 0;
#X connect 39 0 40 0;
#X connect 40 0 42 0;
#X connect 42 0 43 0;
#X connect 43 0 41 0;
#X connect 44 0 45 0;
#X connect 44 0 46 0;
#X connect 47 0 55 0;
#X connect 48 0 70 0;
#X connect 49 0 50 0;
#X connect 50 0 51 0;
#X connect 50 1 52 0;
#X connect 51 0 48 0;
#X connect 52 0 48 0;
#X connect 53 0 54 0;
#X connect 54 0 55 0;
#X connect 56 0 57 0;
#X connect 57 0 55 0;
#X connect 58 0 59 0;
#X connect 59 0 55 0;
#X connect 60 0 55 0;
#X connect 61 0 73 0;
#X connect 62 0 65 0;
#X connect 63 0 61 0;
#X connect 64 0 61 0;
#X connect 65 0 63 0;
#X connect 65 1 64 0;
#X connect 66 0 67 0;
#X connect 67 0 68 0;
#X connect 68 0 69 0;
#X connect 70 0 71 0;
#X connect 71 0 47 0;
#X connect 72 0 70 0;
#X connect 72 1 70 1;
#X connect 73 0 74 0;
#X connect 74 0 60 0;
#X connect 75 0 73 0;
#X connect 75 1 73 1;
#X connect 76 0 80 0;
#X connect 77 0 80 0;
#X connect 78 0 79 0;
#X connect 79 0 81 0;
#X connect 80 0 72 0;
#X connect 80 0 75 0;
#X connect 81 0 76 0;
#X connect 81 0 82 0;
#X connect 82 0 77 0;
#X connect 83 0 84 0;
#X connect 84 0 38 0;
#X connect 85 0 86 0;
#X connect 86 0 33 0;
#X connect 87 0 83 0;
#X connect 87 0 85 0;
#X connect 90 0 89 0;
#X connect 90 0 91 0;
#X connect 91 0 95 0;
#X connect 93 0 94 0;
#X connect 94 0 96 0;
#X connect 95 0 88 0;
#X connect 96 0 97 0;
#X restore 47 292 pd interface-loco;
#X obj 231 19 declare -stdpath moonlib -stdlib iemlib -stdpath iemlib
-lib iemlib1 -lib iemlib2 -lib creb -stdpath creb;
#X obj 302 300 auxpd paroles;
#X obj 343 365 throw~ voiture;
#X obj 384 347 throw~ loco;
#X obj 349 164 auxpd locoElec;
#X obj 308 437 auxpd environnement;
#X obj 362 503 throw~ envL;
#X obj 420 481 throw~ envR;
#X obj 308 529 route enGareVar;
#X obj 308 550 s enGareVar;
#X obj 302 409 s toPupitreMaitre;
#X obj 302 387 route toPupitreMaitre toPupitreDisjo;
#X obj 411 410 s toPupitreDisjo;
#X obj 53 333 r pupitreDisjo;
#X obj 53 354 route sw;
#X obj 53 381 route 27;
#X obj 53 402 s fenetrevoiture;
#X obj 54 455 l avertisseurs;
#X obj 449 184 throw~ envL;
#X obj 447 206 throw~ envR;
#X obj 349 247 route toPupitreJoystick;
#X obj 349 269 s toPupitreJoystick;
#X connect 3 0 2 0;
#X connect 4 0 5 0;
#X connect 6 0 7 0;
#X connect 11 0 12 0;
#X connect 13 0 14 0;
#X connect 14 0 15 0;
#X connect 27 0 37 0;
#X connect 27 1 28 0;
#X connect 27 2 29 0;
#X connect 30 0 46 0;
#X connect 30 1 8 0;
#X connect 30 2 44 0;
#X connect 30 2 45 0;
#X connect 31 0 34 0;
#X connect 31 1 32 0;
#X connect 31 2 33 0;
#X connect 34 0 35 0;
#X connect 37 0 36 0;
#X connect 37 1 38 0;
#X connect 39 0 40 0;
#X connect 40 0 41 0;
#X connect 41 0 42 0;
#X connect 46 0 47 0;
