#N canvas 70 247 450 418 10;
#X obj 62 42 r trainVitesse;
#X msg 62 107 1 \$1;
#X obj 62 128 /;
#X obj 62 63 max 0.01;
#X obj 41 17 inlet;
#X obj 41 332 outlet~;
#X floatatom 176 63 5 0 0 0 - - -, f 5;
#X obj 164 114 / 120;
#X obj 285 279 *~;
#X obj 164 135 * 0.75;
#X obj 164 156 + 0.25;
#X obj 41 265 eadh~ 1 1 1;
#X floatatom 132 174 5 0 0 0 - - -, f 5;
#X obj 67 301 hip~ 0.1;
#X msg 169 28 0;
#X obj 96 220 +;
#X floatatom 140 287 5 0 0 0 - - -, f 5;
#X obj 20 193 bng 15 250 50 0 empty empty empty 17 7 0 10 -262144 -1
-1;
#X obj 62 170 t f f f;
#X obj 104 240 +;
#X obj 62 149 clip 5 500;
#X obj 62 194 / 2;
#X obj 89 194 / 2;
#X obj 62 86 / 6000;
#X connect 0 0 3 0;
#X connect 0 0 7 0;
#X connect 1 0 2 0;
#X connect 2 0 20 0;
#X connect 3 0 23 0;
#X connect 4 0 11 0;
#X connect 6 0 3 0;
#X connect 7 0 9 0;
#X connect 9 0 10 0;
#X connect 10 0 8 1;
#X connect 11 0 5 0;
#X connect 13 0 5 0;
#X connect 14 0 3 0;
#X connect 15 0 19 0;
#X connect 17 0 11 0;
#X connect 18 0 21 0;
#X connect 18 1 22 0;
#X connect 18 2 19 1;
#X connect 19 0 11 3;
#X connect 19 0 16 0;
#X connect 20 0 12 0;
#X connect 20 0 18 0;
#X connect 21 0 11 1;
#X connect 21 0 15 0;
#X connect 22 0 15 1;
#X connect 22 0 11 2;
#X connect 23 0 1 0;
