#N canvas 1 81 450 418 10;
#X obj 41 264 hip~ 10;
#X obj 41 218 eadh~ 1 1 1;
#X obj 62 194 / 10;
#X obj 62 42 r trainVitesse;
#X msg 62 107 1 \$1;
#X obj 62 128 /;
#X obj 62 63 max 0.01;
#X obj 62 149 clip 5 120;
#X obj 62 170 f;
#X obj 41 17 inlet;
#X obj 41 285 outlet~;
#X floatatom 141 212 5 0 0 0 - - -, f 5;
#X floatatom 176 63 5 0 0 0 - - -, f 5;
#X obj 62 86 / 1200;
#X obj 150 126 / 120;
#X obj 41 239 *~;
#X obj 150 147 * 0.75;
#X obj 150 168 + 0.25;
#X connect 0 0 10 0;
#X connect 1 0 15 0;
#X connect 2 0 1 1;
#X connect 2 0 1 2;
#X connect 3 0 6 0;
#X connect 3 0 14 0;
#X connect 4 0 5 0;
#X connect 5 0 7 0;
#X connect 6 0 13 0;
#X connect 7 0 8 0;
#X connect 8 0 2 0;
#X connect 8 0 1 3;
#X connect 9 0 1 0;
#X connect 13 0 4 0;
#X connect 14 0 16 0;
#X connect 15 0 0 0;
#X connect 16 0 17 0;
#X connect 17 0 15 1;
