#N canvas 374 399 901 443 10;
#X obj 478 395 dac~;
#X obj 438 341 *~;
#X obj 537 346 *~;
#X obj 455 97 vsl 15 128 0 1 0 1 empty empty empty 0 -9 0 10 -258113
-1 -1 10400 1;
#X obj 455 233 pow 2;
#X msg 455 254 \$1 10;
#X obj 455 275 line~;
#X obj 198 14 catch~ freins;
#X obj 198 71 s~ freins;
#X obj 109 12 catch~ rails;
#X obj 110 70 s~ rails;
#X obj 20 12 catch~ motor;
#X obj 21 70 s~ motor;
#X obj 311 15 catch~ envL;
#X obj 410 13 catch~ envR;
#X obj 311 70 s~ envL;
#X obj 410 68 s~ envR;
#N canvas 1 81 508 738 habitacle 0;
#X obj 79 586 *~;
#X obj 178 591 *~;
#X obj 103 504 pow 2;
#X obj 413 138 r~ freins;
#X obj 349 140 r~ rails;
#X obj 77 141 r~ motor;
#X obj 156 141 r~ envL;
#X obj 294 139 r~ envR;
#X obj 79 685 outlet~;
#X obj 178 688 outlet~;
#X obj 105 469 hsl 80 10 0 1 0 1 empty empty empty -2 -8 0 10 -258113
-1 -1 7800 1;
#X obj 189 469 tgl 10 0 empty empty empty 17 7 0 10 -262144 -1 -1 1
1;
#X obj 205 418 loadbang;
#X msg 205 439 1;
#X obj 102 484 *;
#X obj 131 484 t b f;
#X obj 78 201 lop~ 100;
#X obj 294 235 lop~ 100;
#X obj 293 273 lop~ 500;
#X obj 79 257 lop~ 500;
#X obj 185 199 tgl 15 0 empty empty empty 17 7 0 10 -262144 -1 -1 0
1;
#X obj 185 244 line;
#X obj 116 366 *~ 0.5;
#X obj 116 345 lp4_butt~ 50 50;
#X obj 185 286 * 15000;
#X obj 185 307 + 50;
#X obj 185 265 * 1;
#X msg 185 223 \$1 1000;
#X obj 185 173 r portemoteur;
#X obj 420 245 lop~ 1000;
#X obj 304 424 r~ loco;
#X obj 327 468 bng 15 250 50 0 empty empty empty 17 7 0 10 -262144
-1 -1;
#X obj 318 521 hip~ 100;
#X obj 318 500 ead~ 0 50;
#X obj 318 542 *~ 0.5;
#X obj 111 627 hip~ 500;
#X obj 169 627 hip~ 500;
#X obj 111 648 rev3~ 120 30 5000 10;
#X obj 420 224 *~ 0.5;
#X obj 365 232 *~ 0.05;
#X connect 0 0 8 0;
#X connect 0 0 35 0;
#X connect 1 0 9 0;
#X connect 1 0 36 0;
#X connect 2 0 0 1;
#X connect 2 0 1 1;
#X connect 3 0 17 0;
#X connect 3 0 38 0;
#X connect 3 0 39 0;
#X connect 4 0 17 0;
#X connect 4 0 39 0;
#X connect 5 0 16 0;
#X connect 5 0 23 0;
#X connect 6 0 16 0;
#X connect 7 0 17 0;
#X connect 10 0 14 0;
#X connect 11 0 15 0;
#X connect 12 0 13 0;
#X connect 13 0 11 0;
#X connect 14 0 2 0;
#X connect 15 0 14 0;
#X connect 15 1 14 1;
#X connect 16 0 19 0;
#X connect 17 0 18 0;
#X connect 18 0 1 0;
#X connect 19 0 0 0;
#X connect 20 0 27 0;
#X connect 21 0 26 0;
#X connect 22 0 0 0;
#X connect 23 0 22 0;
#X connect 24 0 25 0;
#X connect 25 0 23 1;
#X connect 26 0 24 0;
#X connect 27 0 21 0;
#X connect 28 0 20 0;
#X connect 29 0 18 0;
#X connect 30 0 0 0;
#X connect 30 0 1 0;
#X connect 31 0 33 0;
#X connect 32 0 34 0;
#X connect 33 0 32 0;
#X connect 34 0 1 0;
#X connect 34 0 0 0;
#X connect 35 0 37 0;
#X connect 36 0 37 1;
#X connect 37 0 8 0;
#X connect 37 1 9 0;
#X connect 38 0 29 0;
#X connect 39 0 18 0;
#X coords 0 -1 1 1 100 30 1 100 450;
#X restore 28 116 pd habitacle;
#N canvas 912 116 479 705 fenetre 0;
#X obj 79 606 *~;
#X obj 178 611 *~;
#X obj 103 524 pow 2;
#X obj 79 627 outlet~;
#X obj 178 630 outlet~;
#X obj 105 483 hsl 80 10 0 1 0 1 empty empty empty -2 -8 0 10 -258113
-1 -1 5200 1;
#X obj 189 483 tgl 10 0 empty empty empty 17 7 0 10 -262144 -1 -1 1
1;
#X obj 205 432 loadbang;
#X msg 205 453 1;
#X obj 102 504 *;
#X obj 131 504 t b f;
#X obj 105 470 hsl 80 10 0 1 0 0 fenetre empty empty -2 -8 0 10 -262144
-1 -1 0 1;
#X obj 244 258 *~ 0.5;
#X obj 269 188 bp~ 5000 1;
#X obj 269 209 delai 70;
#X obj 41 182 bp~ 5000 1;
#X obj 79 295 +~;
#X obj 179 294 +~;
#X obj 237 79 loadbang;
#X msg 237 100 0;
#X obj 269 230 *~ -0.25;
#X msg 115 191 \$1 50;
#X obj 115 212 line~;
#X obj 80 353 *~;
#X obj 180 348 *~;
#X obj 307 142 r~ freins;
#X obj 243 144 r~ rails;
#X obj 22 144 r~ motor;
#X obj 80 254 r~ envL;
#X obj 179 252 r~ envR;
#X obj 244 165 +~;
#X obj 115 85 r fenetre;
#X obj 237 119 s fenetre;
#X obj 322 633 outlet~;
#X obj 23 251 *~ 0.35;
#X obj 42 207 delai 30;
#X obj 42 228 *~ -0.2;
#X obj 159 148 * 12000;
#X obj 310 347 lp3_cheb~ 100 50;
#X obj 80 322 lp4_butt~ 100 50;
#X obj 179 324 lp4_butt~ 100 50;
#X obj 159 169 + 50;
#X obj 115 131 sqrt;
#X obj 115 160 sqrt;
#X obj 159 118 pow 2;
#X connect 0 0 3 0;
#X connect 1 0 4 0;
#X connect 2 0 0 1;
#X connect 2 0 1 1;
#X connect 5 0 9 0;
#X connect 6 0 10 0;
#X connect 7 0 8 0;
#X connect 8 0 6 0;
#X connect 9 0 2 0;
#X connect 10 0 9 0;
#X connect 10 1 9 1;
#X connect 12 0 17 0;
#X connect 12 0 33 0;
#X connect 13 0 14 0;
#X connect 14 0 20 0;
#X connect 15 0 35 0;
#X connect 16 0 39 0;
#X connect 17 0 40 0;
#X connect 18 0 19 0;
#X connect 19 0 32 0;
#X connect 20 0 12 0;
#X connect 21 0 22 0;
#X connect 22 0 23 1;
#X connect 22 0 24 1;
#X connect 23 0 0 0;
#X connect 24 0 1 0;
#X connect 25 0 30 0;
#X connect 26 0 30 0;
#X connect 27 0 15 0;
#X connect 27 0 34 0;
#X connect 28 0 16 0;
#X connect 29 0 17 0;
#X connect 30 0 13 0;
#X connect 30 0 12 0;
#X connect 31 0 42 0;
#X connect 31 0 44 0;
#X connect 34 0 16 0;
#X connect 34 0 33 0;
#X connect 35 0 36 0;
#X connect 36 0 34 0;
#X connect 37 0 41 0;
#X connect 39 0 23 0;
#X connect 40 0 24 0;
#X connect 41 0 39 1;
#X connect 41 0 40 1;
#X connect 42 0 43 0;
#X connect 43 0 21 0;
#X connect 44 0 37 0;
#X coords 0 -1 1 1 100 45 1 100 450;
#X restore 20 190 pd fenetre;
#N canvas 1 81 837 705 tunnel 0;
#X obj 79 606 *~;
#X obj 178 611 *~;
#X obj 103 524 pow 2;
#X obj 79 627 outlet~;
#X obj 178 630 outlet~;
#X obj 105 483 hsl 80 10 0 1 0 1 empty empty empty -2 -8 0 10 -258113
-1 -1 4500 1;
#X obj 189 483 tgl 10 0 empty empty empty 17 7 0 10 -262144 -1 -1 1
1;
#X obj 205 432 loadbang;
#X msg 205 453 1;
#X obj 102 504 *;
#X obj 131 504 t b f;
#X obj 124 270 * 10000;
#X obj 124 291 + 250;
#X obj 237 79 loadbang;
#X msg 237 100 0;
#X obj 124 250 r fenetre;
#X obj 80 344 lop~ 0;
#X obj 113 324 * 3;
#X obj 80 365 *~;
#X obj 80 390 rev2-2 0 75 5000 30;
#X obj 79 285 inlet~;
#X obj 217 278 line~;
#X obj 270 242 sel 1 0;
#X obj 270 284 line;
#X msg 270 263 1 10;
#X obj 270 306 pow 3;
#X msg 306 263 0 2000;
#X obj 270 327 * 0.2;
#X obj 237 119 s tunnel;
#X obj 123 463 tgl 15 0 tunnel empty empty 17 7 0 10 -262144 -1 -1
0 1;
#X obj 217 195 r tunnel;
#X msg 217 254 \$1 50;
#X connect 0 0 3 0;
#X connect 1 0 4 0;
#X connect 2 0 0 1;
#X connect 2 0 1 1;
#X connect 5 0 9 0;
#X connect 6 0 10 0;
#X connect 7 0 8 0;
#X connect 8 0 6 0;
#X connect 9 0 2 0;
#X connect 10 0 9 0;
#X connect 10 1 9 1;
#X connect 11 0 12 0;
#X connect 12 0 17 0;
#X connect 13 0 14 0;
#X connect 14 0 28 0;
#X connect 15 0 11 0;
#X connect 16 0 18 0;
#X connect 17 0 16 1;
#X connect 18 0 19 0;
#X connect 19 0 0 0;
#X connect 19 1 1 0;
#X connect 20 0 16 0;
#X connect 21 0 18 1;
#X connect 22 0 24 0;
#X connect 22 1 26 0;
#X connect 23 0 25 0;
#X connect 24 0 23 0;
#X connect 25 0 27 0;
#X connect 26 0 23 0;
#X connect 27 0 19 1;
#X connect 30 0 22 0;
#X connect 30 0 31 0;
#X connect 31 0 21 0;
#X coords 0 -1 1 1 100 45 1 100 450;
#X restore 204 193 pd tunnel;
#X obj 437 310 catch~ masterL;
#X obj 536 312 catch~ masterR;
#X obj 203 242 throw~ masterL;
#X obj 297 242 throw~ masterR;
#X obj 19 241 throw~ masterL;
#X obj 113 241 throw~ masterR;
#X obj 27 152 throw~ masterL;
#X obj 121 152 throw~ masterR;
#X obj 207 341 throw~ masterL;
#X obj 301 341 throw~ masterR;
#N canvas 1 81 837 705 gare 0;
#X obj 79 636 *~;
#X obj 178 641 *~;
#X obj 103 524 pow 2;
#X msg 103 575 \$1 10;
#X obj 103 596 line~;
#X obj 79 657 outlet~;
#X obj 178 660 outlet~;
#X obj 105 483 hsl 80 10 0 1 0 1 empty empty empty -2 -8 0 10 -258113
-1 -1 4100 1;
#X obj 189 483 tgl 10 0 empty empty empty 17 7 0 10 -262144 -1 -1 1
1;
#X obj 205 432 loadbang;
#X msg 205 453 1;
#X obj 102 504 *;
#X obj 131 504 t b f;
#X obj 124 270 * 10000;
#X obj 124 291 + 250;
#X obj 237 79 loadbang;
#X msg 237 100 0;
#X obj 124 250 r fenetre;
#X obj 80 344 lop~ 0;
#X obj 113 324 * 3;
#X obj 80 365 *~;
#X obj 79 285 inlet~;
#X obj 270 242 sel 1 0;
#X obj 270 284 line;
#X msg 306 263 0 2000;
#X obj 123 463 tgl 15 0 enGare empty empty 17 7 0 10 -262144 -1 -1
0 1;
#X obj 237 119 s enGare;
#X obj 217 195 r enGare;
#X msg 217 254 \$1 3000;
#X obj 103 545 *;
#X obj 128 544 t b f;
#X obj 217 278 line~;
#X obj 81 391 rev3~ 100 90 4000 50, f 27;
#X msg 270 263 2 10;
#X obj 25 224 r~ envL;
#X obj 436 179 r enGareVar;
#X msg 401 217 \$1 200;
#X msg 455 238 \$1 100;
#X obj 465 392 hsl 128 15 0 1 0 0 enGareVar empty enGareVar -2 -8 0
10 -262144 -1 -1 0 1;
#X floatatom 295 335 5 0 0 0 - - -, f 5;
#X obj 270 306 * 8;
#X connect 0 0 5 0;
#X connect 1 0 6 0;
#X connect 2 0 29 0;
#X connect 3 0 4 0;
#X connect 4 0 0 1;
#X connect 4 0 1 1;
#X connect 7 0 11 0;
#X connect 8 0 12 0;
#X connect 9 0 10 0;
#X connect 10 0 8 0;
#X connect 11 0 2 0;
#X connect 12 0 11 0;
#X connect 12 1 11 1;
#X connect 13 0 14 0;
#X connect 14 0 19 0;
#X connect 15 0 16 0;
#X connect 16 0 26 0;
#X connect 17 0 13 0;
#X connect 18 0 20 0;
#X connect 19 0 18 1;
#X connect 20 0 32 0;
#X connect 21 0 18 0;
#X connect 22 0 33 0;
#X connect 22 1 24 0;
#X connect 23 0 40 0;
#X connect 24 0 23 0;
#X connect 27 0 22 0;
#X connect 27 0 28 0;
#X connect 28 0 31 0;
#X connect 29 0 3 0;
#X connect 30 0 29 0;
#X connect 30 1 29 1;
#X connect 31 0 20 1;
#X connect 32 0 0 0;
#X connect 32 3 1 0;
#X connect 33 0 23 0;
#X connect 34 0 18 0;
#X connect 35 0 36 0;
#X connect 35 0 37 0;
#X connect 36 0 31 0;
#X connect 37 0 23 0;
#X connect 40 0 30 0;
#X coords 0 -1 1 1 100 45 1 100 450;
#X restore 208 292 pd gare;
#N canvas 1 81 508 647 vol 0;
#X obj 79 586 *~;
#X obj 103 504 pow 2;
#X obj 79 607 outlet~;
#X obj 104 469 hsl 75 10 0 1 0 1 empty empty empty -2 -8 0 10 -258113
-1 -1 5000 1;
#X obj 170 456 tgl 10 0 empty empty empty 17 7 0 10 -262144 -1 -1 1
1;
#X obj 170 410 loadbang;
#X msg 170 431 1;
#X obj 102 484 *;
#X obj 131 484 t b f;
#X obj 79 140 inlet~;
#X connect 0 0 2 0;
#X connect 1 0 0 1;
#X connect 3 0 7 0;
#X connect 4 0 8 0;
#X connect 5 0 6 0;
#X connect 6 0 4 0;
#X connect 7 0 1 0;
#X connect 8 0 7 0;
#X connect 8 1 7 1;
#X connect 9 0 0 0;
#X coords 0 -1 1 1 82 30 1 100 450;
#X restore 20 31 pd vol;
#N canvas 1 81 508 647 vol 0;
#X obj 79 586 *~;
#X obj 103 504 pow 2;
#X obj 79 607 outlet~;
#X obj 104 469 hsl 75 10 0 1 0 1 empty empty empty -2 -8 0 10 -258113
-1 -1 3900 1;
#X obj 170 456 tgl 10 0 empty empty empty 17 7 0 10 -262144 -1 -1 1
1;
#X obj 170 410 loadbang;
#X msg 170 431 1;
#X obj 102 484 *;
#X obj 131 484 t b f;
#X obj 79 140 inlet~;
#X connect 0 0 2 0;
#X connect 1 0 0 1;
#X connect 3 0 7 0;
#X connect 4 0 8 0;
#X connect 5 0 6 0;
#X connect 6 0 4 0;
#X connect 7 0 1 0;
#X connect 8 0 7 0;
#X connect 8 1 7 1;
#X connect 9 0 0 0;
#X coords 0 -1 1 1 82 30 1 100 450;
#X restore 109 32 pd vol;
#N canvas 1 81 508 647 vol 0;
#X obj 79 586 *~;
#X obj 103 504 pow 2;
#X obj 79 607 outlet~;
#X obj 104 469 hsl 75 10 0 1 0 1 empty empty empty -2 -8 0 10 -258113
-1 -1 3100 1;
#X obj 170 456 tgl 10 0 empty empty empty 17 7 0 10 -262144 -1 -1 1
1;
#X obj 170 410 loadbang;
#X msg 170 431 1;
#X obj 102 484 *;
#X obj 131 484 t b f;
#X obj 79 140 inlet~;
#X connect 0 0 2 0;
#X connect 1 0 0 1;
#X connect 3 0 7 0;
#X connect 4 0 8 0;
#X connect 5 0 6 0;
#X connect 6 0 4 0;
#X connect 7 0 1 0;
#X connect 8 0 7 0;
#X connect 8 1 7 1;
#X connect 9 0 0 0;
#X coords 0 -1 1 1 82 30 1 100 450;
#X restore 198 33 pd vol;
#N canvas 1 81 508 647 vol 0;
#X obj 79 586 *~;
#X obj 103 504 pow 2;
#X obj 79 607 outlet~;
#X obj 104 469 hsl 75 10 0 1 0 1 empty empty empty -2 -8 0 10 -258113
-1 -1 6400 1;
#X obj 170 456 tgl 10 0 empty empty empty 17 7 0 10 -262144 -1 -1 1
1;
#X obj 170 410 loadbang;
#X msg 170 431 1;
#X obj 102 484 *;
#X obj 131 484 t b f;
#X obj 79 140 inlet~;
#X obj 278 561 outlet;
#X obj 288 316 inlet;
#X connect 0 0 2 0;
#X connect 1 0 0 1;
#X connect 3 0 7 0;
#X connect 4 0 8 0;
#X connect 5 0 6 0;
#X connect 6 0 4 0;
#X connect 7 0 1 0;
#X connect 7 0 10 0;
#X connect 8 0 7 0;
#X connect 8 1 7 1;
#X connect 9 0 0 0;
#X connect 11 0 3 0;
#X coords 0 -1 1 1 82 30 1 100 450;
#X restore 311 36 pd vol;
#N canvas 1 81 508 647 vol 0;
#X obj 79 586 *~;
#X obj 103 504 pow 2;
#X obj 79 607 outlet~;
#X obj 104 469 hsl 75 10 0 1 0 1 empty empty empty -2 -8 0 10 -258113
-1 -1 6400 1;
#X obj 170 456 tgl 10 0 empty empty empty 17 7 0 10 -262144 -1 -1 1
1;
#X obj 170 410 loadbang;
#X msg 170 431 1;
#X obj 102 484 *;
#X obj 131 484 t b f;
#X obj 79 140 inlet~;
#X obj 278 561 outlet;
#X obj 288 316 inlet;
#X connect 0 0 2 0;
#X connect 1 0 0 1;
#X connect 3 0 7 0;
#X connect 4 0 8 0;
#X connect 5 0 6 0;
#X connect 6 0 4 0;
#X connect 7 0 1 0;
#X connect 7 0 10 0;
#X connect 8 0 7 0;
#X connect 8 1 7 1;
#X connect 9 0 0 0;
#X connect 11 0 3 0;
#X coords 0 -1 1 1 82 30 1 100 450;
#X restore 410 33 pd vol;
#N canvas 698 167 837 705 reflexions 0;
#X obj 79 574 *~;
#X obj 103 524 pow 2;
#X obj 79 657 outlet~;
#X obj 105 483 hsl 80 10 0 1 0 1 empty empty empty -2 -8 0 10 -258113
-1 -1 6300 1;
#X obj 189 483 tgl 10 0 empty empty empty 17 7 0 10 -262144 -1 -1 1
1;
#X obj 205 432 loadbang;
#X msg 205 453 1;
#X obj 102 504 *;
#X obj 131 504 t b f;
#X obj 237 79 loadbang;
#X msg 237 100 0;
#X obj 273 326 line;
#X obj 273 348 pow 3;
#X obj 123 463 tgl 15 0 reflexions empty empty 17 7 0 10 -262144 -1
-1 0 1;
#X obj 237 119 s reflexions;
#X obj 78 171 r~ motor;
#X obj 159 234 r~ rails;
#X obj 288 252 r reflexions;
#X obj 418 83 r trainClock;
#X floatatom 321 181 5 0 0 0 - - -, f 5;
#X obj 418 127 ndmetro 2 2;
#X obj 273 275 *;
#X obj 418 167 change;
#X obj 418 258 t f f;
#X obj 418 283 mod 2;
#X obj 457 283 < 15;
#X obj 418 339 *;
#X obj 594 216 sel 0;
#X obj 594 237 t b b;
#X obj 595 260 random 24;
#X obj 531 260 random 24;
#X obj 595 329 pack f f;
#X msg 595 350 nd \$1 \$2;
#X obj 78 337 lop~ 8000;
#X obj 531 281 + 2;
#X obj 595 281 + 2;
#X obj 78 214 lop~ 1000;
#X obj 153 159 noise~;
#X obj 154 210 *~ 0.2;
#X obj 154 189 lop~ 300;
#X obj 229 156 r trainVitesse;
#X obj 229 202 / 120;
#X obj 229 223 * 0.2;
#X floatatom 228 255 5 0 0 0 - - -, f 5;
#X obj 159 255 *~ 0.5;
#X obj 27 436 delai 50;
#X obj 273 369 * 8;
#X msg 273 391 \$1 10;
#X obj 273 412 line~;
#X obj 78 395 *~;
#X obj 27 457 *~ 0.5;
#X obj 78 365 delai 20;
#X msg 697 303 9;
#X msg 513 127 nd 24 18;
#X msg 726 302 18;
#X msg 755 303 27;
#X obj 667 260 random 4;
#X obj 171 335 + 110;
#X obj 171 314 random 10;
#X obj 171 356 mtof;
#X msg 667 302 6;
#X obj 418 319 == 0;
#X obj 522 353 random 4;
#X obj 522 374 + 1;
#X obj 77 313 bp~ 6000 2;
#X obj 667 281 sel 0 1 2 3, f 16;
#X msg 273 301 \$1 40;
#X obj 77 287 hip~ 2500;
#X msg 522 84 0 60000;
#X obj 323 351 tgl 15 0 empty empty empty 17 7 0 10 -262144 -1 -1 1
1;
#X obj 169 658 outlet~;
#X obj 80 622 *~;
#X obj 170 634 *~;
#X obj 390 395 sel 1;
#X obj 435 426 r trainLine;
#X obj 435 480 -;
#X obj 450 456 f;
#X obj 435 538 * -1;
#X obj 435 559 + 1;
#X obj 435 580 clip 0 1;
#X obj 341 541 clip 0 1;
#X obj 341 583 line~;
#X obj 435 620 line~;
#X msg 341 562 \$1 10;
#X msg 435 599 \$1 10;
#X obj 435 501 * 3;
#X connect 0 0 71 0;
#X connect 0 0 72 0;
#X connect 1 0 0 1;
#X connect 3 0 7 0;
#X connect 4 0 8 0;
#X connect 5 0 6 0;
#X connect 6 0 4 0;
#X connect 7 0 1 0;
#X connect 8 0 7 0;
#X connect 8 1 7 1;
#X connect 9 0 10 0;
#X connect 10 0 14 0;
#X connect 11 0 12 0;
#X connect 12 0 46 0;
#X connect 15 0 36 0;
#X connect 16 0 44 0;
#X connect 17 0 21 1;
#X connect 17 0 69 0;
#X connect 18 0 20 0;
#X connect 20 0 22 0;
#X connect 21 0 66 0;
#X connect 22 0 23 0;
#X connect 22 0 27 0;
#X connect 23 0 24 0;
#X connect 23 1 25 0;
#X connect 24 0 61 0;
#X connect 25 0 26 1;
#X connect 26 0 21 0;
#X connect 26 0 73 0;
#X connect 27 0 28 0;
#X connect 28 0 29 0;
#X connect 28 0 30 0;
#X connect 28 0 58 0;
#X connect 28 0 62 0;
#X connect 28 1 56 0;
#X connect 29 0 35 0;
#X connect 30 0 34 0;
#X connect 31 0 32 0;
#X connect 32 0 20 0;
#X connect 33 0 51 0;
#X connect 34 0 25 1;
#X connect 35 0 31 0;
#X connect 36 0 67 0;
#X connect 37 0 39 0;
#X connect 38 0 67 0;
#X connect 39 0 38 0;
#X connect 40 0 41 0;
#X connect 41 0 42 0;
#X connect 42 0 38 1;
#X connect 44 0 67 0;
#X connect 45 0 50 0;
#X connect 46 0 47 0;
#X connect 47 0 48 0;
#X connect 48 0 49 1;
#X connect 49 0 0 0;
#X connect 49 0 45 0;
#X connect 50 0 0 0;
#X connect 51 0 49 0;
#X connect 52 0 31 1;
#X connect 53 0 20 0;
#X connect 54 0 31 1;
#X connect 55 0 31 1;
#X connect 56 0 65 0;
#X connect 57 0 59 0;
#X connect 58 0 57 0;
#X connect 59 0 64 1;
#X connect 60 0 31 1;
#X connect 61 0 26 0;
#X connect 62 0 63 0;
#X connect 63 0 24 1;
#X connect 64 0 33 0;
#X connect 65 0 60 0;
#X connect 65 1 52 0;
#X connect 65 2 54 0;
#X connect 65 3 55 0;
#X connect 66 0 11 0;
#X connect 67 0 64 0;
#X connect 68 0 20 0;
#X connect 71 0 2 0;
#X connect 72 0 70 0;
#X connect 73 0 76 0;
#X connect 74 0 75 0;
#X connect 74 0 76 1;
#X connect 75 0 85 0;
#X connect 76 0 75 1;
#X connect 77 0 78 0;
#X connect 78 0 79 0;
#X connect 79 0 84 0;
#X connect 80 0 83 0;
#X connect 81 0 71 1;
#X connect 82 0 72 1;
#X connect 83 0 81 0;
#X connect 84 0 82 0;
#X connect 85 0 77 0;
#X connect 85 0 80 0;
#X coords 0 -1 1 1 100 45 1 100 450;
#X restore 17 293 pd reflexions;
#X obj 547 140 s freinage;
#X obj 547 117 tgl 15 0 empty empty empty 17 7 0 10 -262144 -1 -1 0
1;
#X obj 626 116 tgl 15 0 empty empty empty 17 7 0 10 -262144 -1 -1 0
1;
#X obj 626 139 s accel;
#X obj 17 366 throw~ envL;
#X obj 37 384 throw~ envR;
#X obj 116 387 throw~ masterL;
#X obj 115 363 *~ 0.002;
#N canvas 1 81 508 647 vol 0;
#X obj 79 586 *~;
#X obj 103 504 pow 2;
#X obj 79 607 outlet~;
#X obj 104 469 hsl 75 10 0 1 0 1 empty empty empty -2 -8 0 10 -258113
-1 -1 4400 1;
#X obj 170 456 tgl 10 0 empty empty empty 17 7 0 10 -262144 -1 -1 1
1;
#X obj 170 410 loadbang;
#X msg 170 431 1;
#X obj 102 484 *;
#X obj 131 484 t b f;
#X obj 79 140 inlet~;
#X obj 278 561 outlet;
#X obj 288 316 inlet;
#X connect 0 0 2 0;
#X connect 1 0 0 1;
#X connect 3 0 7 0;
#X connect 4 0 8 0;
#X connect 5 0 6 0;
#X connect 6 0 4 0;
#X connect 7 0 1 0;
#X connect 7 0 10 0;
#X connect 8 0 7 0;
#X connect 8 1 7 1;
#X connect 9 0 0 0;
#X connect 11 0 3 0;
#X coords 0 -1 1 1 82 30 1 100 450;
#X restore 528 36 pd vol;
#X obj 528 15 catch~ voiture;
#X obj 528 70 s~ voiture;
#X obj 632 194 r~ voiture;
#X obj 673 334 throw~ masterL;
#X obj 767 334 throw~ masterR;
#N canvas 1 81 508 647 vol 0;
#X obj 79 586 *~;
#X obj 103 504 pow 2;
#X obj 79 607 outlet~;
#X obj 104 469 hsl 75 10 0 1 0 1 empty empty empty -2 -8 0 10 -258113
-1 -1 7400 1;
#X obj 170 456 tgl 10 0 empty empty empty 17 7 0 10 -262144 -1 -1 1
1;
#X obj 170 410 loadbang;
#X msg 170 431 1;
#X obj 102 484 *;
#X obj 131 484 t b f;
#X obj 79 140 inlet~;
#X obj 278 561 outlet;
#X obj 288 316 inlet;
#X connect 0 0 2 0;
#X connect 1 0 0 1;
#X connect 3 0 7 0;
#X connect 4 0 8 0;
#X connect 5 0 6 0;
#X connect 6 0 4 0;
#X connect 7 0 1 0;
#X connect 7 0 10 0;
#X connect 8 0 7 0;
#X connect 8 1 7 1;
#X connect 9 0 0 0;
#X connect 11 0 3 0;
#X coords 0 -1 1 1 82 30 1 100 450;
#X restore 626 36 pd vol;
#X obj 626 15 catch~ loco;
#X obj 626 70 s~ loco;
#N canvas 912 116 479 705 fenetrevoiture 0;
#X obj 79 606 *~;
#X obj 178 611 *~;
#X obj 103 524 pow 2;
#X obj 79 627 outlet~;
#X obj 178 630 outlet~;
#X obj 105 483 hsl 80 10 0 1 0 1 empty empty empty -2 -8 0 10 -258113
-1 -1 4500 1;
#X obj 189 483 tgl 10 0 empty empty empty 17 7 0 10 -262144 -1 -1 1
1;
#X obj 205 432 loadbang;
#X msg 205 453 1;
#X obj 102 504 *;
#X obj 131 504 t b f;
#X obj 105 470 hsl 80 10 0 1 0 0 fenetrevoiture empty empty -2 -8 0
10 -262144 -1 -1 0 1;
#X obj 244 258 *~ 0.5;
#X obj 269 188 bp~ 5000 1;
#X obj 269 209 delai 70;
#X obj 41 182 bp~ 5000 1;
#X obj 79 295 +~;
#X obj 179 294 +~;
#X obj 237 79 loadbang;
#X msg 237 100 0;
#X obj 269 230 *~ -0.25;
#X msg 115 191 \$1 50;
#X obj 115 212 line~;
#X obj 80 353 *~;
#X obj 180 348 *~;
#X obj 307 142 r~ freins;
#X obj 243 144 r~ rails;
#X obj 22 144 r~ motor;
#X obj 80 254 r~ envL;
#X obj 179 252 r~ envR;
#X obj 244 165 +~;
#X obj 322 633 outlet~;
#X obj 42 207 delai 30;
#X obj 159 148 * 12000;
#X obj 310 347 lp3_cheb~ 100 50;
#X obj 80 322 lp4_butt~ 100 50;
#X obj 179 324 lp4_butt~ 100 50;
#X obj 159 169 + 50;
#X obj 115 131 sqrt;
#X obj 115 160 sqrt;
#X obj 159 118 pow 2;
#X obj 115 34 r fenetrevoiture;
#X msg 115 55 \$1 1000;
#X obj 115 76 line;
#X obj 237 119 s fenetrevoiture;
#X obj 42 228 *~ -0.2;
#X obj 23 251 *~ 0.05;
#X connect 0 0 3 0;
#X connect 1 0 4 0;
#X connect 2 0 0 1;
#X connect 2 0 1 1;
#X connect 5 0 9 0;
#X connect 6 0 10 0;
#X connect 7 0 8 0;
#X connect 8 0 6 0;
#X connect 9 0 2 0;
#X connect 10 0 9 0;
#X connect 10 1 9 1;
#X connect 12 0 17 0;
#X connect 12 0 31 0;
#X connect 13 0 14 0;
#X connect 14 0 20 0;
#X connect 15 0 32 0;
#X connect 16 0 35 0;
#X connect 17 0 36 0;
#X connect 18 0 19 0;
#X connect 19 0 44 0;
#X connect 20 0 12 0;
#X connect 21 0 22 0;
#X connect 22 0 23 1;
#X connect 22 0 24 1;
#X connect 23 0 0 0;
#X connect 24 0 1 0;
#X connect 25 0 30 0;
#X connect 26 0 30 0;
#X connect 27 0 15 0;
#X connect 27 0 46 0;
#X connect 28 0 16 0;
#X connect 29 0 17 0;
#X connect 30 0 13 0;
#X connect 30 0 12 0;
#X connect 32 0 45 0;
#X connect 33 0 37 0;
#X connect 35 0 23 0;
#X connect 36 0 24 0;
#X connect 37 0 35 1;
#X connect 37 0 36 1;
#X connect 38 0 39 0;
#X connect 39 0 21 0;
#X connect 40 0 33 0;
#X connect 41 0 42 0;
#X connect 42 0 43 0;
#X connect 43 0 38 0;
#X connect 43 0 40 0;
#X connect 45 0 46 0;
#X connect 46 0 16 0;
#X connect 46 0 31 0;
#X coords 0 -1 1 1 100 45 1 100 450;
#X restore 710 216 pd fenetrevoiture;
#X connect 1 0 0 0;
#X connect 2 0 0 1;
#X connect 3 0 4 0;
#X connect 4 0 5 0;
#X connect 5 0 6 0;
#X connect 6 0 1 1;
#X connect 6 0 2 1;
#X connect 7 0 33 0;
#X connect 9 0 32 0;
#X connect 11 0 31 0;
#X connect 13 0 34 0;
#X connect 14 0 35 0;
#X connect 17 0 26 0;
#X connect 17 1 27 0;
#X connect 18 0 24 0;
#X connect 18 1 25 0;
#X connect 18 2 19 0;
#X connect 18 2 30 0;
#X connect 19 0 22 0;
#X connect 19 1 23 0;
#X connect 20 0 1 0;
#X connect 21 0 2 0;
#X connect 30 0 28 0;
#X connect 30 1 29 0;
#X connect 31 0 12 0;
#X connect 32 0 10 0;
#X connect 33 0 8 0;
#X connect 34 0 15 0;
#X connect 34 1 35 1;
#X connect 35 0 16 0;
#X connect 36 0 41 0;
#X connect 36 0 44 0;
#X connect 36 1 42 0;
#X connect 38 0 37 0;
#X connect 39 0 40 0;
#X connect 44 0 43 0;
#X connect 45 0 47 0;
#X connect 46 0 45 0;
#X connect 48 0 49 0;
#X connect 48 0 50 0;
#X connect 51 0 53 0;
#X connect 52 0 51 0;
#X connect 54 0 49 0;
#X connect 54 1 50 0;
