#N canvas 1 81 450 300 10;
#X obj 106 18 inlet;
#X obj 106 39 != 0;
#X obj 106 60 change;
#X obj 106 81 sel 0 1;
#X msg 106 123 0;
#X obj 106 174 outlet;
#X msg 209 123 1;
#X obj 138 123 del 60000;
#X obj 210 40 loadbang;
#X obj 210 61 f \$1;
#X obj 210 82 sel 0;
#X connect 0 0 1 0;
#X connect 1 0 2 0;
#X connect 2 0 3 0;
#X connect 3 0 4 0;
#X connect 3 1 6 0;
#X connect 3 1 7 0;
#X connect 4 0 5 0;
#X connect 6 0 5 0;
#X connect 7 0 4 0;
#X connect 8 0 9 0;
#X connect 9 0 10 0;
#X connect 10 1 7 1;
