#N canvas 1 81 827 438 10;
#X obj 48 35 r trainVitesse;
#X obj 155 33 r GAMME;
#X obj 326 33 r freinage;
#X obj 411 33 r accel;
#X obj 220 33 r trainMode;
#X obj 477 32 r pupitreMaitre;
#X obj 587 31 r pupitreDisjo;
#X obj 691 30 r pupitreJoystick;
#X text 45 17 common receivers to avoid "no such object" error;
#X obj 48 72 loadbang;
#X msg 48 93 \; pd dsp 1;
#X obj 98 137 r trainClock;
#X obj 131 257 unpack f f;
#X obj 131 278 t f f;
#X obj 131 326 pack f f f;
#X msg 131 347 \$1 \, \$2 \$3;
#X msg 55 267 stop;
#X obj 158 298 + 1000;
#X obj 210 298 * 1000;
#X floatatom 214 330 5 0 0 0 - - -, f 5;
#X obj 131 209 ndmetro 1e+06 1;
#X obj 98 158 t a a a;
#X obj 131 233 pack f f;
#X obj 142 179 unpack f f;
#X obj 55 224 route float;
#X obj 55 246 route -1;
#X obj 131 368 line;
#X obj 131 392 s trainLine;
#X connect 9 0 10 0;
#X connect 11 0 21 0;
#X connect 12 0 13 0;
#X connect 12 1 18 0;
#X connect 13 0 14 0;
#X connect 13 1 17 0;
#X connect 14 0 15 0;
#X connect 15 0 26 0;
#X connect 16 0 26 0;
#X connect 17 0 14 1;
#X connect 18 0 14 2;
#X connect 20 0 22 0;
#X connect 20 1 22 0;
#X connect 21 0 24 0;
#X connect 21 1 20 0;
#X connect 21 2 23 0;
#X connect 22 0 12 0;
#X connect 23 1 22 1;
#X connect 24 0 25 0;
#X connect 25 0 16 0;
#X connect 26 0 27 0;
