#N canvas 110 462 1060 393 10;
#X msg 47 189 pd~ stop;
#X obj 228 120 loadbang;
#X msg 228 165 pd~ start -nogui \$1.pd;
#X obj 22 42 bng 15 250 50 0 empty empty GUI 17 7 0 10 -4034 -1 -1
;
#X msg 113 165 pd~ start \$1.pd;
#X obj 228 141 symbol \$1;
#X obj 113 141 symbol \$1;
#X obj 204 42 r trainVitesse;
#X msg 204 89 trainVitesse \$1;
#X obj 213 253 outlet~;
#X obj 314 252 outlet~;
#X obj 188 289 outlet;
#X obj 311 40 r GAMME;
#X msg 311 87 GAMME \$1;
#X obj 113 251 route _loaded;
#X obj 113 272 b;
#X obj 204 63 f;
#X obj 311 61 f;
#X obj 166 22 b;
#X floatatom 172 93 5 0 0 0 - - -, f 5;
#X obj 113 293 del 10;
#X obj 62 42 bng 15 250 50 0 empty empty noGUI 17 7 0 10 -257985 -1
-1;
#X obj 482 40 r freinage;
#X msg 482 81 freinage \$1;
#X obj 567 40 r accel;
#X msg 567 81 accel \$1;
#X obj 376 40 r trainMode;
#X obj 376 61 list prepend trainMode;
#X obj 376 82 list trim;
#X obj 113 230 pd~ -ninsig 0 -noutsig 2 -fifo 20, f 34;
#X obj 633 39 r pupitreMaitre;
#X obj 663 83 r pupitreDisjo;
#X obj 706 122 r pupitreJoystick;
#X obj 633 167 list trim;
#X obj 633 63 list prepend pupitreMaitre;
#X obj 663 103 list prepend pupitreDisjo;
#X obj 706 141 list prepend pupitreJoystick;
#X obj 783 159 r trainClock;
#X obj 571 152 print;
#X obj 783 180 list prepend trainClock;
#X connect 0 0 29 0;
#X connect 1 0 5 0;
#X connect 2 0 29 0;
#X connect 3 0 6 0;
#X connect 4 0 29 0;
#X connect 5 0 2 0;
#X connect 6 0 4 0;
#X connect 7 0 16 0;
#X connect 8 0 29 0;
#X connect 12 0 17 0;
#X connect 13 0 29 0;
#X connect 14 0 15 0;
#X connect 14 1 11 0;
#X connect 15 0 20 0;
#X connect 16 0 8 0;
#X connect 17 0 13 0;
#X connect 18 0 16 0;
#X connect 18 0 17 0;
#X connect 20 0 18 0;
#X connect 21 0 5 0;
#X connect 22 0 23 0;
#X connect 23 0 29 0;
#X connect 24 0 25 0;
#X connect 25 0 29 0;
#X connect 26 0 27 0;
#X connect 27 0 28 0;
#X connect 28 0 29 0;
#X connect 29 0 14 0;
#X connect 29 1 9 0;
#X connect 29 2 10 0;
#X connect 30 0 34 0;
#X connect 31 0 35 0;
#X connect 32 0 36 0;
#X connect 33 0 29 0;
#X connect 34 0 33 0;
#X connect 35 0 33 0;
#X connect 36 0 33 0;
#X connect 37 0 39 0;
#X connect 39 0 33 0;
#X coords 0 -1 1 1 90 40 1 20 20;
