#N canvas 51 128 910 685 10;
#X declare -path absGAMME;
#X obj 318 246 tgl 15 0 empty empty empty 17 7 0 10 -262144 -1 -1 0
1;
#X obj 168 245 tgl 15 0 empty empty empty 17 7 0 10 -262144 -1 -1 0
1;
#X obj 458 249 tgl 15 0 empty empty empty 17 7 0 10 -262144 -1 -1 0
1;
#X obj 732 262 tgl 15 0 empty empty empty 17 7 0 10 -262144 -1 -1 0
1;
#X msg 768 285 77;
#X obj 636 276 tgl 15 0 empty empty empty 17 7 0 10 -262144 -1 -1 0
1;
#X obj 435 573 lop~ 400;
#X obj 436 597 delai 900;
#X obj 436 618 rev3~ 90 80 1000 30;
#X obj 299 50 r pupitreJoystick;
#X obj 299 71 route sw;
#X msg 692 566 led 0 \$1;
#X floatatom 259 116 5 0 0 0 - - -, f 5;
#X obj 456 226 == 0;
#X obj 607 224 &&;
#X obj 614 204 t b f;
#X obj 487 127 == 0;
#X obj 558 127 == 0;
#X obj 646 87 tgl 15 0 empty empty empty 17 7 0 10 -262144 -1 -1 0
1;
#X obj 634 122 == 0;
#X obj 673 255 sel 0 1;
#X obj 636 307 sifflet 81 88;
#X obj 715 57 declare -path absGAMME;
#X msg 701 279 83;
#X msg 673 279 82;
#X obj 775 263 sel 0 1;
#X msg 803 287 79;
#X obj 732 313 sifflet 77 88;
#X obj 91 379 tgl 15 0 empty empty empty 17 7 0 10 -262144 -1 -1 0
1;
#X obj 92 358 &&;
#X obj 99 338 t b f;
#X obj 294 355 tgl 15 0 empty empty empty 17 7 0 10 -262144 -1 -1 0
1;
#X obj 295 334 &&;
#X obj 302 314 t b f;
#X obj 445 365 tgl 15 0 empty empty empty 17 7 0 10 -262144 -1 -1 0
1;
#X obj 446 344 &&;
#X obj 453 324 t b f;
#X obj 423 170 tgl 15 0 empty empty empty 17 7 0 10 -262144 -1 -1 1
1;
#X obj 299 92 route 10 11 7 1 0 4 5, f 50;
#X obj 423 148 == 0;
#X obj 444 388 klaxon 58 65;
#X obj 207 212 sel 0 1 2;
#X msg 258 236 70;
#X msg 225 237 67.1;
#X obj 207 191 r trompe-accord;
#X obj 353 222 sel 0 1 2;
#X obj 353 201 r trompe-accord;
#X msg 335 245 67.1;
#X msg 371 247 65.1;
#X msg 404 246 62.9;
#X obj 496 227 sel 0 1 2;
#X obj 496 206 r trompe-accord;
#X msg 478 250 77.1;
#X msg 514 252 78.05;
#X msg 557 253 75.1;
#X obj 146 342 - 19;
#X obj 208 260 f;
#X obj 367 271 f;
#X obj 500 274 f;
#X obj 125 363 gammeRound GAMME 10;
#X obj 348 329 - 19;
#X obj 327 350 gammeRound GAMME 10;
#X obj 505 337 - 19;
#X obj 484 358 gammeRound GAMME 10;
#X obj 92 92 route 2 3, f 10;
#X obj 91 133 +;
#X obj 119 134 t b f;
#X obj 91 154 s trompe-accord;
#X obj 319 291 klaxon 67.1 65;
#X obj 169 283 klaxon 66.1 65;
#X obj 293 378 klaxon 48 65;
#X obj 90 402 klaxon 47 65;
#X obj 457 297 klaxon 77.1 88;
#X floatatom 215 319 5 0 0 0 - - -, f 5;
#X msg 189 235 65.1;
#X obj 302 641 outlet~;
#X obj 435 644 outlet~;
#X obj 692 636 stdout;
#X obj 692 588 list prepend toPupitreJoystick;
#X obj 692 609 list trim;
#X obj 303 567 hip~ 50;
#X obj 56 57 loadbang;
#X msg 56 78 0;
#X obj 436 545 *~;
#X msg 467 497 \$1 200;
#X obj 467 518 line~;
#X obj 169 99 route 6, f 10;
#X obj 169 120 == 0;
#X obj 644 530 ||;
#X obj 671 530 t b f;
#X obj 580 483 metro 50;
#X obj 580 504 snapshot~;
#X obj 580 440 loadbang;
#X obj 580 464 tgl 15 0 empty empty empty 17 7 0 10 -262144 -1 -1 1
1;
#X obj 580 525 != 0;
#X obj 580 546 change;
#X obj 590 571 tgl 15 0 empty empty empty 17 7 0 10 -262144 -1 -1 0
1;
#X obj 651 460 metro 1000;
#X msg 651 481 1;
#X obj 683 483 del 150;
#X msg 683 504 0;
#X obj 651 502 f;
#X obj 302 538 *~ 0.5;
#X connect 0 0 32 0;
#X connect 0 0 68 0;
#X connect 1 0 29 0;
#X connect 1 0 69 0;
#X connect 2 0 35 0;
#X connect 2 0 72 0;
#X connect 3 0 27 0;
#X connect 4 0 27 1;
#X connect 5 0 21 0;
#X connect 6 0 7 0;
#X connect 7 0 8 0;
#X connect 8 0 76 0;
#X connect 9 0 10 0;
#X connect 10 0 38 0;
#X connect 10 0 64 0;
#X connect 10 0 86 0;
#X connect 11 0 78 0;
#X connect 13 0 2 0;
#X connect 14 0 5 0;
#X connect 15 0 14 0;
#X connect 15 1 14 1;
#X connect 16 0 3 0;
#X connect 16 0 14 0;
#X connect 17 0 15 0;
#X connect 18 0 19 0;
#X connect 19 0 20 0;
#X connect 19 0 25 0;
#X connect 20 0 24 0;
#X connect 20 1 23 0;
#X connect 21 0 102 0;
#X connect 23 0 21 1;
#X connect 24 0 21 1;
#X connect 25 0 4 0;
#X connect 25 1 26 0;
#X connect 26 0 27 1;
#X connect 27 0 102 0;
#X connect 28 0 71 0;
#X connect 29 0 28 0;
#X connect 30 0 29 0;
#X connect 30 1 29 1;
#X connect 31 0 70 0;
#X connect 32 0 31 0;
#X connect 33 0 32 0;
#X connect 33 1 32 1;
#X connect 34 0 40 0;
#X connect 35 0 34 0;
#X connect 36 0 35 0;
#X connect 36 1 35 1;
#X connect 37 0 30 0;
#X connect 37 0 33 0;
#X connect 37 0 36 0;
#X connect 38 0 1 0;
#X connect 38 1 0 0;
#X connect 38 2 13 0;
#X connect 38 3 16 0;
#X connect 38 4 17 0;
#X connect 38 5 19 0;
#X connect 38 6 39 0;
#X connect 39 0 37 0;
#X connect 40 0 102 0;
#X connect 41 0 74 0;
#X connect 41 1 43 0;
#X connect 41 2 42 0;
#X connect 42 0 56 0;
#X connect 43 0 56 0;
#X connect 44 0 41 0;
#X connect 45 0 47 0;
#X connect 45 1 48 0;
#X connect 45 2 49 0;
#X connect 46 0 45 0;
#X connect 47 0 57 0;
#X connect 48 0 57 0;
#X connect 49 0 57 0;
#X connect 50 0 52 0;
#X connect 50 1 53 0;
#X connect 50 2 54 0;
#X connect 51 0 50 0;
#X connect 52 0 58 0;
#X connect 53 0 58 0;
#X connect 54 0 58 0;
#X connect 55 0 59 0;
#X connect 56 0 55 0;
#X connect 56 0 69 1;
#X connect 57 0 60 0;
#X connect 57 0 68 1;
#X connect 58 0 62 0;
#X connect 58 0 72 1;
#X connect 59 0 71 1;
#X connect 60 0 61 0;
#X connect 61 0 70 1;
#X connect 62 0 63 0;
#X connect 63 0 40 1;
#X connect 64 0 65 0;
#X connect 64 1 66 0;
#X connect 65 0 67 0;
#X connect 66 0 65 0;
#X connect 66 1 65 1;
#X connect 68 0 102 0;
#X connect 69 0 102 0;
#X connect 70 0 102 0;
#X connect 71 0 102 0;
#X connect 72 0 102 0;
#X connect 74 0 56 0;
#X connect 78 0 79 0;
#X connect 79 0 77 0;
#X connect 80 0 75 0;
#X connect 80 0 83 0;
#X connect 80 0 91 0;
#X connect 81 0 82 0;
#X connect 82 0 67 0;
#X connect 83 0 6 0;
#X connect 84 0 85 0;
#X connect 85 0 83 1;
#X connect 86 0 87 0;
#X connect 87 0 84 0;
#X connect 88 0 11 0;
#X connect 89 0 88 0;
#X connect 89 1 88 1;
#X connect 90 0 91 0;
#X connect 91 0 94 0;
#X connect 92 0 93 0;
#X connect 93 0 90 0;
#X connect 93 0 97 0;
#X connect 94 0 95 0;
#X connect 95 0 96 0;
#X connect 95 0 88 0;
#X connect 97 0 98 0;
#X connect 97 0 99 0;
#X connect 98 0 101 0;
#X connect 99 0 100 0;
#X connect 100 0 101 0;
#X connect 101 0 89 0;
#X connect 102 0 80 0;
