#N canvas 237 237 190 373 10;
#X obj 19 262 cos~;
#X obj 19 283 *~;
#X obj 19 329 outlet~;
#X obj 50 0 inlet~;
#X obj 19 306 hip~ 300;
#X obj 2 59 min~ 1;
#X obj 51 59 max~ 1;
#X obj 51 82 -~ 1;
#X obj 51 104 *~ 1e+09;
#X obj 51 126 min~ 1;
#X obj 35 149 -~;
#X obj 7 211 *~;
#X obj 7 186 +~ 0.1;
#X obj 19 239 *~ 12;
#X obj 103 0 inlet~;
#X obj 51 24 *~;
#X connect 0 0 1 0;
#X connect 1 0 4 0;
#X connect 3 0 15 0;
#X connect 4 0 2 0;
#X connect 5 0 10 0;
#X connect 6 0 7 0;
#X connect 7 0 8 0;
#X connect 8 0 9 0;
#X connect 9 0 10 1;
#X connect 10 0 1 1;
#X connect 10 0 12 0;
#X connect 11 0 13 0;
#X connect 12 0 11 1;
#X connect 12 0 11 0;
#X connect 13 0 0 0;
#X connect 14 0 15 1;
#X connect 15 0 5 0;
#X connect 15 0 6 0;
