#N canvas 104 356 745 330 10;
#X declare -path ../Speaking -stdpath motex;
#X declare -stdpath creb -lib creb -stdpath iemlib -lib iemlib1 -lib
iemlib2 -stdpath hcs -stdpath moonlib -path absGAMME;
#X obj 43 159 speaking MAIN;
#X obj 43 92 bng 15 250 50 0 empty empty empty 17 7 0 10 -262144 -1
-1;
#X obj 43 51 loadbang;
#X obj 41 14 declare -path ../Speaking -stdpath motex;
#X obj 43 112 getenv HOME;
#X msg 43 133 maindir \$1/Datas/sons-trains/paroles;
#X obj 270 86 say MAINLOCO VOICE1 RND pardon 800;
#X obj 43 72 del 100;
#X obj 306 14 auxcommon;
#X obj 306 32 declare -stdpath creb -lib creb -stdpath iemlib -lib
iemlib1 -lib iemlib2 -stdpath hcs -stdpath moonlib -path absGAMME;
#N canvas 727 274 543 584 traincroise 0;
#N canvas 119 492 450 300 klaxon1 0;
#X obj 112 85 ssaw~ 370;
#N canvas 1 216 354 265 band2 0;
#X obj 114 117 nbx 5 14 -1e+37 1e+37 0 1 empty empty empty 0 -8 0 10
-262130 -1 -1 65.0374 256;
#X obj 40 114 mtof;
#X obj 192 118 nbx 4 14 -1e+37 1e+37 0 1 empty empty Q -8 7 0 10 -204786
-1 -1 1.63 256;
#X obj 192 135 nbx 4 14 0 200 0 1 empty empty dB -12 7 0 10 -261234
-1 -1 17 256;
#X obj 114 134 nbx 5 14 -1e+37 1e+37 0 0 empty empty Hz -12 7 0 10
-262130 -1 -1 349.983 256;
#X obj 36 52 ftom;
#X msg 40 135 set \$1;
#X msg 36 71 set \$1;
#X obj 281 167 switch~;
#X obj 281 128 > 0;
#X obj 281 147 change;
#X obj 89 43 inlet~;
#X obj 181 47 inlet;
#X obj 225 47 inlet;
#X obj 270 47 inlet;
#X obj 88 227 outlet~;
#X obj 313 47 inlet;
#X obj 88 189 para_bp2~ 450 10 5 5;
#X obj 124 167 m 1;
#X connect 0 0 1 0;
#X connect 1 0 6 0;
#X connect 1 0 18 0;
#X connect 2 0 17 2;
#X connect 3 0 9 0;
#X connect 3 0 17 3;
#X connect 4 0 5 0;
#X connect 5 0 7 0;
#X connect 6 0 4 0;
#X connect 7 0 0 0;
#X connect 9 0 10 0;
#X connect 10 0 8 0;
#X connect 11 0 17 0;
#X connect 12 0 0 0;
#X connect 13 0 2 0;
#X connect 14 0 3 0;
#X connect 16 0 18 1;
#X connect 17 0 15 0;
#X connect 18 0 17 1;
#X coords 0 -1 1 1 140 50 1 100 100;
#X restore 113 118 pd band2;
#X obj 113 173 *~;
#X obj 113 194 outlet~;
#X obj 195 40 inlet;
#X msg 195 61 \$1 50;
#X obj 195 82 line~;
#X obj 295 88 mtof;
#X floatatom 295 109 5 0 0 0 - - -, f 5;
#X msg 287 49 66;
#X msg 325 48 77;
#X connect 0 0 1 0;
#X connect 1 0 2 0;
#X connect 2 0 3 0;
#X connect 4 0 5 0;
#X connect 5 0 6 0;
#X connect 6 0 2 1;
#X connect 7 0 8 0;
#X connect 9 0 7 0;
#X connect 10 0 7 0;
#X restore 268 240 pd klaxon1;
#X obj 268 213 tgl 15 0 empty empty empty 17 7 0 10 -262144 -1 -1 1
1;
#X obj 342 214 tgl 15 0 empty empty empty 17 7 0 10 -262144 -1 -1 0
1;
#N canvas 75 258 450 300 klaxon2 0;
#N canvas 1 216 354 265 band2 0;
#X obj 114 117 nbx 5 14 -1e+37 1e+37 0 1 empty empty empty 0 -8 0 10
-262130 -1 -1 76.3274 256;
#X obj 40 114 mtof;
#X obj 192 118 nbx 4 14 -1e+37 1e+37 0 1 empty empty Q -8 7 0 10 -204786
-1 -1 1.7 256;
#X obj 192 135 nbx 4 14 0 200 0 1 empty empty dB -12 7 0 10 -261234
-1 -1 17 256;
#X obj 114 134 nbx 5 14 -1e+37 1e+37 0 0 empty empty Hz -12 7 0 10
-262130 -1 -1 671.841 256;
#X obj 36 52 ftom;
#X msg 40 135 set \$1;
#X msg 36 71 set \$1;
#X obj 281 167 switch~;
#X obj 281 128 > 0;
#X obj 281 147 change;
#X obj 89 43 inlet~;
#X obj 181 47 inlet;
#X obj 225 47 inlet;
#X obj 270 47 inlet;
#X obj 88 227 outlet~;
#X obj 313 47 inlet;
#X obj 88 189 para_bp2~ 450 10 5 5;
#X obj 124 167 m 1;
#X connect 0 0 1 0;
#X connect 1 0 6 0;
#X connect 1 0 18 0;
#X connect 2 0 17 2;
#X connect 3 0 9 0;
#X connect 3 0 17 3;
#X connect 4 0 5 0;
#X connect 5 0 7 0;
#X connect 6 0 4 0;
#X connect 7 0 0 0;
#X connect 9 0 10 0;
#X connect 10 0 8 0;
#X connect 11 0 17 0;
#X connect 12 0 0 0;
#X connect 13 0 2 0;
#X connect 14 0 3 0;
#X connect 16 0 18 1;
#X connect 17 0 15 0;
#X connect 18 0 17 1;
#X coords 0 -1 1 1 140 50 1 100 100;
#X restore 113 118 pd band2;
#X obj 113 173 *~;
#X obj 113 194 outlet~;
#X obj 195 40 inlet;
#X msg 195 61 \$1 50;
#X obj 195 82 line~;
#X obj 112 85 ssaw~ 690;
#X connect 0 0 1 0;
#X connect 1 0 2 0;
#X connect 3 0 4 0;
#X connect 4 0 5 0;
#X connect 5 0 1 1;
#X connect 6 0 0 0;
#X restore 342 241 pd klaxon2;
#X obj 270 125 tgl 15 0 empty empty empty 17 7 0 10 -262144 -1 -1 0
1;
#X obj 268 147 metro 100;
#X obj 268 168 random 4;
#X obj 268 189 != 0;
#X obj 342 127 tgl 15 0 empty empty empty 17 7 0 10 -262144 -1 -1 1
1;
#X obj 342 170 random 4;
#X obj 342 191 != 0;
#X obj 342 149 metro 200;
#X obj 268 272 *~ 0.5;
#X msg 166 159 10 0 20 -1;
#X msg 173 184 5 0 0 -1;
#X obj 44 317 abs;
#X obj 44 357 > 5000;
#X obj 44 378 change;
#X obj 342 99 loadbang;
#X obj 79 148 spigot 1;
#X msg 79 168 -10 0 20 3;
#X msg 94 190 -5 0 0 3;
#X obj 123 37 route sw;
#X floatatom 123 58 5 0 0 0 - - -, f 5;
#X obj 123 16 r pupitreMaitre;
#X obj 166 140 spigot 1;
#X obj 79 79 route 15;
#X obj 79 112 sel 0 1;
#X obj 44 424 tgl 15 0 empty empty empty 17 7 0 10 -262144 -1 -1 0
1;
#X obj 44 534 s toPupitreMaitre;
#X obj 44 491 tgl 15 0 empty empty empty 17 7 0 10 -262144 -1 -1 0
1;
#X msg 44 513 led 3 \$1;
#X obj 44 399 == 0;
#X obj 44 296 spatializer env;
#X obj 268 293 spatializer env;
#X msg 178 89 1;
#X obj 44 131 bng 15 250 50 0 empty empty empty 17 7 0 10 -262144 -1
-1;
#X obj 44 274 wavplayertab train-passe 1 1;
#X floatatom 137 357 5 0 0 0 - - -, f 5;
#X obj 44 338 t f f;
#X obj 113 415 min 1000;
#X obj 86 457 metro;
#X obj 44 444 sel 0;
#X msg 44 465 0;
#X obj 113 391 / 5;
#X obj 113 436 + 200;
#X connect 0 0 12 0;
#X connect 1 0 0 0;
#X connect 2 0 3 0;
#X connect 3 0 12 0;
#X connect 4 0 5 0;
#X connect 5 0 6 0;
#X connect 6 0 7 0;
#X connect 7 0 1 0;
#X connect 8 0 11 0;
#X connect 8 0 1 0;
#X connect 9 0 10 0;
#X connect 10 0 2 0;
#X connect 11 0 9 0;
#X connect 12 0 34 0;
#X connect 13 0 14 0;
#X connect 13 0 33 1;
#X connect 14 0 34 1;
#X connect 15 0 39 0;
#X connect 16 0 17 0;
#X connect 17 0 19 1;
#X connect 17 0 25 1;
#X connect 17 0 32 0;
#X connect 18 0 8 0;
#X connect 19 0 20 0;
#X connect 20 0 21 0;
#X connect 20 0 33 1;
#X connect 21 0 34 1;
#X connect 22 0 23 0;
#X connect 22 0 26 0;
#X connect 24 0 22 0;
#X connect 25 0 13 0;
#X connect 26 0 27 0;
#X connect 26 0 36 0;
#X connect 27 0 19 0;
#X connect 27 1 25 0;
#X connect 28 0 41 0;
#X connect 28 0 42 0;
#X connect 30 0 31 0;
#X connect 31 0 29 0;
#X connect 32 0 28 0;
#X connect 33 0 15 0;
#X connect 35 0 19 1;
#X connect 35 0 25 1;
#X connect 37 0 33 0;
#X connect 39 0 16 0;
#X connect 39 1 44 0;
#X connect 40 0 45 0;
#X connect 41 0 30 0;
#X connect 42 0 43 0;
#X connect 43 0 30 0;
#X connect 44 0 40 0;
#X connect 45 0 41 1;
#X restore 584 93 pd traincroise;
#N canvas 286 136 602 630 gare 0;
#X msg 318 307 10 1 0 -1;
#X msg 257 308 5 0 10;
#X obj 214 526 s enGareVar;
#X obj 214 395 abs;
#X obj 147 505 clip -1 1;
#X obj 150 549 hsl 128 15 -1 1 0 0 empty empty empty -2 -8 0 10 -262144
-1 -1 0 1;
#X obj 147 526 change;
#X obj 214 442 + 1;
#X msg 214 463 1 \$1;
#X obj 214 484 /;
#X obj 214 416 / 10;
#X obj 147 445 / 20;
#X obj 214 505 change;
#X obj 267 481 max 0;
#X obj 123 37 route sw;
#X obj 123 16 r pupitreMaitre;
#X obj 123 66 route 8;
#X obj 264 69 tgl 15 0 empty empty empty 17 7 0 10 -262144 -1 -1 0
1;
#X obj 123 87 change;
#X obj 123 108 b;
#X obj 123 129 spigot 1;
#X obj 180 81 r enGareVar;
#X obj 180 102 == 0;
#X obj 91 100 bng 15 250 50 0 empty empty empty 17 7 0 10 -262144 -1
-1;
#X obj 104 158 bng 15 250 50 0 empty empty empty 17 7 0 10 -262144
-1 -1;
#X obj 267 460 - 0.005;
#X obj 147 370 spatializer env;
#X msg 197 137 1;
#X obj 117 244 wavplayertab gare2 1 1;
#X obj 147 327 *~ 0.5;
#X obj 301 247 wavplayertab gare1 1 1;
#X msg 326 525 enGareVar \$1;
#X obj 326 546 stdout;
#X connect 0 0 26 1;
#X connect 1 0 26 1;
#X connect 3 0 10 0;
#X connect 4 0 6 0;
#X connect 6 0 5 0;
#X connect 7 0 8 0;
#X connect 8 0 9 0;
#X connect 9 0 25 0;
#X connect 10 0 7 0;
#X connect 11 0 4 0;
#X connect 12 0 2 0;
#X connect 12 0 31 0;
#X connect 13 0 12 0;
#X connect 14 0 16 0;
#X connect 15 0 14 0;
#X connect 16 0 18 0;
#X connect 18 0 19 0;
#X connect 19 0 20 0;
#X connect 19 0 23 0;
#X connect 20 0 1 0;
#X connect 20 0 24 0;
#X connect 21 0 22 0;
#X connect 22 0 20 1;
#X connect 25 0 13 0;
#X connect 26 0 3 0;
#X connect 26 0 11 0;
#X connect 27 0 20 1;
#X connect 28 0 29 0;
#X connect 29 0 26 0;
#X connect 30 0 29 0;
#X connect 31 0 32 0;
#X restore 584 112 pd gare;
#N canvas 1 81 427 456 passage_à_niveau 0;
#X msg 170 240 5 0;
#X msg 231 245 5 0 0 -2;
#X msg 131 243 2 0;
#X obj 79 148 spigot 1;
#X obj 123 37 route sw;
#X floatatom 123 58 5 0 0 0 - - -, f 5;
#X obj 123 16 r pupitreMaitre;
#X obj 166 140 spigot 1;
#X obj 79 112 sel 0 1;
#X obj 79 79 route 11;
#X obj 83 292 abs;
#X obj 83 313 > 1000;
#X obj 83 334 change;
#X obj 96 365 tgl 15 0 empty empty empty 17 7 0 10 -262144 -1 -1 0
1;
#X obj 79 169 t b b;
#X msg 131 185 0.5;
#X msg 223 180 0.7;
#X obj 83 271 spatializer env;
#X obj 83 217 wavplayertab cloche 0.5 1;
#X connect 0 0 17 1;
#X connect 1 0 17 1;
#X connect 2 0 17 1;
#X connect 3 0 14 0;
#X connect 4 0 5 0;
#X connect 4 0 9 0;
#X connect 6 0 4 0;
#X connect 7 0 2 0;
#X connect 7 0 16 0;
#X connect 8 0 3 0;
#X connect 8 1 7 0;
#X connect 9 0 8 0;
#X connect 10 0 11 0;
#X connect 11 0 12 0;
#X connect 12 0 13 0;
#X connect 13 0 3 1;
#X connect 13 0 7 1;
#X connect 14 0 2 0;
#X connect 14 1 15 0;
#X connect 15 0 18 2;
#X connect 16 0 18 2;
#X connect 17 0 10 0;
#X connect 18 0 17 0;
#X restore 584 133 pd passage_à_niveau;
#X obj 124 230 catch~ envL;
#X obj 198 229 catch~ envR;
#X obj 153 270 dac~;
#N canvas 283 81 722 779 vaches 0;
#X msg 175 571 5 0;
#X msg 205 574 5 0 0 -2;
#X obj 123 37 route sw;
#X floatatom 38 20 5 0 0 0 - - -, f 5;
#X obj 57 621 abs;
#X obj 57 663 change;
#X obj 250 66 tgl 15 0 empty empty empty 17 7 0 10 -262144 -1 -1 1
1;
#X obj 57 600 spatializer env;
#X obj 56 538 speaker MAIN VACHE;
#X msg 105 572 1 0;
#X obj 123 16 r pupitreDisjo;
#X obj 57 642 > 20;
#X obj 157 402 spigot 1;
#X obj 206 337 spigot 1;
#X msg 134 570 1 0.5;
#X obj 270 204 say MAINVACHE VOICE1 RND Elephant 100;
#X obj 256 180 spigot 1;
#X obj 304 119 spigot 1;
#X obj 123 60 route 18 23 22 21;
#X obj 332 291 b;
#X obj 276 242 say MAINVACHE VOICE1 RND Lion 200;
#X obj 316 142 say MAINVACHE VOICE1 RND Lion 200;
#X obj 343 179 b;
#X obj 247 398 b;
#X obj 222 362 say MAINVACHE VOICE1 RND Seagull 200;
#X obj 155 428 say MAINVACHE VOICE1 RND Moo 200;
#X obj 187 468 b;
#X msg 272 528 0 0;
#X connect 0 0 7 1;
#X connect 1 0 7 1;
#X connect 2 0 3 0;
#X connect 2 0 18 0;
#X connect 4 0 11 0;
#X connect 5 0 6 0;
#X connect 6 0 12 1;
#X connect 6 0 13 1;
#X connect 6 0 16 1;
#X connect 6 0 17 1;
#X connect 7 0 4 0;
#X connect 8 0 7 0;
#X connect 9 0 7 1;
#X connect 10 0 2 0;
#X connect 11 0 5 0;
#X connect 12 0 9 0;
#X connect 12 0 25 0;
#X connect 13 0 14 0;
#X connect 13 0 24 0;
#X connect 14 0 7 1;
#X connect 15 0 20 0;
#X connect 16 0 15 0;
#X connect 16 0 9 0;
#X connect 17 0 9 0;
#X connect 17 0 21 0;
#X connect 18 0 12 0;
#X connect 18 1 13 0;
#X connect 18 2 16 0;
#X connect 18 3 17 0;
#X connect 19 0 15 0;
#X connect 20 0 19 0;
#X connect 21 0 22 0;
#X connect 22 0 21 0;
#X connect 23 0 24 0;
#X connect 24 0 23 0;
#X connect 25 0 26 0;
#X connect 26 0 25 0;
#X connect 27 0 7 1;
#X restore 584 154 pd vaches;
#N canvas 670 130 427 511 chien 0;
#X msg 181 284 5 0;
#X msg 215 285 5 0 0 -2;
#X obj 123 37 route sw;
#X floatatom 123 58 5 0 0 0 - - -, f 5;
#X obj 94 336 abs;
#X obj 94 378 change;
#X obj 94 401 tgl 15 0 empty empty empty 17 7 0 10 -262144 -1 -1 1
1;
#X obj 94 315 spatializer env;
#X msg 142 287 1 0;
#X obj 123 16 r pupitreDisjo;
#X obj 93 253 speaker MAIN DOG;
#X obj 97 89 route 16;
#X obj 94 357 > 20;
#X obj 97 112 spigot 1;
#X obj 195 165 say MAINDOG VOICE1 RND Barking 300;
#X obj 139 174 b;
#X connect 0 0 7 1;
#X connect 1 0 7 1;
#X connect 2 0 3 0;
#X connect 2 0 11 0;
#X connect 4 0 12 0;
#X connect 5 0 6 0;
#X connect 6 0 13 1;
#X connect 7 0 4 0;
#X connect 8 0 7 1;
#X connect 9 0 2 0;
#X connect 10 0 7 0;
#X connect 11 0 13 0;
#X connect 12 0 5 0;
#X connect 13 0 8 0;
#X connect 13 0 14 0;
#X connect 14 0 15 0;
#X connect 15 0 14 0;
#X restore 584 177 pd chien;
#N canvas 1 81 463 511 fanfare 0;
#X msg 181 284 5 0;
#X msg 215 285 5 0 0 -2;
#X obj 123 37 route sw;
#X floatatom 123 58 5 0 0 0 - - -, f 5;
#X obj 94 336 abs;
#X obj 94 378 change;
#X obj 94 401 tgl 15 0 empty empty empty 17 7 0 10 -262144 -1 -1 0
1;
#X obj 94 315 spatializer env;
#X msg 142 287 1 0;
#X obj 123 16 r pupitreDisjo;
#X obj 93 253 speaker MAIN FANF;
#X obj 99 92 route 15;
#X obj 94 357 > 20;
#X obj 99 114 spigot 1;
#X obj 235 166 say MAINFANF VOICE1 RND Fanfare 600;
#X obj 175 175 b;
#X connect 0 0 7 1;
#X connect 1 0 7 1;
#X connect 2 0 3 0;
#X connect 2 0 11 0;
#X connect 4 0 12 0;
#X connect 5 0 6 0;
#X connect 6 0 13 1;
#X connect 7 0 4 0;
#X connect 8 0 7 1;
#X connect 9 0 2 0;
#X connect 10 0 7 0;
#X connect 11 0 13 0;
#X connect 12 0 5 0;
#X connect 13 0 8 0;
#X connect 13 0 14 0;
#X connect 14 0 15 0;
#X connect 15 0 14 0;
#X restore 584 199 pd fanfare;
#N canvas 293 86 722 779 cars-moped 0;
#X msg 175 571 5 0;
#X msg 205 574 5 0 0 -2;
#X obj 123 37 route sw;
#X floatatom 38 20 5 0 0 0 - - -, f 5;
#X obj 57 621 abs;
#X obj 57 663 change;
#X obj 250 66 tgl 15 0 empty empty empty 17 7 0 10 -262144 -1 -1 1
1;
#X obj 57 600 spatializer env;
#X msg 105 572 1 0;
#X obj 123 16 r pupitreDisjo;
#X obj 157 402 spigot 1;
#X obj 206 337 spigot 1;
#X msg 134 570 1 0.5;
#X obj 353 273 spigot 1;
#X obj 19 93 print;
#X obj 56 538 speaker MAIN CAR;
#X obj 123 60 route 20 14 13 21;
#X obj 57 642 > 80;
#X obj 390 333 b;
#X obj 365 295 say MAINCAR VOICE1 RND Submachine 600;
#X obj 222 362 say MAINCAR VOICE1 RND Car 600;
#X obj 247 398 b;
#X obj 156 428 say MAINCAR VOICE1 RND Moped 600;
#X obj 187 467 b;
#X connect 0 0 7 1;
#X connect 1 0 7 1;
#X connect 2 0 3 0;
#X connect 2 0 16 0;
#X connect 4 0 17 0;
#X connect 5 0 6 0;
#X connect 6 0 10 1;
#X connect 6 0 11 1;
#X connect 6 0 13 1;
#X connect 7 0 4 0;
#X connect 8 0 7 1;
#X connect 9 0 2 0;
#X connect 10 0 8 0;
#X connect 10 0 22 0;
#X connect 11 0 12 0;
#X connect 11 0 20 0;
#X connect 12 0 7 1;
#X connect 13 0 8 0;
#X connect 13 0 19 0;
#X connect 15 0 7 0;
#X connect 16 0 10 0;
#X connect 16 1 11 0;
#X connect 16 2 13 0;
#X connect 17 0 5 0;
#X connect 19 0 18 0;
#X connect 20 0 21 0;
#X connect 21 0 20 0;
#X connect 22 0 23 0;
#X connect 23 0 22 0;
#X restore 584 221 pd cars-moped;
#N canvas 456 326 722 539 cavalry 0;
#X msg 193 381 5 0;
#X msg 223 384 5 0 0 -2;
#X obj 123 37 route sw;
#X floatatom 38 20 5 0 0 0 - - -, f 5;
#X obj 75 431 abs;
#X obj 75 473 change;
#X obj 57 153 tgl 15 0 empty empty empty 17 7 0 10 -262144 -1 -1 1
1;
#X obj 75 410 spatializer env;
#X msg 123 382 1 0;
#X obj 123 16 r pupitreDisjo;
#X obj 123 188 spigot 1;
#X msg 152 380 1 0.5;
#X obj 19 93 print;
#X obj 75 452 > 80;
#X obj 76 328 speaker MAIN CAVAL;
#X obj 249 257 bng 15 250 50 0 empty empty empty 17 7 0 10 -262144
-1 -1;
#X obj 207 187 sel 1 0;
#X obj 123 60 route 19;
#X obj 95 86 tgl 15 0 empty empty empty 17 7 0 10 -262144 -1 -1 1 1
;
#X obj 123 81 == 0;
#X obj 226 238 t b f;
#X obj 110 355 wavplayertab paroles/antoine/Cavalry/CavalryLong 1 1
;
#X msg 215 45 0;
#X obj 226 290 say MAINCAVAL VOICE1 0 Cavalry 100;
#X obj 226 217 urn 6;
#X connect 0 0 7 1;
#X connect 1 0 7 1;
#X connect 2 0 3 0;
#X connect 2 0 17 0;
#X connect 4 0 13 0;
#X connect 5 0 6 0;
#X connect 6 0 10 1;
#X connect 7 0 4 0;
#X connect 8 0 7 1;
#X connect 9 0 2 0;
#X connect 10 0 8 0;
#X connect 11 0 7 1;
#X connect 13 0 5 0;
#X connect 14 0 7 0;
#X connect 15 0 23 0;
#X connect 16 0 24 0;
#X connect 16 1 24 0;
#X connect 17 0 18 0;
#X connect 17 0 19 0;
#X connect 19 0 10 0;
#X connect 19 0 16 0;
#X connect 20 0 23 0;
#X connect 20 1 23 2;
#X connect 21 0 7 0;
#X connect 22 0 19 0;
#X connect 24 0 20 0;
#X restore 584 243 pd cavalry;
#N canvas 1 81 580 497 sifflet 1;
#X msg 181 284 5 0;
#X msg 215 285 5 0 0 -2;
#X obj 123 37 route sw;
#X floatatom 123 58 5 0 0 0 - - -, f 5;
#X obj 94 336 abs;
#X obj 94 378 change;
#X obj 117 417 tgl 15 0 empty empty empty 17 7 0 10 -262144 -1 -1 1
1;
#X obj 94 315 spatializer env;
#X msg 142 287 1 0;
#X obj 94 357 > 20;
#X obj 94 81 spigot 1;
#X obj 93 253 speaker MAIN SIFFLET;
#X obj 244 183 say MAINSIFFLET VOICE1 RND Whistle 100;
#X obj 70 89 bng 15 250 50 0 empty empty empty 17 7 0 10 -262144 -1
-1;
#X obj 123 16 r pupitreMaitre;
#X obj 278 142 bng 15 250 50 0 empty empty empty 17 7 0 10 -262144
-1 -1;
#X obj 245 30 r pupitreDisjo;
#X obj 244 54 route sw;
#X obj 164 127 route 5;
#X floatatom 338 89 5 0 0 0 - - -, f 5;
#X obj 244 75 route 17;
#X obj 244 100 spigot 1;
#X obj 334 233 say MAINSIFFLET VOICE1 RND Horn 800;
#X obj 179 410 bng 15 250 50 0 empty empty empty 17 7 0 10 -262144
-1 -1;
#X msg 297 319 1;
#X connect 0 0 7 1;
#X connect 1 0 7 1;
#X connect 2 0 3 0;
#X connect 2 0 10 0;
#X connect 4 0 9 0;
#X connect 5 0 6 0;
#X connect 6 0 10 1;
#X connect 6 0 21 1;
#X connect 7 0 4 0;
#X connect 8 0 7 1;
#X connect 8 0 23 0;
#X connect 9 0 5 0;
#X connect 10 0 18 0;
#X connect 11 0 7 0;
#X connect 12 0 24 0;
#X connect 13 0 10 0;
#X connect 14 0 2 0;
#X connect 15 0 8 0;
#X connect 15 0 22 0;
#X connect 16 0 17 0;
#X connect 17 0 19 0;
#X connect 17 0 20 0;
#X connect 18 0 12 0;
#X connect 18 0 8 0;
#X connect 20 0 21 0;
#X connect 21 0 15 0;
#X connect 22 0 24 0;
#X connect 24 0 10 1;
#X connect 24 0 21 1;
#X restore 584 266 pd sifflet;
#X connect 1 0 4 0;
#X connect 2 0 7 0;
#X connect 4 0 5 0;
#X connect 5 0 0 0;
#X connect 7 0 1 0;
#X connect 13 0 15 0;
#X connect 14 0 15 1;
