#N canvas 229 150 483 685 10;
#X declare -path absGAMME;
#X declare -stdpath iemlib;
#X obj 123 68 r freinage;
#X obj 109 608 outlet~;
#X obj 209 114 sel 1 0;
#X obj 209 68 r trainVitesse;
#X obj 209 89 >= 1;
#X obj 123 146 &&;
#X obj 138 121 t b f;
#X obj 109 570 *~;
#X obj 123 167 change;
#X obj 123 189 sel 0 1;
#X obj 123 353 line~;
#X obj 37 393 noise~;
#N canvas 1 405 354 265 band2 0;
#X obj 114 117 nbx 5 14 -1e+37 1e+37 0 1 empty empty empty 0 -8 0 10
-262130 -1 -1 123 256;
#X obj 40 114 mtof;
#X obj 192 118 nbx 4 14 -1e+37 1e+37 0 1 empty empty Q -8 7 0 10 -204786
-1 -1 97.63 256;
#X obj 192 135 nbx 4 14 0 200 0 1 empty empty dB -12 7 0 10 -261234
-1 -1 45 256;
#X obj 114 134 nbx 5 14 -1e+37 1e+37 0 0 empty empty Hz -12 7 0 10
-262130 -1 -1 9955.8 256;
#X obj 36 52 ftom;
#X msg 40 135 set \$1;
#X msg 36 71 set \$1;
#X obj 89 43 inlet~;
#X obj 181 47 inlet;
#X obj 225 47 inlet;
#X obj 270 47 inlet;
#X obj 88 227 outlet~;
#X obj 313 47 inlet;
#X obj 124 167 m 1;
#X floatatom 146 228 5 0 0 0 - - -, f 5;
#X obj 88 189 para_bp2~ 450 10 5 1;
#X connect 0 0 1 0;
#X connect 1 0 6 0;
#X connect 1 0 14 0;
#X connect 2 0 16 2;
#X connect 3 0 16 3;
#X connect 4 0 5 0;
#X connect 5 0 7 0;
#X connect 6 0 4 0;
#X connect 7 0 0 0;
#X connect 8 0 16 0;
#X connect 9 0 0 0;
#X connect 10 0 2 0;
#X connect 11 0 3 0;
#X connect 13 0 14 1;
#X connect 14 0 16 1;
#X connect 16 0 12 0;
#X coords 0 -1 1 1 140 50 1 100 100;
#X restore 37 460 pd band2;
#X obj 294 151 metro 10;
#X obj 294 193 sel 0;
#X obj 222 194 random 1000;
#X obj 222 215 / 1000;
#X obj 294 214 random 10000;
#X obj 294 235 / 10000;
#X obj 222 257 + 1;
#X obj 222 299 line;
#X obj 340 86 loadbang;
#X obj 142 229 + 10;
#X obj 62 236 + 10;
#X msg 142 249 1 \$1;
#X msg 123 271 0 \$1;
#X obj 142 208 random 5000;
#X obj 62 215 random 1000;
#X obj 222 236 * 0.1;
#X obj 294 172 random 1000;
#X obj 122 380 *~;
#X obj 294 300 t b f;
#X obj 161 352 line~;
#X obj 306 400 f;
#X msg 222 278 \$1 150;
#X msg 294 321 0 200;
#X obj 271 349 del 200;
#X msg 271 370 1 200;
#X obj 35 20 declare -path absGAMME;
#X obj 306 424 gammeRound GAMME 10;
#X obj 294 256 * 40;
#X obj 199 21 declare -stdpath iemlib;
#X obj 37 414 hp4_butt~ 1000;
#X obj 360 354 r frein-params;
#X obj 9 325 r frein-params;
#X obj 360 375 route accord;
#X obj 9 346 route hpf bpf bpq;
#X obj 294 279 + 88;
#X obj 37 438 bp~ 6000 4;
#X connect 0 0 5 0;
#X connect 0 0 13 0;
#X connect 3 0 4 0;
#X connect 4 0 2 0;
#X connect 4 0 6 0;
#X connect 5 0 8 0;
#X connect 6 0 5 0;
#X connect 6 1 5 1;
#X connect 7 0 1 0;
#X connect 8 0 9 0;
#X connect 9 0 27 0;
#X connect 9 1 26 0;
#X connect 10 0 30 0;
#X connect 11 0 42 0;
#X connect 12 0 7 0;
#X connect 13 0 15 0;
#X connect 13 0 29 0;
#X connect 14 0 17 0;
#X connect 15 0 16 0;
#X connect 16 0 28 0;
#X connect 17 0 18 0;
#X connect 18 0 40 0;
#X connect 19 0 34 0;
#X connect 20 0 12 4;
#X connect 21 0 15 0;
#X connect 21 0 17 0;
#X connect 22 0 24 0;
#X connect 23 0 25 0;
#X connect 24 0 10 0;
#X connect 25 0 10 0;
#X connect 26 0 22 0;
#X connect 27 0 23 0;
#X connect 28 0 19 0;
#X connect 29 0 14 0;
#X connect 30 0 7 1;
#X connect 31 0 35 0;
#X connect 31 0 36 0;
#X connect 31 1 33 1;
#X connect 32 0 30 1;
#X connect 33 0 39 0;
#X connect 34 0 20 0;
#X connect 35 0 32 0;
#X connect 36 0 37 0;
#X connect 36 0 33 0;
#X connect 37 0 32 0;
#X connect 39 0 12 1;
#X connect 40 0 47 0;
#X connect 42 0 48 0;
#X connect 43 0 45 0;
#X connect 44 0 46 0;
#X connect 45 0 39 1;
#X connect 46 0 42 1;
#X connect 46 1 48 1;
#X connect 46 2 48 2;
#X connect 47 0 31 0;
#X connect 48 0 12 0;
