#N canvas 108 424 1084 398 10;
#X obj 198 283 throw~ freins;
#X obj 471 19 hsl 128 15 0 1 0 0 empty empty empty -2 -8 0 10 -262144
-1 -1 0 1;
#X obj 41 49 s freinage;
#X obj 41 26 tgl 15 0 empty empty empty 17 7 0 10 -262144 -1 -1 0 1
;
#X floatatom 386 206 5 0 400 0 - - -, f 5;
#X obj 366 234 s trainVitesse;
#X msg 386 186 2;
#X obj 16 327 s frein-params;
#X msg 15 229 accord \$1;
#X floatatom 15 205 5 0 0 0 - - -, f 5;
#X floatatom 81 204 5 0 0 0 - - -, f 5;
#X msg 81 228 lpf \$1;
#X floatatom 136 203 5 0 0 0 - - -, f 5;
#X msg 136 227 bpf \$1;
#X floatatom 137 247 5 0 0 0 - - -, f 5;
#X msg 137 271 bpq \$1;
#X obj 430 44 r trainVitesse;
#X obj 366 23 r freinage;
#X obj 366 44 metro 20;
#X obj 366 65 f;
#X obj 366 158 max 0;
#X obj 366 137 - 0.1;
#X obj 430 67 / 120;
#X obj 430 88 * -1;
#X obj 430 109 + 1;
#X obj 430 130 clip 0 1;
#X obj 198 165 clone 20 frein-siffle;
#X obj 120 25 tgl 15 0 empty empty empty 17 7 0 10 -262144 -1 -1 0
1;
#X obj 120 48 s accel;
#X floatatom 590 306 5 0 400 0 - - -, f 5;
#X obj 570 334 s trainVitesse;
#X msg 590 286 2;
#X obj 585 188 r trainVitesse;
#X obj 570 167 metro 20;
#X obj 570 215 f;
#X obj 570 56 r accel;
#X obj 570 99 line;
#X obj 570 120 t f f;
#X obj 570 144 != 0;
#X obj 570 237 + 0.1;
#X obj 597 214 * 0.05;
#X obj 570 258 min 180;
#X floatatom 497 132 5 0 0 0 - - -, f 5;
#X obj 430 172 + 0.1;
#X obj 430 151 * 0.15;
#X obj 199 219 *~ 0.1;
#X msg 570 78 \$1 200;
#X floatatom 784 285 5 0 400 0 - - -, f 5;
#X obj 764 313 s trainVitesse;
#X msg 784 265 2;
#X obj 828 123 r trainVitesse;
#X obj 764 144 f;
#X obj 764 237 max 0;
#X obj 875 148 / 120;
#X obj 875 169 * -1;
#X obj 875 190 + 1;
#X obj 875 211 clip 0 1;
#X obj 875 253 + 0.1;
#X obj 875 232 * 0.15;
#X obj 764 100 tgl 15 0 empty empty empty 17 7 0 10 -262144 -1 -1 1
1;
#X obj 764 35 r trainMode;
#X msg 764 77 1;
#X msg 809 78 0;
#X obj 764 56 route none;
#X obj 764 123 metro 200;
#X floatatom 724 288 5 0 0 0 - - -, f 5;
#X obj 764 216 - 0.01;
#X connect 1 0 23 0;
#X connect 3 0 2 0;
#X connect 4 0 5 0;
#X connect 6 0 4 0;
#X connect 8 0 7 0;
#X connect 9 0 8 0;
#X connect 10 0 11 0;
#X connect 11 0 7 0;
#X connect 12 0 13 0;
#X connect 13 0 7 0;
#X connect 14 0 15 0;
#X connect 15 0 7 0;
#X connect 16 0 19 1;
#X connect 16 0 22 0;
#X connect 17 0 18 0;
#X connect 18 0 19 0;
#X connect 19 0 21 0;
#X connect 20 0 5 0;
#X connect 21 0 20 0;
#X connect 22 0 23 0;
#X connect 23 0 24 0;
#X connect 24 0 25 0;
#X connect 25 0 44 0;
#X connect 26 0 45 0;
#X connect 27 0 28 0;
#X connect 29 0 30 0;
#X connect 31 0 29 0;
#X connect 32 0 34 1;
#X connect 33 0 34 0;
#X connect 34 0 39 0;
#X connect 35 0 46 0;
#X connect 36 0 37 0;
#X connect 37 0 38 0;
#X connect 37 1 40 0;
#X connect 38 0 33 0;
#X connect 39 0 41 0;
#X connect 40 0 39 1;
#X connect 41 0 30 0;
#X connect 43 0 21 1;
#X connect 44 0 43 0;
#X connect 45 0 0 0;
#X connect 46 0 36 0;
#X connect 47 0 48 0;
#X connect 49 0 47 0;
#X connect 50 0 51 1;
#X connect 51 0 66 0;
#X connect 52 0 48 0;
#X connect 53 0 54 0;
#X connect 54 0 55 0;
#X connect 55 0 56 0;
#X connect 56 0 58 0;
#X connect 58 0 57 0;
#X connect 59 0 64 0;
#X connect 60 0 63 0;
#X connect 61 0 59 0;
#X connect 62 0 59 0;
#X connect 63 0 61 0;
#X connect 63 1 62 0;
#X connect 64 0 51 0;
#X connect 66 0 52 0;
