#N canvas 1 108 383 389 10;
#X obj 87 46 cnv 15 200 100 empty empty gears 20 12 1 16 -233017 -258699
0;
#X obj 236 116 tgl 22 1 \$0-throb-mute empty empty 0 -6 0 8 -262144
-1 -1 1 1;
#X obj 115 87 hsl 100 12 0 1 0 1 \$0-throb-rattle \$0-throb-rattle-r
rattle 35 6 1 8 -262144 -1 -1 2100 1;
#X obj 115 75 hsl 100 12 0 1 0 1 \$0-throb-freq \$0-throb-freq-r speed
35 6 1 8 -262144 -1 -1 8500 1;
#X obj 115 99 hsl 100 12 0 1 0 1 \$0-throb-harm1 \$0-throb-harm1-r
harm1 35 6 1 8 -262144 -1 -1 2700 1;
#X obj 115 109 hsl 100 12 0 1 0 1 \$0-throb-harm2 \$0-throb-harm2-r
harm2 35 6 1 8 -262144 -1 -1 4711 1;
#X obj 115 119 hsl 100 12 0 1 0 1 \$0-throb-body \$0-throb-body-r body
35 6 1 8 -262144 -1 -1 1167 1;
#X obj 115 129 hsl 100 12 0 1 0 1 \$0-throb-vol \$0-throb-vol-r vol
35 6 1 8 -262144 -1 -1 2800 1;
#X obj 90 243 *~ 0.4;
#N canvas 139 86 830 625 gears 1;
#X obj 353 408 vd~ \$0-o1;
#X obj 22 419 delwrite~ \$0-o1 90;
#X obj 176 420 delwrite~ \$0-o2 90;
#X obj 422 408 vd~ \$0-o2;
#X obj 22 395 osc~ 400;
#X obj 352 343 *~ 0.5;
#X obj 353 366 +~ 0.5;
#X obj 422 323 *~ 0.5;
#X obj 423 346 +~ 0.5;
#X obj 423 303 osc~ 89;
#X obj 176 395 osc~ 240;
#X obj 423 379 *~ 2;
#X obj 352 386 *~ 2;
#X obj 353 323 osc~ 345;
#X obj 226 159 * 0.5;
#X obj 301 159 * 0.5;
#X obj 424 176 * 0.5;
#X obj 313 128 t;
#X obj 358 448 +~;
#X obj 76 185 *~;
#X obj 403 448 *~;
#X obj 76 159 clip~ -1 1;
#X obj 402 472 *~ 0.5;
#X obj 397 544 outlet~;
#X text 172 48 f;
#X text 415 90 odd;
#X obj 84 59 * 0.7;
#X obj 207 88 t f f f f;
#X obj 466 266 t f f;
#X obj 401 114 t f f;
#X obj 323 91 t f f;
#X obj 323 68 * 2;
#X obj 483 181 * 50;
#X obj 398 502 *~;
#X obj 254 -31 inlet;
#X obj 253 -7 unpack f f f f f f f;
#X obj 550 145 t b f;
#X obj 453 472 line~;
#X msg 457 444 \$1 100;
#X obj 550 177 * 1;
#X obj 398 523 *~ 0.4;
#X obj 424 273 *~;
#X obj 424 234 sig~;
#X obj 355 294 *~;
#X obj 354 255 sig~;
#X obj 177 345 sig~;
#X obj 22 347 sig~;
#X obj 176 371 *~;
#X obj 21 373 *~;
#X obj 211 63 * 200;
#X obj 313 535 s~ \$0-fb;
#X obj 76 131 r~ \$0-fb;
#X obj 267 214 +~;
#X obj 266 188 line~;
#X obj 627 65 metro 50;
#X obj 627 45 tgl 15 0 empty empty empty 17 7 0 10 -262144 -1 -1 1
1;
#X obj 682 191 +;
#X obj 629 118 -;
#X obj 629 144 moses 0;
#X obj 629 94 f;
#X obj 716 189 f;
#X msg 682 217 \$1 100;
#X obj 627 168 * 0.001;
#X msg 739 115 0;
#X obj 720 50 sel 0;
#X obj 682 167 * 0.02;
#X msg 759 72 0.01;
#X obj 627 22 loadbang;
#X obj 700 8 inlet speed;
#X msg 718 74 0.005;
#X connect 0 0 18 0;
#X connect 0 0 20 0;
#X connect 3 0 18 1;
#X connect 3 0 20 1;
#X connect 4 0 1 0;
#X connect 5 0 6 0;
#X connect 6 0 12 0;
#X connect 7 0 8 0;
#X connect 8 0 11 0;
#X connect 9 0 7 0;
#X connect 10 0 2 0;
#X connect 11 0 3 0;
#X connect 12 0 0 0;
#X connect 13 0 5 0;
#X connect 14 0 45 0;
#X connect 15 0 44 0;
#X connect 16 0 42 0;
#X connect 17 0 14 0;
#X connect 17 0 15 0;
#X connect 17 0 16 0;
#X connect 18 0 33 0;
#X connect 18 0 50 0;
#X connect 19 0 1 0;
#X connect 19 0 2 0;
#X connect 20 0 22 0;
#X connect 21 0 19 0;
#X connect 22 0 50 0;
#X connect 26 0 19 1;
#X connect 27 0 46 0;
#X connect 27 1 14 0;
#X connect 27 2 15 0;
#X connect 27 3 16 0;
#X connect 28 0 12 1;
#X connect 28 1 11 1;
#X connect 29 0 17 0;
#X connect 29 1 16 1;
#X connect 30 0 17 0;
#X connect 30 1 15 1;
#X connect 31 0 30 0;
#X connect 32 0 28 0;
#X connect 33 0 40 0;
#X connect 34 0 35 0;
#X connect 35 0 26 0;
#X connect 35 1 49 0;
#X connect 35 2 31 0;
#X connect 35 3 29 0;
#X connect 35 4 32 0;
#X connect 35 5 39 0;
#X connect 35 6 36 0;
#X connect 36 0 39 0;
#X connect 36 1 39 1;
#X connect 37 0 33 1;
#X connect 38 0 37 0;
#X connect 39 0 38 0;
#X connect 40 0 23 0;
#X connect 41 0 9 0;
#X connect 42 0 41 0;
#X connect 43 0 13 0;
#X connect 44 0 43 0;
#X connect 45 0 47 0;
#X connect 46 0 48 0;
#X connect 47 0 10 0;
#X connect 48 0 4 0;
#X connect 49 0 27 0;
#X connect 51 0 21 0;
#X connect 52 0 47 1;
#X connect 52 0 48 1;
#X connect 52 0 43 1;
#X connect 52 0 41 1;
#X connect 53 0 52 0;
#X connect 54 0 59 0;
#X connect 55 0 54 0;
#X connect 56 0 57 1;
#X connect 56 0 60 0;
#X connect 56 0 61 0;
#X connect 57 0 58 0;
#X connect 58 0 62 0;
#X connect 58 1 65 0;
#X connect 59 0 57 0;
#X connect 60 0 56 1;
#X connect 61 0 53 0;
#X connect 62 0 56 0;
#X connect 63 0 60 0;
#X connect 64 0 69 0;
#X connect 64 1 66 0;
#X connect 65 0 56 0;
#X connect 66 0 62 1;
#X connect 67 0 55 0;
#X connect 68 0 59 1;
#X connect 68 0 64 0;
#X connect 69 0 62 1;
#X restore 90 216 pd gears;
#N canvas 1 96 683 483 gears 0;
#X obj 66 43 r \$0-throb-rattle;
#X obj 80 65 r \$0-throb-freq;
#X obj 92 87 r \$0-throb-harm1;
#X obj 108 110 r \$0-throb-harm2;
#X obj 142 130 r \$0-throb-body;
#X obj 157 157 r \$0-throb-vol;
#X obj 85 183 t b;
#X obj 76 270 outlet;
#X obj 189 180 r \$0-throb-mute;
#X obj 73 237 pack f f f f f f f;
#X connect 0 0 9 0;
#X connect 1 0 6 0;
#X connect 1 0 9 1;
#X connect 2 0 6 0;
#X connect 2 0 9 2;
#X connect 3 0 6 0;
#X connect 3 0 9 3;
#X connect 4 0 6 0;
#X connect 4 0 9 4;
#X connect 5 0 6 0;
#X connect 5 0 9 5;
#X connect 6 0 9 0;
#X connect 8 0 9 6;
#X connect 8 0 6 0;
#X connect 9 0 7 0;
#X restore 90 194 pd gears if;
#X obj 167 47 loadbang;
#X obj 89 276 hip~ 20;
#X obj 89 303 outlet~;
#X obj 169 196 inlet;
#X connect 8 0 12 0;
#X connect 9 0 8 0;
#X connect 10 0 9 0;
#X connect 11 0 3 0;
#X connect 12 0 13 0;
#X connect 14 0 9 1;
