#N canvas 630 95 840 685 10;
#X declare -lib creb;
#X obj 250 12 inlet;
#X obj 160 372 phasor~;
#X obj 175 521 *~;
#X obj 179 478 *~;
#N canvas 1 242 292 361 rotor 0;
#X obj 117 227 *~;
#X obj 117 67 *~;
#X obj 117 135 +~;
#X obj 134 182 *~;
#X obj 133 110 sig~ 0.2;
#X obj 117 0 noise~;
#X obj 117 22 bp~ 4000 1;
#X obj 133 204 *~;
#X obj 134 157 inlet~ drive;
#X obj 117 272 outlet~;
#X obj 133 44 r \$0-brush-level;
#X obj 133 87 r \$0-rotor-level;
#X connect 0 0 9 0;
#X connect 1 0 2 0;
#X connect 2 0 0 0;
#X connect 3 0 7 0;
#X connect 3 0 7 1;
#X connect 4 0 2 1;
#X connect 5 0 6 0;
#X connect 6 0 1 0;
#X connect 7 0 0 1;
#X connect 8 0 3 0;
#X connect 8 0 3 1;
#X connect 10 0 1 1;
#X connect 11 0 4 0;
#X restore 160 409 pd rotor;
#N canvas 533 209 203 345 stator 0;
#X obj -1 96 sig~ 1;
#X obj 31 150 /~;
#X obj 47 123 +~ 1;
#X obj 47 96 *~;
#X obj 47 68 cos~;
#X obj 47 46 wrap~;
#X obj 30 172 -~ 0.5;
#X obj 47 22 *~ 2;
#X obj 48 -2 inlet~ drive;
#X obj 31 249 outlet~;
#X obj 31 222 *~;
#X obj 47 198 r \$0-stator-level;
#X connect 0 0 1 0;
#X connect 1 0 6 0;
#X connect 2 0 1 1;
#X connect 3 0 2 0;
#X connect 4 0 3 0;
#X connect 4 0 3 1;
#X connect 5 0 4 0;
#X connect 6 0 10 0;
#X connect 7 0 5 0;
#X connect 8 0 7 0;
#X connect 10 0 9 0;
#X connect 11 0 10 1;
#X restore 226 409 pd stator;
#X obj 161 443 +~;
#X obj 182 311 line~;
#X obj 7 55 hsl 64 12 0 1 0 1 \$0-brush-level empty brush-level 5 6
1 8 -262144 -1 -1 1300 1;
#X obj 7 69 hsl 64 12 0 1 0 1 \$0-rotor-level empty rotor-level 5 6
1 8 -262144 -1 -1 4900 1;
#X obj 6 108 hsl 64 12 0 1 0 1 \$0-volume empty volume 10 6 1 8 -262144
-1 -1 3500 1;
#X obj 7 41 hsl 64 12 0 1 0 1 \$0-stator-level empty stator-level 4
6 1 8 -262144 -1 -1 4400 1;
#X obj 221 469 min~ 1;
#X obj 222 444 abs~;
#X obj 191 499 r \$0-volume;
#X obj 7 85 hsl 64 12 0 1 0 1 \$0-tube-res empty tube-res 10 6 1 8
-262144 -1 -1 1400 1;
#N canvas 74 243 283 221 tube 0;
#X obj 0 98 cos~;
#X obj 0 76 +~;
#X obj 0 46 *~;
#X obj 100 0 inlet~ drive;
#X obj 0 164 outlet~;
#X obj 0 0 inlet~ amount;
#X obj 17 20 osc~ 178;
#X obj 0 120 hip~ 180;
#X obj 0 142 hip~ 180;
#X floatatom 84 65 5 0 0 0 - - -, f 5;
#X obj 132 52 r \$1-note;
#X obj 132 76 + 12;
#X obj 133 98 mtof;
#X msg 132 124 \$1 3400;
#X obj 132 163 line;
#X connect 0 0 7 0;
#X connect 1 0 0 0;
#X connect 2 0 1 0;
#X connect 3 0 1 1;
#X connect 5 0 2 0;
#X connect 6 0 2 1;
#X connect 7 0 8 0;
#X connect 8 0 4 0;
#X connect 9 0 6 0;
#X connect 9 0 7 1;
#X connect 9 0 8 1;
#X connect 10 0 11 0;
#X connect 11 0 12 0;
#X connect 12 0 13 0;
#X connect 13 0 14 0;
#X connect 14 0 9 0;
#X restore 301 406 pd tube;
#X obj 301 452 *~;
#X obj 317 428 r \$0-tube-res;
#X obj 280 196 r \$1-note;
#X obj 248 175 ftom;
#X obj 247 243 gamme 90 40 1 0 1 0 1 1 0 1 0 1 0 1;
#X obj 248 308 mtof;
#X floatatom 210 366 5 0 0 0 - - -, f 5;
#X obj 106 251 lop~ 1;
#X obj 108 220 noise~;
#X obj 104 278 lop~ 1;
#X obj 106 336 +~ 1;
#X obj 117 364 *~;
#X obj 101 311 *~ 1;
#X obj 385 252 s \$1-GeneEffort;
#X obj 248 150 * 800;
#X obj 248 335 / 800;
#X obj 183 335 *~ -800;
#X obj 249 127 t f f;
#X obj 280 37 t b f;
#X obj 372 148 pow 2;
#X obj 372 196 + 1;
#X obj 250 38 * 1;
#X obj 372 174 * -0.2;
#X obj 372 105 r \$1-CompEffort;
#X obj 385 225 +;
#X obj 428 173 * 0.4;
#X obj 372 126 t f f;
#X obj 64 458 phasor~;
#X obj 74 423 *~ 0.5;
#X msg 127 405 0;
#X obj 59 489 lop~ 500;
#X obj 63 521 *~ 0.1;
#X obj 490 429 chplz;
#X obj 519 308 noise~;
#X obj 519 369 max~ 0;
#X obj 519 349 lop~ 0.1;
#X obj 519 328 lop~ 0.1;
#X obj 519 390 *~ 700;
#X obj 519 410 +~ 4;
#X obj 435 348 phasor~ -100;
#X obj 402 549 *~;
#X obj 466 536 hsl 128 15 0 1 0 1 empty empty empty -2 -8 0 10 -262144
-1 -1 8900 1;
#X obj 461 557 pow 3;
#X obj 401 514 *~;
#X obj 491 455 randgate 6 8e-05;
#X obj 435 373 *~ 0.3;
#X obj 477 485 +~;
#N canvas 447 104 696 671 pales-ventilo 0;
#X floatatom 96 125 5 0 0 0 - - -, f 5;
#X obj 152 46 r \$1-note;
#X obj 152 66 mtof;
#X obj 152 92 / 20;
#X obj 151 185 phasor~;
#X obj 146 575 outlet~;
#N canvas 1 143 354 265 band2 0;
#X obj 88 189 para_bp2~ 450 10 5 50;
#X obj 114 117 nbx 5 14 -1e+37 1e+37 0 1 empty empty empty 0 -8 0 10
-262130 -1 -1 84.112 256;
#X obj 40 114 mtof;
#X obj 192 118 nbx 4 14 -1e+37 1e+37 0 1 empty empty Q -8 7 0 10 -204786
-1 -1 400.2 256;
#X obj 192 135 nbx 4 14 0 200 0 1 empty empty dB -12 7 0 10 -261234
-1 -1 32 256;
#X obj 114 134 nbx 5 14 -1e+37 1e+37 0 0 empty empty Hz -12 7 0 10
-262130 -1 -1 1053.29 256;
#X obj 36 52 ftom;
#X msg 40 135 set \$1;
#X msg 36 71 set \$1;
#X obj 281 167 switch~;
#X obj 281 128 > 0;
#X obj 281 147 change;
#X obj 89 43 inlet~;
#X obj 181 47 inlet;
#X obj 225 47 inlet;
#X obj 270 47 inlet;
#X obj 88 227 outlet~;
#X connect 0 0 16 0;
#X connect 1 0 2 0;
#X connect 2 0 7 0;
#X connect 2 0 0 1;
#X connect 3 0 0 2;
#X connect 4 0 0 3;
#X connect 4 0 10 0;
#X connect 5 0 6 0;
#X connect 6 0 8 0;
#X connect 7 0 5 0;
#X connect 8 0 1 0;
#X connect 10 0 11 0;
#X connect 11 0 9 0;
#X connect 12 0 0 0;
#X connect 13 0 1 0;
#X connect 14 0 3 0;
#X connect 15 0 4 0;
#X coords 0 -1 1 1 140 50 1 100 100;
#X restore 200 449 pd band2;
#N canvas 1 143 354 265 band2 0;
#X obj 88 189 para_bp2~ 450 10 5 50;
#X obj 114 117 nbx 5 14 -1e+37 1e+37 0 1 empty empty empty 0 -8 0 10
-262130 -1 -1 69.7216 256;
#X obj 40 114 mtof;
#X obj 192 118 nbx 4 14 -1e+37 1e+37 0 1 empty empty Q -8 7 0 10 -204786
-1 -1 77.2 256;
#X obj 192 135 nbx 4 14 0 200 0 1 empty empty dB -12 7 0 10 -261234
-1 -1 38 256;
#X obj 114 134 nbx 5 14 -1e+37 1e+37 0 0 empty empty Hz -12 7 0 10
-262130 -1 -1 458.727 256;
#X obj 36 52 ftom;
#X msg 40 135 set \$1;
#X msg 36 71 set \$1;
#X obj 281 167 switch~;
#X obj 281 128 > 0;
#X obj 281 147 change;
#X obj 89 43 inlet~;
#X obj 181 47 inlet;
#X obj 225 47 inlet;
#X obj 270 47 inlet;
#X obj 88 227 outlet~;
#X connect 0 0 16 0;
#X connect 1 0 2 0;
#X connect 2 0 7 0;
#X connect 2 0 0 1;
#X connect 3 0 0 2;
#X connect 4 0 0 3;
#X connect 4 0 10 0;
#X connect 5 0 6 0;
#X connect 6 0 8 0;
#X connect 7 0 5 0;
#X connect 8 0 1 0;
#X connect 10 0 11 0;
#X connect 11 0 9 0;
#X connect 12 0 0 0;
#X connect 13 0 1 0;
#X connect 14 0 3 0;
#X connect 15 0 4 0;
#X coords 0 -1 1 1 140 50 1 100 100;
#X restore 46 454 pd band2;
#N canvas 1 143 354 265 band2 0;
#X obj 88 189 para_bp2~ 450 10 5 50;
#X obj 114 117 nbx 5 14 -1e+37 1e+37 0 1 empty empty empty 0 -8 0 10
-262130 -1 -1 66.112 256;
#X obj 40 114 mtof;
#X obj 192 118 nbx 4 14 -1e+37 1e+37 0 1 empty empty Q -8 7 0 10 -204786
-1 -1 182.2 256;
#X obj 192 135 nbx 4 14 0 200 0 1 empty empty dB -12 7 0 10 -261234
-1 -1 35 256;
#X obj 114 134 nbx 5 14 -1e+37 1e+37 0 0 empty empty Hz -12 7 0 10
-262130 -1 -1 372.396 256;
#X obj 36 52 ftom;
#X msg 40 135 set \$1;
#X msg 36 71 set \$1;
#X obj 281 167 switch~;
#X obj 281 128 > 0;
#X obj 281 147 change;
#X obj 89 43 inlet~;
#X obj 181 47 inlet;
#X obj 225 47 inlet;
#X obj 270 47 inlet;
#X obj 88 227 outlet~;
#X connect 0 0 16 0;
#X connect 1 0 2 0;
#X connect 2 0 7 0;
#X connect 2 0 0 1;
#X connect 3 0 0 2;
#X connect 4 0 0 3;
#X connect 4 0 10 0;
#X connect 5 0 6 0;
#X connect 6 0 8 0;
#X connect 7 0 5 0;
#X connect 8 0 1 0;
#X connect 10 0 11 0;
#X connect 11 0 9 0;
#X connect 12 0 0 0;
#X connect 13 0 1 0;
#X connect 14 0 3 0;
#X connect 15 0 4 0;
#X coords 0 -1 1 1 140 50 1 100 100;
#X restore 363 453 pd band2;
#X obj 150 293 *~;
#X obj 263 84 noise~;
#X obj 259 213 osc~ 800;
#X obj 263 109 lop~ 2000;
#X obj 304 326 hp4_butt~ 100;
#X obj 365 535 *~;
#X obj 354 561 *~ 2;
#X obj 392 558 hsl 128 15 0.3 30 1 1 empty empty empty -2 -8 0 10 -262144
-1 -1 2200 1;
#X obj 321 236 osc~ 533;
#X obj 295 269 *~;
#X obj 296 295 *~ 2;
#X obj 262 142 lop~ 3;
#X obj 262 188 +~ 800;
#X obj 152 162 +~;
#X obj 262 165 *~ 20;
#X obj 200 102 *~ 20;
#X obj 200 79 lop~ 10;
#X obj 330 295 hsl 128 15 0.3 30 1 1 empty empty empty -2 -8 0 10 -262144
-1 -1 7600 1;
#X obj 151 206 hp4_butt~ 30;
#X obj 150 234 lop~ 300;
#X obj 527 56 inlet;
#X obj 547 166 metro;
#X obj 545 123 != 0;
#X msg 588 124 1000 \$1;
#X obj 589 146 /;
#X obj 519 98 t f f;
#X obj 544 144 change;
#X obj 499 136 sel 0;
#X obj 548 190 i;
#X obj 578 190 == 0;
#X msg 500 161 0;
#X obj 442 266 tgl 15 0 empty empty empty 17 7 0 10 -262144 -1 -1 0
1;
#X floatatom 626 167 5 0 0 0 - - -, f 5;
#X obj 98 265 *~;
#X obj 123 265 lop~ 40;
#X obj 355 107 /;
#X obj 355 85 t b f;
#X floatatom 316 172 5 0 0 0 - - -, f 5;
#X obj 200 137 t b f;
#X msg 264 39 2;
#X obj 500 290 moses 8;
#X obj 527 313 moses 4;
#X obj 547 338 moses 4;
#X obj 362 128 log;
#X obj 392 133 log 2;
#X obj 394 90 loadbang;
#X obj 365 152 /;
#X floatatom 439 124 5 0 0 0 - - -, f 5;
#X msg 393 112 2;
#X obj 363 190 i;
#X obj 398 228 pow;
#X obj 396 176 t b f;
#X obj 396 197 2;
#X floatatom 406 250 5 0 0 0 - - -, f 5;
#X obj 148 130 / 1;
#X obj 587 83 pow 1.5;
#X obj 364 171 - 1;
#X obj 588 102 maxlib/scale 0 1 1 20;
#X connect 1 0 2 0;
#X connect 2 0 3 0;
#X connect 3 0 0 0;
#X connect 3 0 44 0;
#X connect 3 0 63 0;
#X connect 4 0 27 0;
#X connect 6 0 5 0;
#X connect 6 0 14 0;
#X connect 7 0 5 0;
#X connect 8 0 5 0;
#X connect 8 0 14 1;
#X connect 9 0 7 0;
#X connect 9 0 6 0;
#X connect 9 0 8 0;
#X connect 10 0 12 0;
#X connect 11 0 9 1;
#X connect 11 0 18 0;
#X connect 12 0 9 1;
#X connect 12 0 20 0;
#X connect 12 0 25 0;
#X connect 14 0 15 0;
#X connect 15 0 5 0;
#X connect 16 0 15 1;
#X connect 17 0 9 1;
#X connect 17 0 18 1;
#X connect 18 0 19 0;
#X connect 19 0 9 1;
#X connect 20 0 23 0;
#X connect 21 0 11 0;
#X connect 22 0 4 0;
#X connect 23 0 21 0;
#X connect 24 0 22 1;
#X connect 25 0 24 0;
#X connect 26 0 19 1;
#X connect 27 0 28 0;
#X connect 28 0 42 0;
#X connect 29 0 34 0;
#X connect 30 0 37 0;
#X connect 31 0 35 0;
#X connect 32 0 33 0;
#X connect 33 0 30 1;
#X connect 34 0 36 0;
#X connect 34 1 31 0;
#X connect 34 1 64 0;
#X connect 35 0 30 0;
#X connect 36 0 39 0;
#X connect 37 0 38 0;
#X connect 37 0 40 0;
#X connect 38 0 37 1;
#X connect 39 0 37 0;
#X connect 40 0 43 0;
#X connect 42 0 9 0;
#X connect 43 0 42 1;
#X connect 44 0 46 0;
#X connect 44 0 52 0;
#X connect 45 0 44 0;
#X connect 45 1 44 1;
#X connect 47 0 63 0;
#X connect 47 1 63 1;
#X connect 48 0 47 0;
#X connect 49 1 50 0;
#X connect 50 1 51 0;
#X connect 52 0 55 0;
#X connect 53 0 55 1;
#X connect 54 0 57 0;
#X connect 55 0 56 0;
#X connect 55 0 65 0;
#X connect 57 0 53 0;
#X connect 58 0 60 0;
#X connect 59 0 62 0;
#X connect 59 0 47 0;
#X connect 60 0 61 0;
#X connect 60 1 59 1;
#X connect 61 0 59 0;
#X connect 63 0 22 0;
#X connect 64 0 66 0;
#X connect 65 0 58 0;
#X connect 66 0 32 0;
#X connect 66 0 41 0;
#X connect 66 0 45 0;
#X restore 1 331 pd pales-ventilo;
#X obj 29 580 *~;
#X obj 65 561 hsl 128 15 0 1 0 1 empty empty empty -2 -8 0 10 -262144
-1 -1 5800 1;
#X obj 60 582 pow 3;
#X obj 98 128 hradio 15 1 0 3 empty empty empty 0 -8 0 10 -262144 -1
-1 0;
#X obj 97 148 s \$0-demarreur;
#X obj 249 69 *;
#X obj 279 69 t b f;
#X obj 427 133 r \$0-demarreur;
#X obj 493 158 != 0;
#X obj 490 179 change;
#X obj 491 222 line3;
#X obj 491 251 != 0;
#X obj 493 289 s \$0-on;
#X obj 494 270 change;
#X msg 493 201 \$1 1000;
#N canvas 1 102 450 300 demarreur 0;
#X obj 195 278 outlet~;
#X obj 199 247 *~;
#X obj 234 224 hsl 128 15 0 2 0 1 empty empty empty -2 -8 0 10 -262144
-1 -1 7900 1;
#X obj 229 245 pow 3;
#X obj 180 61 r \$0-demarreur;
#X obj 179 84 sel 0 1;
#X obj 242 88 bng 15 250 50 0 empty empty empty 17 7 0 10 -262144 -1
-1;
#X obj 76 99 bng 15 250 50 0 empty empty empty 17 7 0 10 -262144 -1
-1;
#X obj 264 92 bng 15 250 50 0 empty empty empty 17 7 0 10 -262144 -1
-1;
#X obj 259 186 *~ 5;
#X obj 247 159 bp~ 800 2;
#X obj 203 134 wavplayertab agraf-02 0.7;
#X obj 42 205 hip~ 2000;
#X obj 26 145 wavplayertab bing-02 0.4;
#X obj 54 232 *~ 7;
#X connect 1 0 0 0;
#X connect 2 0 3 0;
#X connect 3 0 1 1;
#X connect 4 0 5 0;
#X connect 5 0 13 0;
#X connect 5 1 11 0;
#X connect 5 1 13 0;
#X connect 6 0 11 0;
#X connect 6 0 13 0;
#X connect 7 0 13 0;
#X connect 8 0 11 0;
#X connect 9 0 1 0;
#X connect 10 0 9 0;
#X connect 11 0 1 0;
#X connect 11 0 10 0;
#X connect 12 0 14 0;
#X connect 13 0 1 0;
#X connect 13 0 12 0;
#X connect 14 0 1 0;
#X restore 273 560 pd demarreur;
#X obj 607 306 sel 1;
#X obj 628 79 r \$0-demarreur;
#X obj 598 103 demux 0 1 2;
#X obj 571 216 s \$0-demarreur;
#X msg 571 194 1;
#X obj 688 222 del;
#X msg 651 191 stop;
#X obj 571 164 sel 1;
#X obj 634 145 sel 0;
#X msg 688 241 2;
#X msg 604 195 0;
#X obj 609 351 s \$0-demarreur;
#X msg 609 329 0;
#X obj 598 37 r \$1-Gene-start;
#X obj 607 282 r \$1-Gene-stop;
#X obj 688 177 random 500;
#X obj 688 197 + 500;
#X obj 248 381 s \$1-Gene-speed;
#X obj 279 101 t b f;
#X obj 374 -1 r \$1-Diesel-gears-speed;
#X floatatom 442 39 5 0 0 0 - - -, f 5;
#X obj 370 18 * 10;
#X floatatom 328 6 8 0 0 0 - - -, f 8;
#X obj 371 40 pow 2;
#X obj 369 82 clip 0 1;
#X floatatom 207 131 5 0 0 0 - - -, f 5;
#X obj 321 108 change;
#X obj 370 60 - 0.2;
#X obj 318 144 sel 0;
#X msg 369 283 0;
#X obj 584 15 tgl 15 0 empty empty empty 17 7 0 10 -262144 -1 -1 0
1;
#X obj 673 13 tgl 15 0 empty empty empty 17 7 0 10 -262144 -1 -1 0
1;
#X obj 99 36 pow 3;
#X obj 99 57 s \$0-Master;
#X obj 100 17 r \$1-GeneMaster-snd;
#X obj 11 171 r \$1-Diesel-gears-speed;
#X floatatom 15 209 5 0 0 0 - - -, f 5;
#X obj 20 373 *~ 24;
#X obj -43 443 blosc~ pulse;
#X obj -78 477 blosc~ pulse2;
#X obj -49 418 *~ 32;
#X obj -44 281 lop~ 1;
#X obj -43 257 noise~;
#X obj -76 179 lop~ 1;
#X obj -78 154 noise~;
#X obj -54 637 *~;
#X obj -20 619 hsl 128 15 0 1 0 1 empty empty empty -2 -8 0 10 -262144
-1 -1 4600 1;
#X obj -23 639 pow 3;
#X obj -41 365 +~ 1;
#X obj -41 388 *~;
#X obj -78 418 *~;
#X obj -78 398 +~ 1;
#X obj -74 234 *~ 1;
#X obj -43 346 *~ 1;
#X obj -75 206 lop~ 0.1;
#X obj -43 307 lop~ 0.2;
#X obj 97 83 r \$1-ALLSTOP;
#X msg 96 104 0;
#N canvas 1 92 475 426 Speed->Amperes 0;
#X obj -68 -91 metro 50;
#X obj -68 -111 tgl 15 0 empty empty empty 17 7 0 10 -262144 -1 -1
1 1;
#X obj -68 -134 init 1;
#X obj -22 55 +;
#X obj -68 -42 -;
#X obj -68 -16 moses 0;
#X obj -68 -66 f;
#X obj -70 8 * 0.001;
#X obj -143 27 sel 0;
#X msg -145 51 0.001;
#X obj -18 7 * 0.02;
#X msg -104 49 0.01;
#X obj 4 -95 r \$1-Gene-speed;
#X obj 42 -46 hsl 128 15 0 1 0 1 empty empty empty -2 -8 0 10 -262144
-1 -1 0 1;
#X floatatom 75 126 5 0 0 0 - - -, f 5;
#X obj -22 120 s \$1-Amperes;
#X msg 15 69 0;
#X obj 16 90 f;
#X obj 16 47 moses 0.0001;
#X obj -39 89 change;
#X connect 0 0 6 0;
#X connect 1 0 0 0;
#X connect 2 0 1 0;
#X connect 3 0 4 1;
#X connect 3 0 18 0;
#X connect 3 0 19 0;
#X connect 4 0 5 0;
#X connect 5 0 7 0;
#X connect 5 1 10 0;
#X connect 6 0 4 0;
#X connect 7 0 3 0;
#X connect 8 0 9 0;
#X connect 8 1 11 0;
#X connect 10 0 3 0;
#X connect 12 0 6 1;
#X connect 13 0 6 1;
#X connect 16 0 17 0;
#X connect 17 0 3 1;
#X connect 18 0 16 0;
#X connect 18 1 17 0;
#X connect 19 0 15 0;
#X restore 323 338 pd Speed->Amperes;
#X obj 248 359 line;
#X obj 183 651 lout \$0 \$1 3;
#X msg 330 35 1;
#X obj 249 101 * 1;
#X msg 180 285 \$1 300;
#X obj 485 91 t b b;
#X msg 514 113 set -1;
#X obj 582 61 t b f;
#X obj 305 177 bng 15 250 50 0 empty empty empty 17 7 0 10 -262144
-1 -1;
#X obj 537 79 bng 15 250 50 0 empty empty empty 17 7 0 10 -262144 -1
-1;
#X obj 550 236 bng 15 250 50 0 empty empty empty 17 7 0 10 -262144
-1 -1;
#X floatatom 691 124 5 0 0 0 - - -, f 5;
#X obj 484 69 del 2;
#X obj 485 49 sel 0;
#X obj 485 26 r \$1-Gene-start;
#X obj 82 650 lout \$0 \$1 4;
#X obj 172 190 r Gammes;
#X obj 172 212 route 0;
#X obj 172 234 unpack f f;
#X msg 185 258 setb \$1;
#X obj 247 196 -;
#X obj 248 287 +;
#X msg 247 219 round \$1 10;
#X obj -37 23 declare -lib creb;
#X connect 0 0 38 0;
#X connect 1 0 4 0;
#X connect 1 0 5 0;
#X connect 1 0 16 0;
#X connect 2 0 141 0;
#X connect 3 0 2 0;
#X connect 3 0 60 0;
#X connect 4 0 6 0;
#X connect 5 0 6 1;
#X connect 6 0 3 0;
#X connect 7 0 33 0;
#X connect 12 0 3 1;
#X connect 13 0 12 0;
#X connect 14 0 2 1;
#X connect 16 0 17 0;
#X connect 17 0 3 0;
#X connect 18 0 17 1;
#X connect 20 0 160 0;
#X connect 21 0 161 0;
#X connect 22 0 32 0;
#X connect 24 0 26 0;
#X connect 25 0 24 0;
#X connect 26 0 29 0;
#X connect 27 0 28 0;
#X connect 27 0 45 0;
#X connect 28 0 1 0;
#X connect 28 0 45 0;
#X connect 28 0 118 0;
#X connect 28 0 121 0;
#X connect 29 0 27 0;
#X connect 31 0 20 0;
#X connect 32 0 144 0;
#X connect 33 0 13 0;
#X connect 33 0 28 1;
#X connect 34 0 31 0;
#X connect 34 0 64 0;
#X connect 34 1 41 0;
#X connect 35 0 38 0;
#X connect 35 1 38 1;
#X connect 36 0 39 0;
#X connect 37 0 35 0;
#X connect 38 0 70 0;
#X connect 39 0 37 0;
#X connect 40 0 43 0;
#X connect 41 0 30 0;
#X connect 42 0 41 1;
#X connect 43 0 36 0;
#X connect 43 1 42 0;
#X connect 44 0 47 0;
#X connect 45 0 44 0;
#X connect 46 0 44 1;
#X connect 46 0 1 1;
#X connect 47 0 48 0;
#X connect 48 0 4 0;
#X connect 49 0 61 0;
#X connect 49 0 63 0;
#X connect 50 0 53 0;
#X connect 51 0 54 0;
#X connect 52 0 51 0;
#X connect 53 0 52 0;
#X connect 54 0 55 0;
#X connect 55 0 49 1;
#X connect 56 0 49 0;
#X connect 56 0 62 0;
#X connect 57 0 141 0;
#X connect 58 0 59 0;
#X connect 59 0 57 1;
#X connect 60 0 57 0;
#X connect 61 0 63 1;
#X connect 62 0 60 1;
#X connect 63 0 60 1;
#X connect 64 0 65 0;
#X connect 65 0 141 0;
#X connect 66 0 67 0;
#X connect 67 0 65 1;
#X connect 68 0 69 0;
#X connect 70 0 143 0;
#X connect 71 0 70 0;
#X connect 71 1 70 1;
#X connect 72 0 73 0;
#X connect 73 0 74 0;
#X connect 74 0 79 0;
#X connect 75 0 71 0;
#X connect 75 0 76 0;
#X connect 76 0 78 0;
#X connect 78 0 77 0;
#X connect 79 0 75 0;
#X connect 80 0 141 0;
#X connect 80 0 155 0;
#X connect 81 0 93 0;
#X connect 82 0 83 1;
#X connect 82 0 151 0;
#X connect 83 0 88 0;
#X connect 83 1 89 0;
#X connect 85 0 84 0;
#X connect 86 0 90 0;
#X connect 87 0 86 0;
#X connect 88 0 85 0;
#X connect 88 0 96 0;
#X connect 88 0 150 0;
#X connect 89 0 87 0;
#X connect 89 0 91 0;
#X connect 90 0 84 0;
#X connect 91 0 84 0;
#X connect 93 0 92 0;
#X connect 94 0 147 0;
#X connect 95 0 81 0;
#X connect 96 0 97 0;
#X connect 97 0 86 0;
#X connect 99 0 143 0;
#X connect 99 1 143 1;
#X connect 100 0 102 0;
#X connect 100 0 103 0;
#X connect 102 0 104 0;
#X connect 104 0 108 0;
#X connect 105 0 101 0;
#X connect 105 0 107 0;
#X connect 107 0 99 0;
#X connect 107 0 109 0;
#X connect 108 0 105 0;
#X connect 109 0 110 0;
#X connect 109 0 148 0;
#X connect 110 0 73 0;
#X connect 110 0 83 1;
#X connect 111 0 83 0;
#X connect 113 0 114 0;
#X connect 115 0 113 0;
#X connect 116 0 117 0;
#X connect 118 0 130 1;
#X connect 119 0 126 0;
#X connect 120 0 126 0;
#X connect 121 0 131 1;
#X connect 122 0 136 0;
#X connect 123 0 122 0;
#X connect 124 0 135 0;
#X connect 125 0 124 0;
#X connect 126 0 141 0;
#X connect 127 0 128 0;
#X connect 128 0 126 1;
#X connect 129 0 130 0;
#X connect 130 0 119 0;
#X connect 131 0 120 0;
#X connect 132 0 131 0;
#X connect 133 0 132 0;
#X connect 134 0 129 0;
#X connect 135 0 133 0;
#X connect 136 0 134 0;
#X connect 137 0 138 0;
#X connect 138 0 68 0;
#X connect 140 0 98 0;
#X connect 142 0 99 0;
#X connect 143 0 34 0;
#X connect 143 0 106 0;
#X connect 144 0 7 0;
#X connect 144 0 140 0;
#X connect 145 0 108 0;
#X connect 145 1 146 0;
#X connect 146 0 107 0;
#X connect 147 1 83 0;
#X connect 149 0 145 0;
#X connect 152 0 145 0;
#X connect 153 0 152 0;
#X connect 154 0 153 0;
#X connect 156 0 157 0;
#X connect 157 0 158 0;
#X connect 158 0 159 0;
#X connect 159 0 21 0;
#X connect 160 0 162 0;
#X connect 161 0 22 0;
#X connect 162 0 21 0;
