#N canvas 80 143 253 375 10;
#X obj 93 67 noise~;
#X obj 87 20 phasor~ 100.2;
#X obj 79 0 phasor~ 99.8;
#X obj 78 211 *~;
#X obj 93 134 *~;
#X obj 78 45 -~ 1;
#X obj -1 238 comb1 80 0.2;
#X obj -1 212 +~ 20;
#X obj 78 156 clip~ -0.5 0.5;
#X obj -1 265 outlet~;
#X obj 121 224 ac;
#X obj 93 87 lop~ 1;
#X obj 93 108 lop~ 1;
#X obj 94 178 *~ 1000;
#X obj 168 180 sig~ 3.5e-05;
#X connect 0 0 11 0;
#X connect 1 0 5 0;
#X connect 2 0 5 0;
#X connect 3 0 6 1;
#X connect 4 0 13 0;
#X connect 5 0 8 0;
#X connect 6 0 9 0;
#X connect 7 0 6 0;
#X connect 8 0 3 0;
#X connect 11 0 12 0;
#X connect 12 0 4 0;
#X connect 12 0 4 1;
#X connect 13 0 3 1;
#X connect 13 0 7 0;
#X connect 14 0 13 0;
