#N canvas 1 81 686 520 10;
#X obj 169 89 ssaw~ 370;
#N canvas 1 243 354 265 band2 0;
#X obj 114 117 nbx 5 14 -1e+37 1e+37 0 1 empty empty empty 0 -8 0 10
-262130 -1 -1 65 256;
#X obj 40 114 mtof;
#X obj 192 118 nbx 4 14 -1e+37 1e+37 0 1 empty empty Q -8 7 0 10 -204786
-1 -1 1.63 256;
#X obj 192 135 nbx 4 14 0 200 0 1 empty empty dB -12 7 0 10 -261234
-1 -1 17 256;
#X obj 114 134 nbx 5 14 -1e+37 1e+37 0 0 empty empty Hz -12 7 0 10
-262130 -1 -1 349.228 256;
#X obj 36 52 ftom;
#X msg 40 135 set \$1;
#X msg 36 71 set \$1;
#X obj 281 167 switch~;
#X obj 281 128 > 0;
#X obj 281 147 change;
#X obj 89 43 inlet~;
#X obj 181 47 inlet;
#X obj 225 47 inlet;
#X obj 270 47 inlet;
#X obj 88 227 outlet~;
#X obj 313 47 inlet;
#X obj 88 189 para_bp2~ 450 10 5 5;
#X obj 124 167 m 1;
#X connect 0 0 1 0;
#X connect 1 0 6 0;
#X connect 1 0 18 0;
#X connect 2 0 17 2;
#X connect 3 0 9 0;
#X connect 3 0 17 3;
#X connect 4 0 5 0;
#X connect 5 0 7 0;
#X connect 6 0 4 0;
#X connect 7 0 0 0;
#X connect 9 0 10 0;
#X connect 10 0 8 0;
#X connect 11 0 17 0;
#X connect 12 0 0 0;
#X connect 13 0 2 0;
#X connect 14 0 3 0;
#X connect 16 0 18 1;
#X connect 17 0 15 0;
#X connect 18 0 17 1;
#X coords 0 -1 1 1 140 50 1 100 100;
#X restore 113 273 pd band2;
#X obj 112 201 *~;
#X obj 113 392 outlet~;
#X obj 276 43 inlet;
#X obj 250 122 line~;
#X obj 595 362 mtof;
#X floatatom 595 383 5 0 0 0 - - -, f 5;
#X msg 587 323 66;
#X msg 625 322 77;
#X obj 113 339 clip~ -1 1;
#X obj 25 46 noise~;
#X obj 27 210 *~;
#X obj 56 184 vline~;
#X obj 56 139 sel 0 1;
#X msg 56 163 0 10;
#X obj 276 64 sel 0 1;
#X obj 320 153 line~;
#X obj 282 270 osc~ 370;
#X obj 282 291 *~ 0.25;
#X obj 374 276 osc~ 370;
#X obj 375 255 *~ 0.5005;
#X obj 374 297 *~ 0.1;
#X obj 113 360 lop~ 2000;
#X obj 283 249 *~ 2.999;
#X obj 374 316 *~;
#X obj 26 109 *~ 0.5;
#X obj 320 175 *~ 15;
#X obj 320 196 +~ 355;
#X msg 320 130 0 2000;
#X obj 483 41 loadbang;
#X obj 483 62 f \$1;
#X obj 544 41 inlet;
#X obj 483 83 mtof;
#X obj 367 175 - 15;
#X obj 585 43 loadbang;
#X obj 646 43 inlet;
#X obj 585 64 f \$2;
#X msg 365 128 0 \, 1 250;
#X msg 295 97 1 150;
#X msg 250 100 0 150;
#X obj 25 67 lop~ 1500;
#X msg 98 162 1 10 \, 0.3 200 12;
#X msg 503 159 \$1 100;
#X obj 503 179 line;
#X connect 0 0 2 0;
#X connect 1 0 10 0;
#X connect 2 0 1 0;
#X connect 4 0 14 0;
#X connect 4 0 16 0;
#X connect 5 0 2 1;
#X connect 5 0 25 1;
#X connect 6 0 7 0;
#X connect 8 0 6 0;
#X connect 9 0 6 0;
#X connect 10 0 23 0;
#X connect 11 0 41 0;
#X connect 12 0 10 0;
#X connect 13 0 12 1;
#X connect 14 0 15 0;
#X connect 14 1 42 0;
#X connect 15 0 13 0;
#X connect 16 0 40 0;
#X connect 16 0 29 0;
#X connect 16 1 39 0;
#X connect 16 1 38 0;
#X connect 17 0 27 0;
#X connect 18 0 19 0;
#X connect 19 0 2 0;
#X connect 20 0 22 0;
#X connect 21 0 20 0;
#X connect 22 0 2 0;
#X connect 22 0 25 0;
#X connect 23 0 3 0;
#X connect 24 0 18 0;
#X connect 25 0 23 0;
#X connect 26 0 12 0;
#X connect 27 0 28 0;
#X connect 28 0 0 0;
#X connect 28 0 21 0;
#X connect 28 0 24 0;
#X connect 29 0 17 0;
#X connect 30 0 31 0;
#X connect 31 0 33 0;
#X connect 32 0 31 0;
#X connect 33 0 43 0;
#X connect 34 0 28 1;
#X connect 35 0 37 0;
#X connect 36 0 37 0;
#X connect 37 0 1 1;
#X connect 38 0 17 0;
#X connect 39 0 5 0;
#X connect 40 0 5 0;
#X connect 41 0 26 0;
#X connect 42 0 13 0;
#X connect 43 0 44 0;
#X connect 44 0 34 0;
