#N canvas 21 114 1288 737 10;
#X declare -lib creb -stdpath moonlib -stdlib iemlib -stdpath iemlib
-lib iemlib1 -lib iemlib2;
#X declare -path absGAMME;
#X obj 254 264 phasor~;
#X obj 269 413 *~;
#X obj 273 370 *~;
#N canvas 1 259 292 361 rotor 0;
#X obj 117 227 *~;
#X obj 117 67 *~;
#X obj 117 135 +~;
#X obj 134 182 *~;
#X obj 133 110 sig~ 0.2;
#X obj 117 0 noise~;
#X obj 117 22 bp~ 4000 1;
#X obj 133 204 *~;
#X obj 134 157 inlet~ drive;
#X obj 117 272 outlet~;
#X obj 133 44 r \$0-brush-level;
#X obj 133 87 r \$0-rotor-level;
#X connect 0 0 9 0;
#X connect 1 0 2 0;
#X connect 2 0 0 0;
#X connect 3 0 7 0;
#X connect 3 0 7 1;
#X connect 4 0 2 1;
#X connect 5 0 6 0;
#X connect 6 0 1 0;
#X connect 7 0 0 1;
#X connect 8 0 3 0;
#X connect 8 0 3 1;
#X connect 10 0 1 1;
#X connect 11 0 4 0;
#X restore 254 301 pd rotor;
#N canvas 523 226 203 345 stator 0;
#X obj -1 96 sig~ 1;
#X obj 31 150 /~;
#X obj 47 123 +~ 1;
#X obj 47 96 *~;
#X obj 47 68 cos~;
#X obj 47 46 wrap~;
#X obj 30 172 -~ 0.5;
#X obj 47 22 *~ 2;
#X obj 48 -2 inlet~ drive;
#X obj 31 249 outlet~;
#X obj 31 222 *~;
#X obj 47 198 r \$0-stator-level;
#X connect 0 0 1 0;
#X connect 1 0 6 0;
#X connect 2 0 1 1;
#X connect 3 0 2 0;
#X connect 4 0 3 0;
#X connect 4 0 3 1;
#X connect 5 0 4 0;
#X connect 6 0 10 0;
#X connect 7 0 5 0;
#X connect 8 0 7 0;
#X connect 10 0 9 0;
#X connect 11 0 10 1;
#X restore 320 301 pd stator;
#X obj 255 335 +~;
#X obj 315 361 min~ 1;
#X obj 316 336 abs~;
#X obj 285 391 r \$0-volume;
#N canvas 74 243 283 221 tube 0;
#X obj 0 98 cos~;
#X obj 0 76 +~;
#X obj 0 46 *~;
#X obj 100 0 inlet~ drive;
#X obj 0 164 outlet~;
#X obj 0 0 inlet~ amount;
#X obj 17 20 osc~ 178;
#X obj 0 120 hip~ 180;
#X obj 0 142 hip~ 180;
#X floatatom 84 65 5 0 0 0 - - -, f 5;
#X obj 132 52 r \$1-note;
#X obj 132 76 + 12;
#X obj 133 98 mtof;
#X msg 132 124 \$1 3400;
#X obj 132 163 line;
#X connect 0 0 7 0;
#X connect 1 0 0 0;
#X connect 2 0 1 0;
#X connect 3 0 1 1;
#X connect 5 0 2 0;
#X connect 6 0 2 1;
#X connect 7 0 8 0;
#X connect 8 0 4 0;
#X connect 9 0 6 0;
#X connect 9 0 7 1;
#X connect 9 0 8 1;
#X connect 10 0 11 0;
#X connect 11 0 12 0;
#X connect 12 0 13 0;
#X connect 13 0 14 0;
#X connect 14 0 9 0;
#X restore 395 298 pd tube;
#X obj 395 344 *~;
#X obj 410 323 r \$0-tube-res;
#X obj 200 143 lop~ 1;
#X obj 202 112 noise~;
#X obj 198 170 lop~ 1;
#X obj 200 228 +~ 1;
#X obj 211 256 *~;
#X obj 158 350 phasor~;
#X obj 168 315 *~ 0.5;
#X obj 153 381 lop~ 500;
#X obj 157 413 *~ 0.1;
#X obj 511 436 chplz;
#X obj 540 315 noise~;
#X obj 540 376 max~ 0;
#X obj 540 356 lop~ 0.1;
#X obj 540 335 lop~ 0.1;
#X obj 540 397 *~ 700;
#X obj 540 417 +~ 4;
#X obj 456 355 phasor~ -100;
#X obj 423 556 *~;
#X obj 487 543 hsl 128 15 0 1 0 1 empty empty empty -2 -8 0 10 -262144
-1 -1 4900 1;
#X obj 482 564 pow 3;
#X obj 422 521 *~;
#X obj 512 462 randgate 6 8e-05;
#X obj 456 380 *~ 0.3;
#X obj 498 492 +~;
#N canvas 417 81 696 671 pales-ventilo 0;
#X floatatom 96 125 5 0 0 0 - - -, f 5;
#X obj 152 46 r \$1-note;
#X obj 152 66 mtof;
#X obj 152 92 / 20;
#X obj 151 185 phasor~;
#X obj 146 575 outlet~;
#N canvas 1 143 354 265 band2 0;
#X obj 88 189 para_bp2~ 450 10 5 50;
#X obj 114 117 nbx 5 14 -1e+37 1e+37 0 1 empty empty empty 0 -8 0 10
-262130 -1 -1 84.112 256;
#X obj 40 114 mtof;
#X obj 192 118 nbx 4 14 -1e+37 1e+37 0 1 empty empty Q -8 7 0 10 -204786
-1 -1 400.2 256;
#X obj 192 135 nbx 4 14 0 200 0 1 empty empty dB -12 7 0 10 -261234
-1 -1 32 256;
#X obj 114 134 nbx 5 14 -1e+37 1e+37 0 0 empty empty Hz -12 7 0 10
-262130 -1 -1 1053.29 256;
#X obj 36 52 ftom;
#X msg 40 135 set \$1;
#X msg 36 71 set \$1;
#X obj 281 167 switch~;
#X obj 281 128 > 0;
#X obj 281 147 change;
#X obj 89 43 inlet~;
#X obj 181 47 inlet;
#X obj 225 47 inlet;
#X obj 270 47 inlet;
#X obj 88 227 outlet~;
#X connect 0 0 16 0;
#X connect 1 0 2 0;
#X connect 2 0 7 0;
#X connect 2 0 0 1;
#X connect 3 0 0 2;
#X connect 4 0 0 3;
#X connect 4 0 10 0;
#X connect 5 0 6 0;
#X connect 6 0 8 0;
#X connect 7 0 5 0;
#X connect 8 0 1 0;
#X connect 10 0 11 0;
#X connect 11 0 9 0;
#X connect 12 0 0 0;
#X connect 13 0 1 0;
#X connect 14 0 3 0;
#X connect 15 0 4 0;
#X coords 0 -1 1 1 140 50 1 100 100;
#X restore 200 449 pd band2;
#N canvas 1 143 354 265 band2 0;
#X obj 88 189 para_bp2~ 450 10 5 50;
#X obj 114 117 nbx 5 14 -1e+37 1e+37 0 1 empty empty empty 0 -8 0 10
-262130 -1 -1 69.7216 256;
#X obj 40 114 mtof;
#X obj 192 118 nbx 4 14 -1e+37 1e+37 0 1 empty empty Q -8 7 0 10 -204786
-1 -1 77.2 256;
#X obj 192 135 nbx 4 14 0 200 0 1 empty empty dB -12 7 0 10 -261234
-1 -1 38 256;
#X obj 114 134 nbx 5 14 -1e+37 1e+37 0 0 empty empty Hz -12 7 0 10
-262130 -1 -1 458.727 256;
#X obj 36 52 ftom;
#X msg 40 135 set \$1;
#X msg 36 71 set \$1;
#X obj 281 167 switch~;
#X obj 281 128 > 0;
#X obj 281 147 change;
#X obj 89 43 inlet~;
#X obj 181 47 inlet;
#X obj 225 47 inlet;
#X obj 270 47 inlet;
#X obj 88 227 outlet~;
#X connect 0 0 16 0;
#X connect 1 0 2 0;
#X connect 2 0 7 0;
#X connect 2 0 0 1;
#X connect 3 0 0 2;
#X connect 4 0 0 3;
#X connect 4 0 10 0;
#X connect 5 0 6 0;
#X connect 6 0 8 0;
#X connect 7 0 5 0;
#X connect 8 0 1 0;
#X connect 10 0 11 0;
#X connect 11 0 9 0;
#X connect 12 0 0 0;
#X connect 13 0 1 0;
#X connect 14 0 3 0;
#X connect 15 0 4 0;
#X coords 0 -1 1 1 140 50 1 100 100;
#X restore 46 454 pd band2;
#N canvas 1 143 354 265 band2 0;
#X obj 88 189 para_bp2~ 450 10 5 50;
#X obj 114 117 nbx 5 14 -1e+37 1e+37 0 1 empty empty empty 0 -8 0 10
-262130 -1 -1 66.112 256;
#X obj 40 114 mtof;
#X obj 192 118 nbx 4 14 -1e+37 1e+37 0 1 empty empty Q -8 7 0 10 -204786
-1 -1 182.2 256;
#X obj 192 135 nbx 4 14 0 200 0 1 empty empty dB -12 7 0 10 -261234
-1 -1 35 256;
#X obj 114 134 nbx 5 14 -1e+37 1e+37 0 0 empty empty Hz -12 7 0 10
-262130 -1 -1 372.396 256;
#X obj 36 52 ftom;
#X msg 40 135 set \$1;
#X msg 36 71 set \$1;
#X obj 281 167 switch~;
#X obj 281 128 > 0;
#X obj 281 147 change;
#X obj 89 43 inlet~;
#X obj 181 47 inlet;
#X obj 225 47 inlet;
#X obj 270 47 inlet;
#X obj 88 227 outlet~;
#X connect 0 0 16 0;
#X connect 1 0 2 0;
#X connect 2 0 7 0;
#X connect 2 0 0 1;
#X connect 3 0 0 2;
#X connect 4 0 0 3;
#X connect 4 0 10 0;
#X connect 5 0 6 0;
#X connect 6 0 8 0;
#X connect 7 0 5 0;
#X connect 8 0 1 0;
#X connect 10 0 11 0;
#X connect 11 0 9 0;
#X connect 12 0 0 0;
#X connect 13 0 1 0;
#X connect 14 0 3 0;
#X connect 15 0 4 0;
#X coords 0 -1 1 1 140 50 1 100 100;
#X restore 363 453 pd band2;
#X obj 150 293 *~;
#X obj 263 84 noise~;
#X obj 259 213 osc~ 800;
#X obj 263 109 lop~ 2000;
#X obj 304 326 hp4_butt~ 100;
#X obj 365 535 *~;
#X obj 354 561 *~ 2;
#X obj 392 558 hsl 128 15 0.3 30 1 1 empty empty empty -2 -8 0 10 -262144
-1 -1 2200 1;
#X obj 321 236 osc~ 533;
#X obj 295 269 *~;
#X obj 296 295 *~ 2;
#X obj 262 142 lop~ 3;
#X obj 262 188 +~ 800;
#X obj 152 162 +~;
#X obj 262 165 *~ 20;
#X obj 200 102 *~ 20;
#X obj 200 79 lop~ 10;
#X obj 330 295 hsl 128 15 0.3 30 1 1 empty empty empty -2 -8 0 10 -262144
-1 -1 7600 1;
#X obj 151 206 hp4_butt~ 30;
#X obj 150 234 lop~ 300;
#X obj 527 56 inlet;
#X obj 547 166 metro;
#X obj 545 123 != 0;
#X msg 588 124 1000 \$1;
#X obj 589 146 /;
#X obj 519 98 t f f;
#X obj 544 144 change;
#X obj 499 136 sel 0;
#X obj 548 190 i;
#X obj 578 190 == 0;
#X msg 500 161 0;
#X obj 442 266 tgl 15 0 empty empty empty 17 7 0 10 -262144 -1 -1 0
1;
#X floatatom 626 167 5 0 0 0 - - -, f 5;
#X obj 98 265 *~;
#X obj 123 265 lop~ 40;
#X obj 355 107 /;
#X obj 355 85 t b f;
#X floatatom 316 172 5 0 0 0 - - -, f 5;
#X obj 200 137 t b f;
#X msg 264 39 2;
#X obj 500 290 moses 8;
#X obj 527 313 moses 4;
#X obj 547 338 moses 4;
#X obj 362 128 log;
#X obj 392 133 log 2;
#X obj 394 90 loadbang;
#X obj 365 152 /;
#X floatatom 439 124 5 0 0 0 - - -, f 5;
#X msg 393 112 2;
#X obj 363 190 i;
#X obj 398 228 pow;
#X obj 396 176 t b f;
#X obj 396 197 2;
#X floatatom 406 250 5 0 0 0 - - -, f 5;
#X obj 148 130 / 1;
#X obj 587 83 pow 1.5;
#X obj 364 171 - 1;
#X obj 588 102 maxlib/scale 0 1 1 20;
#X connect 1 0 2 0;
#X connect 2 0 3 0;
#X connect 3 0 0 0;
#X connect 3 0 44 0;
#X connect 3 0 63 0;
#X connect 4 0 27 0;
#X connect 6 0 5 0;
#X connect 6 0 14 0;
#X connect 7 0 5 0;
#X connect 8 0 5 0;
#X connect 8 0 14 1;
#X connect 9 0 7 0;
#X connect 9 0 6 0;
#X connect 9 0 8 0;
#X connect 10 0 12 0;
#X connect 11 0 9 1;
#X connect 11 0 18 0;
#X connect 12 0 9 1;
#X connect 12 0 20 0;
#X connect 12 0 25 0;
#X connect 14 0 15 0;
#X connect 15 0 5 0;
#X connect 16 0 15 1;
#X connect 17 0 9 1;
#X connect 17 0 18 1;
#X connect 18 0 19 0;
#X connect 19 0 9 1;
#X connect 20 0 23 0;
#X connect 21 0 11 0;
#X connect 22 0 4 0;
#X connect 23 0 21 0;
#X connect 24 0 22 1;
#X connect 25 0 24 0;
#X connect 26 0 19 1;
#X connect 27 0 28 0;
#X connect 28 0 42 0;
#X connect 29 0 34 0;
#X connect 30 0 37 0;
#X connect 31 0 35 0;
#X connect 32 0 33 0;
#X connect 33 0 30 1;
#X connect 34 0 36 0;
#X connect 34 1 31 0;
#X connect 34 1 64 0;
#X connect 35 0 30 0;
#X connect 36 0 39 0;
#X connect 37 0 38 0;
#X connect 37 0 40 0;
#X connect 38 0 37 1;
#X connect 39 0 37 0;
#X connect 40 0 43 0;
#X connect 42 0 9 0;
#X connect 43 0 42 1;
#X connect 44 0 46 0;
#X connect 44 0 52 0;
#X connect 45 0 44 0;
#X connect 45 1 44 1;
#X connect 47 0 63 0;
#X connect 47 1 63 1;
#X connect 48 0 47 0;
#X connect 49 1 50 0;
#X connect 50 1 51 0;
#X connect 52 0 55 0;
#X connect 53 0 55 1;
#X connect 54 0 57 0;
#X connect 55 0 56 0;
#X connect 55 0 65 0;
#X connect 57 0 53 0;
#X connect 58 0 60 0;
#X connect 59 0 62 0;
#X connect 59 0 47 0;
#X connect 60 0 61 0;
#X connect 60 1 59 1;
#X connect 61 0 59 0;
#X connect 63 0 22 0;
#X connect 64 0 66 0;
#X connect 65 0 58 0;
#X connect 66 0 32 0;
#X connect 66 0 41 0;
#X connect 66 0 45 0;
#X restore 505 57 pd pales-ventilo;
#X obj 505 96 *~;
#X obj 541 77 hsl 128 15 0 1 0 1 empty empty empty -2 -8 0 10 -262144
-1 -1 5800 1;
#X obj 536 98 pow 3;
#X obj 114 265 *~ 24;
#X obj 51 335 blosc~ pulse;
#X obj 16 369 blosc~ pulse2;
#X obj 45 310 *~ 32;
#X obj 50 173 lop~ 1;
#X obj 51 149 noise~;
#X obj 18 71 lop~ 1;
#X obj 16 46 noise~;
#X obj 40 529 *~;
#X obj 74 511 hsl 128 15 0 1 0 1 empty empty empty -2 -8 0 10 -262144
-1 -1 4800 1;
#X obj 71 531 pow 3;
#X obj 53 257 +~ 1;
#X obj 53 280 *~;
#X obj 16 310 *~;
#X obj 16 290 +~ 1;
#X obj 20 126 *~ 1;
#X obj 51 238 *~ 1;
#X obj 19 98 lop~ 0.1;
#X obj 51 199 lop~ 0.2;
#X msg 277 191 \$1 300;
#X obj 277 165 mtof;
#X obj 277 227 line~;
#X floatatom 284 50 5 0 0 0 - - -, f 5;
#X obj 124 52 hsl 64 12 0 1 0 1 \$0-brush-level empty brush-level 5
6 1 8 -262144 -1 -1 2100 1;
#X obj 124 66 hsl 64 12 0 1 0 1 \$0-rotor-level empty rotor-level 5
6 1 8 -262144 -1 -1 3700 1;
#X obj 123 105 hsl 64 12 0 1 0 1 \$0-volume empty volume 10 6 1 8 -262144
-1 -1 3500 1;
#X obj 124 38 hsl 64 12 0 1 0 1 \$0-stator-level empty stator-level
4 6 1 8 -262144 -1 -1 3800 1;
#X obj 124 82 hsl 64 12 0 1 0 1 \$0-tube-res empty tube-res 10 6 1
8 -262144 -1 -1 4200 1;
#X obj 195 203 *~ 0.1;
#X obj 244 613 *~;
#X obj 396 592 hsl 128 15 0 1 0 1 empty empty empty -2 -8 0 10 -262144
-1 -1 10200 1;
#X obj 391 613 pow 3;
#X floatatom 321 115 5 0 0 0 - - -, f 5;
#X obj 370 39 r trainVitesse;
#X obj 370 80 / 120;
#X obj 347 657 line~;
#X msg 347 636 \$1 100;
#X obj 370 101 * 500;
#X obj 62 8 declare -lib creb -stdpath moonlib -stdlib iemlib -stdpath
iemlib -lib iemlib1 -lib iemlib2;
#X obj 235 703 dac~, f 13;
#X obj 605 15 loadbang;
#X msg 605 36 \; pd dsp 1;
#X obj 685 33 del 1;
#X msg 685 54 _loaded;
#X obj 685 75 stdout;
#X obj 746 126 r GAMME;
#X floatatom 746 147 5 0 0 0 - - -, f 5;
#X obj 750 169 r trainVitesse;
#X obj 440 8 declare -path absGAMME;
#X obj 743 54 GAMMEKBV GAMME;
#X obj 370 122 ftom;
#X obj 642 366 phasor~;
#X obj 641 456 *~;
#X obj 659 412 hsl 128 15 0 1 0 1 empty empty empty -2 -8 0 10 -262144
-1 -1 10400 1;
#X obj 656 433 pow 3;
#X obj 642 387 lp2_butt~ 700;
#X obj 716 364 phasor~;
#X obj 774 363 phasor~;
#X obj 773 336 *~ 0.5;
#X obj 730 221 noise~;
#X obj 730 271 lop~ 0.2;
#X obj 731 248 lop~ 0.5;
#X obj 641 339 *~ 0.495;
#X obj 730 313 +~ 0.505;
#X obj 715 337 *~;
#X obj 730 292 *~ 2;
#X obj 530 123 r freinage;
#X obj 530 144 sel 0 1;
#X msg 530 165 0.5 4000;
#X obj 530 186 line;
#X obj 642 185 line;
#X obj 642 122 r accel;
#X obj 642 143 sel 1 0;
#X obj 562 207 t b f;
#X obj 530 207 *;
#X obj 561 231 t b f;
#X obj 530 230 +;
#X msg 642 164 0.3 500;
#X msg 589 165 0.2 300;
#X msg 701 164 0 2000;
#X obj 347 615 * 1;
#X obj 626 96 loadbang;
#X obj 299 503 gears;
#X obj 299 527 *~ 4;
#X obj 396 193 / 500;
#X obj 299 477 * 3;
#X floatatom 750 190 5 0 0 0 - - -, f 5;
#X obj 692 480 r trainMode;
#X obj 692 501 route elec;
#X msg 692 522 1;
#X msg 749 523 0;
#X obj 692 561 f;
#X obj 370 60 *;
#X obj 397 58 t b f;
#X obj 299 142 gammeRound GAMME 2;
#X obj 743 9 auxcommon;
#X obj 91 625 avertisseurs;
#X obj 897 18 tmp;
#X obj 909 150 tgl 15 0 empty empty empty 17 7 0 10 -262144 -1 -1 0
1;
#X obj 909 213 s accel;
#X obj 909 98 route sw;
#X obj 909 77 r pupitreMaitre;
#X obj 937 144 tgl 15 0 empty empty empty 17 7 0 10 -262144 -1 -1 1
1;
#X obj 909 191 *;
#X obj 934 191 t b f;
#X obj 909 125 route 22 16 17;
#X obj 969 145 tgl 15 0 empty empty empty 17 7 0 10 -262144 -1 -1 1
1;
#X obj 937 163 *;
#X obj 962 163 t b f;
#X obj 989 210 s tension;
#X obj 964 245 s marche;
#X obj 905 291 r trainMode;
#X msg 905 333 1;
#X msg 937 334 0;
#X obj 905 354 f;
#X obj 1033 350 r tension;
#X obj 1032 397 &&;
#X obj 1032 372 t b f;
#X obj 927 403 &&;
#X obj 942 379 t b f;
#X obj 943 357 r marche;
#X obj 905 313 route elec;
#X obj 1037 417 tgl 15 0 empty empty empty 17 7 0 10 -262144 -1 -1
1 1;
#X obj 1022 518 -~;
#X obj 1022 539 hip~ 200;
#X obj 1023 477 osc~ 50;
#X obj 1022 560 *~ 0.5;
#X obj 1034 498 clip~ -0.6 0.6;
#X obj 1087 443 phasor~ 100.123;
#X obj 1087 464 *~ 0.2;
#X obj 1037 437 * 0.5;
#X connect 0 0 3 0;
#X connect 0 0 4 0;
#X connect 0 0 9 0;
#X connect 1 0 69 0;
#X connect 2 0 1 0;
#X connect 2 0 32 0;
#X connect 3 0 5 0;
#X connect 4 0 5 1;
#X connect 5 0 2 0;
#X connect 6 0 2 1;
#X connect 7 0 6 0;
#X connect 8 0 1 1;
#X connect 9 0 10 0;
#X connect 10 0 2 0;
#X connect 11 0 10 1;
#X connect 12 0 14 0;
#X connect 13 0 12 0;
#X connect 14 0 68 0;
#X connect 15 0 16 0;
#X connect 15 0 18 0;
#X connect 16 0 0 0;
#X connect 16 0 18 0;
#X connect 16 0 40 0;
#X connect 16 0 43 0;
#X connect 17 0 19 0;
#X connect 18 0 17 0;
#X connect 19 0 20 0;
#X connect 20 0 3 0;
#X connect 21 0 33 0;
#X connect 21 0 35 0;
#X connect 22 0 25 0;
#X connect 23 0 26 0;
#X connect 24 0 23 0;
#X connect 25 0 24 0;
#X connect 26 0 27 0;
#X connect 27 0 21 1;
#X connect 28 0 21 0;
#X connect 28 0 34 0;
#X connect 29 0 69 0;
#X connect 30 0 31 0;
#X connect 31 0 29 1;
#X connect 32 0 29 0;
#X connect 33 0 35 1;
#X connect 34 0 32 1;
#X connect 35 0 32 1;
#X connect 36 0 37 0;
#X connect 38 0 39 0;
#X connect 39 0 37 1;
#X connect 40 0 52 1;
#X connect 41 0 48 0;
#X connect 42 0 48 0;
#X connect 43 0 53 1;
#X connect 44 0 58 0;
#X connect 45 0 44 0;
#X connect 46 0 57 0;
#X connect 47 0 46 0;
#X connect 48 0 69 0;
#X connect 49 0 50 0;
#X connect 50 0 48 1;
#X connect 51 0 52 0;
#X connect 52 0 41 0;
#X connect 53 0 42 0;
#X connect 54 0 53 0;
#X connect 55 0 54 0;
#X connect 56 0 51 0;
#X connect 57 0 55 0;
#X connect 58 0 56 0;
#X connect 59 0 61 0;
#X connect 60 0 59 0;
#X connect 60 0 124 0;
#X connect 61 0 7 0;
#X connect 61 0 16 1;
#X connect 61 0 102 0;
#X connect 62 0 60 0;
#X connect 68 0 15 0;
#X connect 69 0 79 0;
#X connect 70 0 71 0;
#X connect 73 0 132 0;
#X connect 74 0 77 0;
#X connect 74 0 113 0;
#X connect 75 0 69 1;
#X connect 76 0 75 0;
#X connect 77 0 90 0;
#X connect 80 0 81 0;
#X connect 80 0 82 0;
#X connect 82 0 83 0;
#X connect 83 0 84 0;
#X connect 85 0 86 0;
#X connect 90 0 134 0;
#X connect 91 0 95 0;
#X connect 92 0 69 0;
#X connect 93 0 94 0;
#X connect 94 0 92 1;
#X connect 95 0 92 0;
#X connect 96 0 95 0;
#X connect 97 0 95 0;
#X connect 98 0 97 0;
#X connect 99 0 101 0;
#X connect 100 0 105 0;
#X connect 101 0 100 0;
#X connect 102 0 91 0;
#X connect 102 0 104 0;
#X connect 103 0 104 1;
#X connect 104 0 96 0;
#X connect 104 0 98 0;
#X connect 105 0 103 0;
#X connect 106 0 107 0;
#X connect 107 0 108 0;
#X connect 107 1 118 0;
#X connect 108 0 109 0;
#X connect 109 0 114 0;
#X connect 110 0 115 0;
#X connect 111 0 112 0;
#X connect 112 0 117 0;
#X connect 112 1 119 0;
#X connect 113 0 114 0;
#X connect 113 1 114 1;
#X connect 114 0 116 0;
#X connect 115 0 116 0;
#X connect 115 1 116 1;
#X connect 116 0 120 0;
#X connect 117 0 110 0;
#X connect 118 0 109 0;
#X connect 119 0 110 0;
#X connect 120 0 76 0;
#X connect 121 0 118 0;
#X connect 121 0 119 0;
#X connect 122 0 123 0;
#X connect 123 0 79 0;
#X connect 124 0 125 0;
#X connect 125 0 122 0;
#X connect 127 0 128 0;
#X connect 128 0 129 0;
#X connect 128 1 130 0;
#X connect 131 0 133 0;
#X connect 132 0 74 0;
#X connect 133 0 132 0;
#X connect 133 1 132 1;
#X connect 134 0 60 0;
#X connect 136 0 79 0;
#X connect 136 1 79 1;
#X connect 138 0 143 0;
#X connect 140 0 145 0;
#X connect 141 0 140 0;
#X connect 142 0 147 0;
#X connect 143 0 139 0;
#X connect 144 0 143 0;
#X connect 144 1 143 1;
#X connect 145 0 138 0;
#X connect 145 1 142 0;
#X connect 145 2 146 0;
#X connect 146 0 148 0;
#X connect 146 0 149 0;
#X connect 147 0 144 0;
#X connect 147 0 150 0;
#X connect 148 0 147 0;
#X connect 148 1 147 1;
#X connect 151 0 161 0;
#X connect 152 0 154 0;
#X connect 153 0 154 0;
#X connect 154 0 156 0;
#X connect 154 0 158 0;
#X connect 155 0 157 0;
#X connect 156 0 162 0;
#X connect 157 0 156 0;
#X connect 157 1 156 1;
#X connect 158 0 131 0;
#X connect 159 0 158 0;
#X connect 159 1 158 1;
#X connect 160 0 159 0;
#X connect 161 0 152 0;
#X connect 161 1 153 0;
#X connect 162 0 170 0;
#X connect 163 0 164 0;
#X connect 164 0 166 0;
#X connect 165 0 163 0;
#X connect 165 0 167 0;
#X connect 166 0 79 0;
#X connect 167 0 163 1;
#X connect 168 0 169 0;
#X connect 169 0 167 0;
#X connect 169 0 163 0;
#X connect 170 0 166 1;
