#N canvas 406 81 801 668 10;
#X declare -stdpath creb;
#X obj 90 31 r trainClock;
#X obj 90 434 *~ 0.2;
#X floatatom 126 70 5 0 0 0 - - -, f 5;
#X obj 91 533 throw~ motor;
#X obj 91 354 _piston_trig;
#X obj 254 51 declare -stdpath creb;
#X obj 91 327 bng 15 250 50 0 empty empty empty 17 7 0 10 -262144 -1
-1;
#N canvas 474 266 660 526 piston1 0;
#X obj 100 212 *~;
#X obj 127 166 noise~;
#X obj 127 187 lop~ 500;
#N canvas 1 216 354 265 band2 0;
#X obj 114 117 nbx 5 14 -1e+37 1e+37 0 1 empty empty empty 0 -8 0 10
-262130 -1 -1 43.16 256;
#X obj 40 114 mtof;
#X obj 192 118 nbx 4 14 -1e+37 1e+37 0 1 empty empty Q -8 7 0 10 -204786
-1 -1 6.2 256;
#X obj 192 135 nbx 4 14 0 200 0 1 empty empty dB -12 7 0 10 -261234
-1 -1 35 256;
#X obj 114 134 nbx 5 14 -1e+37 1e+37 0 0 empty empty Hz -12 7 0 10
-262130 -1 -1 98.9088 256;
#X obj 36 52 ftom;
#X msg 40 135 set \$1;
#X msg 36 71 set \$1;
#X obj 281 167 switch~;
#X obj 281 128 > 0;
#X obj 281 147 change;
#X obj 89 43 inlet~;
#X obj 181 47 inlet;
#X obj 225 47 inlet;
#X obj 270 47 inlet;
#X obj 88 227 outlet~;
#X obj 313 47 inlet;
#X obj 88 189 para_bp2~ 450 10 5 5;
#X obj 124 167 m 1;
#X connect 0 0 1 0;
#X connect 1 0 6 0;
#X connect 1 0 18 0;
#X connect 2 0 17 2;
#X connect 3 0 9 0;
#X connect 3 0 17 3;
#X connect 4 0 5 0;
#X connect 5 0 7 0;
#X connect 6 0 4 0;
#X connect 7 0 0 0;
#X connect 9 0 10 0;
#X connect 10 0 8 0;
#X connect 11 0 17 0;
#X connect 12 0 0 0;
#X connect 13 0 2 0;
#X connect 14 0 3 0;
#X connect 16 0 18 1;
#X connect 17 0 15 0;
#X connect 18 0 17 1;
#X coords 0 -1 1 1 140 50 1 100 100;
#X restore 100 241 pd band2;
#X obj 100 313 outlet~;
#N canvas 1 216 354 265 band2 0;
#X obj 114 117 nbx 5 14 -1e+37 1e+37 0 1 empty empty empty 0 -8 0 10
-262130 -1 -1 70.0374 256;
#X obj 40 114 mtof;
#X obj 192 118 nbx 4 14 -1e+37 1e+37 0 1 empty empty Q -8 7 0 10 -204786
-1 -1 7.2 256;
#X obj 192 135 nbx 4 14 0 200 0 1 empty empty dB -12 7 0 10 -261234
-1 -1 24 256;
#X obj 114 134 nbx 5 14 -1e+37 1e+37 0 0 empty empty Hz -12 7 0 10
-262130 -1 -1 467.172 256;
#X obj 36 52 ftom;
#X msg 40 135 set \$1;
#X msg 36 71 set \$1;
#X obj 281 167 switch~;
#X obj 281 128 > 0;
#X obj 281 147 change;
#X obj 89 43 inlet~;
#X obj 181 47 inlet;
#X obj 225 47 inlet;
#X obj 270 47 inlet;
#X obj 88 227 outlet~;
#X obj 313 47 inlet;
#X obj 88 189 para_bp2~ 450 10 5 5;
#X obj 124 167 m 1;
#X connect 0 0 1 0;
#X connect 1 0 6 0;
#X connect 1 0 18 0;
#X connect 2 0 17 2;
#X connect 3 0 9 0;
#X connect 3 0 17 3;
#X connect 4 0 5 0;
#X connect 5 0 7 0;
#X connect 6 0 4 0;
#X connect 7 0 0 0;
#X connect 9 0 10 0;
#X connect 10 0 8 0;
#X connect 11 0 17 0;
#X connect 12 0 0 0;
#X connect 13 0 2 0;
#X connect 14 0 3 0;
#X connect 16 0 18 1;
#X connect 17 0 15 0;
#X connect 18 0 17 1;
#X coords 0 -1 1 1 140 50 1 100 100;
#X restore 247 242 pd band2;
#N canvas 1 216 354 265 band2 0;
#X obj 114 117 nbx 5 14 -1e+37 1e+37 0 1 empty empty empty 0 -8 0 10
-262130 -1 -1 90.327 256;
#X obj 40 114 mtof;
#X obj 192 118 nbx 4 14 -1e+37 1e+37 0 1 empty empty Q -8 7 0 10 -204786
-1 -1 1.41 256;
#X obj 192 135 nbx 4 14 0 200 0 1 empty empty dB -12 7 0 10 -261234
-1 -1 29 256;
#X obj 114 134 nbx 5 14 -1e+37 1e+37 0 0 empty empty Hz -12 7 0 10
-262130 -1 -1 1508.2 256;
#X obj 36 52 ftom;
#X msg 40 135 set \$1;
#X msg 36 71 set \$1;
#X obj 281 167 switch~;
#X obj 281 128 > 0;
#X obj 281 147 change;
#X obj 89 43 inlet~;
#X obj 181 47 inlet;
#X obj 225 47 inlet;
#X obj 270 47 inlet;
#X obj 88 227 outlet~;
#X obj 313 47 inlet;
#X obj 88 189 para_bp2~ 450 10 5 5;
#X obj 124 167 m 1;
#X connect 0 0 1 0;
#X connect 1 0 6 0;
#X connect 1 0 18 0;
#X connect 2 0 17 2;
#X connect 3 0 9 0;
#X connect 3 0 17 3;
#X connect 4 0 5 0;
#X connect 5 0 7 0;
#X connect 6 0 4 0;
#X connect 7 0 0 0;
#X connect 9 0 10 0;
#X connect 10 0 8 0;
#X connect 11 0 17 0;
#X connect 12 0 0 0;
#X connect 13 0 2 0;
#X connect 14 0 3 0;
#X connect 16 0 18 1;
#X connect 17 0 15 0;
#X connect 18 0 17 1;
#X coords 0 -1 1 1 140 50 1 100 100;
#X restore 393 242 pd band2;
#X msg 397 92 66;
#X obj 397 113 mtof;
#X floatatom 397 134 5 0 0 0 - - -, f 5;
#X msg 427 89 77;
#X obj 100 117 inlet~;
#X connect 0 0 3 0;
#X connect 0 0 5 0;
#X connect 0 0 6 0;
#X connect 1 0 2 0;
#X connect 2 0 0 1;
#X connect 3 0 4 0;
#X connect 5 0 4 0;
#X connect 6 0 4 0;
#X connect 7 0 8 0;
#X connect 8 0 9 0;
#X connect 10 0 8 0;
#X connect 11 0 0 0;
#X restore 90 393 pd piston1;
#X obj 72 253 sel 0 1 2 3;
#X obj 72 279 b;
#X obj 100 279 b;
#X obj 184 327 bng 15 250 50 0 empty empty empty 17 7 0 10 -262144
-1 -1;
#N canvas 1 283 660 526 piston1 0;
#X obj 100 212 *~;
#X obj 131 162 noise~;
#N canvas 1 216 354 265 band2 0;
#X obj 114 117 nbx 5 14 -1e+37 1e+37 0 1 empty empty empty 0 -8 0 10
-262130 -1 -1 48 256;
#X obj 40 114 mtof;
#X obj 192 118 nbx 4 14 -1e+37 1e+37 0 1 empty empty Q -8 7 0 10 -204786
-1 -1 6.76 256;
#X obj 192 135 nbx 4 14 0 200 0 1 empty empty dB -12 7 0 10 -261234
-1 -1 35 256;
#X obj 114 134 nbx 5 14 -1e+37 1e+37 0 0 empty empty Hz -12 7 0 10
-262130 -1 -1 130.813 256;
#X obj 36 52 ftom;
#X msg 40 135 set \$1;
#X msg 36 71 set \$1;
#X obj 281 167 switch~;
#X obj 281 128 > 0;
#X obj 281 147 change;
#X obj 89 43 inlet~;
#X obj 181 47 inlet;
#X obj 225 47 inlet;
#X obj 270 47 inlet;
#X obj 88 227 outlet~;
#X obj 313 47 inlet;
#X obj 88 189 para_bp2~ 450 10 5 5;
#X obj 124 167 m 1;
#X connect 0 0 1 0;
#X connect 1 0 6 0;
#X connect 1 0 18 0;
#X connect 2 0 17 2;
#X connect 3 0 9 0;
#X connect 3 0 17 3;
#X connect 4 0 5 0;
#X connect 5 0 7 0;
#X connect 6 0 4 0;
#X connect 7 0 0 0;
#X connect 9 0 10 0;
#X connect 10 0 8 0;
#X connect 11 0 17 0;
#X connect 12 0 0 0;
#X connect 13 0 2 0;
#X connect 14 0 3 0;
#X connect 16 0 18 1;
#X connect 17 0 15 0;
#X connect 18 0 17 1;
#X coords 0 -1 1 1 140 50 1 100 100;
#X restore 100 241 pd band2;
#X obj 100 313 outlet~;
#N canvas 1 216 354 265 band2 0;
#X obj 114 117 nbx 5 14 -1e+37 1e+37 0 1 empty empty empty 0 -8 0 10
-262130 -1 -1 81.0374 256;
#X obj 40 114 mtof;
#X obj 192 118 nbx 4 14 -1e+37 1e+37 0 1 empty empty Q -8 7 0 10 -204786
-1 -1 9.2 256;
#X obj 192 135 nbx 4 14 0 200 0 1 empty empty dB -12 7 0 10 -261234
-1 -1 24 256;
#X obj 114 134 nbx 5 14 -1e+37 1e+37 0 0 empty empty Hz -12 7 0 10
-262130 -1 -1 881.903 256;
#X obj 36 52 ftom;
#X msg 40 135 set \$1;
#X msg 36 71 set \$1;
#X obj 281 167 switch~;
#X obj 281 128 > 0;
#X obj 281 147 change;
#X obj 89 43 inlet~;
#X obj 181 47 inlet;
#X obj 225 47 inlet;
#X obj 270 47 inlet;
#X obj 88 227 outlet~;
#X obj 313 47 inlet;
#X obj 88 189 para_bp2~ 450 10 5 5;
#X obj 124 167 m 1;
#X connect 0 0 1 0;
#X connect 1 0 6 0;
#X connect 1 0 18 0;
#X connect 2 0 17 2;
#X connect 3 0 9 0;
#X connect 3 0 17 3;
#X connect 4 0 5 0;
#X connect 5 0 7 0;
#X connect 6 0 4 0;
#X connect 7 0 0 0;
#X connect 9 0 10 0;
#X connect 10 0 8 0;
#X connect 11 0 17 0;
#X connect 12 0 0 0;
#X connect 13 0 2 0;
#X connect 14 0 3 0;
#X connect 16 0 18 1;
#X connect 17 0 15 0;
#X connect 18 0 17 1;
#X coords 0 -1 1 1 140 50 1 100 100;
#X restore 247 242 pd band2;
#N canvas 1 216 354 265 band2 0;
#X obj 114 117 nbx 5 14 -1e+37 1e+37 0 1 empty empty empty 0 -8 0 10
-262130 -1 -1 86.037 256;
#X obj 40 114 mtof;
#X obj 192 118 nbx 4 14 -1e+37 1e+37 0 1 empty empty Q -8 7 0 10 -204786
-1 -1 1.1 256;
#X obj 192 135 nbx 4 14 0 200 0 1 empty empty dB -12 7 0 10 -261234
-1 -1 21 256;
#X obj 114 134 nbx 5 14 -1e+37 1e+37 0 0 empty empty Hz -12 7 0 10
-262130 -1 -1 1177.17 256;
#X obj 36 52 ftom;
#X msg 40 135 set \$1;
#X msg 36 71 set \$1;
#X obj 281 167 switch~;
#X obj 281 128 > 0;
#X obj 281 147 change;
#X obj 89 43 inlet~;
#X obj 181 47 inlet;
#X obj 225 47 inlet;
#X obj 270 47 inlet;
#X obj 88 227 outlet~;
#X obj 313 47 inlet;
#X obj 88 189 para_bp2~ 450 10 5 5;
#X obj 124 167 m 1;
#X connect 0 0 1 0;
#X connect 1 0 6 0;
#X connect 1 0 18 0;
#X connect 2 0 17 2;
#X connect 3 0 9 0;
#X connect 3 0 17 3;
#X connect 4 0 5 0;
#X connect 5 0 7 0;
#X connect 6 0 4 0;
#X connect 7 0 0 0;
#X connect 9 0 10 0;
#X connect 10 0 8 0;
#X connect 11 0 17 0;
#X connect 12 0 0 0;
#X connect 13 0 2 0;
#X connect 14 0 3 0;
#X connect 16 0 18 1;
#X connect 17 0 15 0;
#X connect 18 0 17 1;
#X coords 0 -1 1 1 140 50 1 100 100;
#X restore 393 242 pd band2;
#X msg 397 92 66;
#X obj 397 113 mtof;
#X floatatom 397 134 5 0 0 0 - - -, f 5;
#X msg 427 89 77;
#X obj 100 117 inlet~;
#X obj 131 183 lop~ 600;
#X connect 0 0 2 0;
#X connect 0 0 4 0;
#X connect 0 0 5 0;
#X connect 1 0 11 0;
#X connect 2 0 3 0;
#X connect 4 0 3 0;
#X connect 5 0 3 0;
#X connect 6 0 7 0;
#X connect 7 0 8 0;
#X connect 9 0 7 0;
#X connect 10 0 0 0;
#X connect 11 0 0 1;
#X restore 183 393 pd piston1;
#X msg 187 29 0 3000;
#X msg 201 53 -1;
#X obj 249 79 r trainMode;
#X obj 249 101 route vapeur;
#X msg 249 121 1;
#X msg 281 122 0;
#X obj 249 142 f;
#X obj 90 115 spigot;
#X obj 194 71 tgl 15 0 empty empty empty 17 7 0 10 -262144 -1 -1 1
1;
#X obj 184 354 _piston_trig;
#X obj 334 228 noise~;
#X obj 422 287 +~ 1;
#X obj 335 298 *~;
#X obj 535 197 noise~;
#X obj 486 196 sig~ 1;
#X obj 485 278 /~;
#X obj 485 299 clip~ -0.5 0.5;
#X obj 693 195 noise~;
#X obj 644 194 sig~ 1;
#X obj 643 276 /~;
#X obj 643 297 clip~ -0.5 0.5;
#X obj 422 245 lop~ 30;
#X obj 422 266 *~ 5;
#X obj 693 236 *~ 5000;
#X obj 486 354 lop~ 10000;
#X obj 535 217 bp~ 2 0.1;
#X obj 693 215 bp~ 1 0.1;
#X obj 485 329 *~ 0.3;
#X obj 535 238 *~ 10000;
#X obj 335 273 lp2_cheb~ 500;
#X obj 474 27 r trainVitesse;
#X obj 474 48 / 120;
#X obj 551 134 * 2;
#X obj 552 64 hsl 128 15 0 1 0 0 empty empty empty -2 -8 0 10 -262144
-1 -1 0 1;
#X obj 551 155 + 0.01;
#X obj 600 176 + 0.05;
#X obj 387 186 * 300;
#X obj 387 207 + 200;
#X obj 600 155 * 0.2;
#X obj 474 69 clip 0 1;
#X obj 474 105 f;
#X msg 260 237 \$1 1000;
#X obj 260 258 line~;
#X obj 262 214 * 2;
#X obj 444 404 *~;
#X obj 367 77 r tension;
#X obj 337 99 &&;
#X obj 366 99 t b f;
#X obj 228 185 &&;
#X obj 257 185 t b f;
#X obj 258 163 r marche;
#X obj 350 509 *~;
#X obj 421 488 noise~;
#X obj 325 464 bng 15 250 50 0 empty empty empty 17 7 0 10 -262144
-1 -1;
#X obj 90 136 t f f;
#X obj 72 180 list prepend;
#X floatatom 23 237 5 0 0 0 - - -, f 5;
#X floatatom 47 139 5 0 0 0 - - -, f 5;
#X obj 18 56 ndmetro 8 6;
#X obj 90 52 ndmetro 24 18;
#X obj 90 73 + 12;
#X obj 90 94 mod 24;
#X obj 117 156 mod 6;
#X obj 72 222 / 6;
#X obj 350 488 ead~ 50 90;
#X obj 504 537 *~;
#X obj 587 516 noise~;
#X obj 503 488 bng 15 250 50 0 empty empty empty 17 7 0 10 -262144
-1 -1;
#X obj 350 457 b;
#X obj 529 487 b;
#X obj 504 516 ead~ 150 150;
#X obj 72 201 route 0 5 2;
#X obj 587 537 bp~ 10000 2;
#X obj 421 509 bp~ 7000 1;
#X obj 350 530 *~ 0.3;
#X connect 0 0 72 0;
#X connect 1 0 3 0;
#X connect 2 0 73 1;
#X connect 4 0 7 0;
#X connect 6 0 4 0;
#X connect 7 0 1 0;
#X connect 8 0 9 0;
#X connect 8 1 10 0;
#X connect 8 2 10 0;
#X connect 8 3 10 0;
#X connect 9 0 4 0;
#X connect 10 0 22 0;
#X connect 11 0 22 0;
#X connect 12 0 1 0;
#X connect 13 0 72 0;
#X connect 14 0 72 0;
#X connect 15 0 16 0;
#X connect 16 0 17 0;
#X connect 16 1 18 0;
#X connect 17 0 19 0;
#X connect 18 0 19 0;
#X connect 19 0 59 0;
#X connect 19 0 61 0;
#X connect 20 0 67 0;
#X connect 21 0 20 1;
#X connect 22 0 12 0;
#X connect 23 0 34 0;
#X connect 23 0 42 0;
#X connect 24 0 25 1;
#X connect 25 0 57 0;
#X connect 26 0 38 0;
#X connect 27 0 28 0;
#X connect 28 0 29 0;
#X connect 29 0 40 0;
#X connect 30 0 39 0;
#X connect 31 0 32 0;
#X connect 32 0 33 0;
#X connect 33 0 40 0;
#X connect 34 0 35 0;
#X connect 35 0 24 0;
#X connect 36 0 32 1;
#X connect 37 0 57 0;
#X connect 38 0 41 0;
#X connect 39 0 36 0;
#X connect 40 0 37 0;
#X connect 41 0 28 1;
#X connect 42 0 25 0;
#X connect 43 0 44 0;
#X connect 44 0 52 0;
#X connect 45 0 47 0;
#X connect 46 0 53 0;
#X connect 47 0 38 1;
#X connect 48 0 40 1;
#X connect 49 0 50 0;
#X connect 50 0 42 1;
#X connect 51 0 48 0;
#X connect 52 0 53 0;
#X connect 53 0 49 0;
#X connect 53 0 45 0;
#X connect 53 0 51 0;
#X connect 54 0 55 0;
#X connect 55 0 57 1;
#X connect 56 0 54 0;
#X connect 57 0 3 0;
#X connect 58 0 60 0;
#X connect 59 0 56 0;
#X connect 60 0 59 0;
#X connect 60 1 59 1;
#X connect 61 0 21 0;
#X connect 62 0 61 0;
#X connect 62 1 61 1;
#X connect 63 0 62 0;
#X connect 64 0 87 0;
#X connect 65 0 86 0;
#X connect 66 0 77 0;
#X connect 67 0 68 0;
#X connect 67 1 75 0;
#X connect 68 0 84 0;
#X connect 72 0 73 0;
#X connect 73 0 74 0;
#X connect 74 0 20 0;
#X connect 75 0 68 1;
#X connect 76 0 8 0;
#X connect 77 0 64 0;
#X connect 78 0 87 0;
#X connect 79 0 85 0;
#X connect 80 0 83 0;
#X connect 81 0 77 0;
#X connect 82 0 83 0;
#X connect 83 0 78 0;
#X connect 84 0 76 0;
#X connect 84 1 81 0;
#X connect 84 2 82 0;
#X connect 85 0 78 1;
#X connect 86 0 64 1;
#X connect 87 0 1 0;
