#N canvas 454 247 450 300 10;
#X obj 218 101 inlet;
#X obj 266 101 inlet;
#X obj 247 138 t b f;
#X obj 240 232 outlet;
#X obj 237 163 * \$1;
#X connect 0 0 4 0;
#X connect 1 0 2 0;
#X connect 2 0 4 0;
#X connect 2 1 4 1;
#X connect 4 0 3 0;
