#N canvas 254 399 920 434 10;
#X declare -path ../Speaking -stdpath motex;
#X declare -stdpath creb -lib creb -stdpath iemlib -lib iemlib1 -lib
iemlib2 -stdpath hcs -stdpath moonlib -path absGAMME;
#X obj 43 159 speaking MAIN;
#X obj 43 92 bng 15 250 50 0 empty empty empty 17 7 0 10 -262144 -1
-1;
#X obj 43 51 loadbang;
#X obj 41 14 declare -path ../Speaking -stdpath motex;
#X obj 43 112 getenv HOME;
#X msg 43 133 maindir \$1/Datas/sons-trains/paroles;
#N canvas 171 95 1207 723 annonce-voiture 0;
#X obj 49 599 outlet~;
#X obj 549 373 sel 0;
#X obj 576 393 t b b;
#X obj 603 412 random 2000;
#X obj 603 433 + 500;
#X obj 549 352 random 5;
#X obj 47 258 -~;
#X obj 62 233 clip~ -0.2 0.1;
#X obj 164 203 random 1000;
#X obj 241 203 random 1000;
#X msg 164 245 \$1 4000;
#X obj 164 266 line;
#X obj 164 153 tgl 15 0 empty empty empty 17 7 0 10 -262144 -1 -1 1
1;
#X obj 164 287 * -1;
#X msg 241 244 \$1 4000;
#X obj 241 265 line;
#X obj 241 286 * 1;
#X obj 142 387 -~;
#X obj 157 362 clip~ -0.2 0.3;
#X obj 201 334 *~ 0.5;
#X obj 251 353 *~ 0.5;
#X obj 201 313 osc~ 3000.79;
#X obj 251 332 osc~ 151.314;
#X obj 141 317 osc~ 100;
#X obj 158 340 *~;
#X obj 48 360 *~;
#X obj 62 338 +~ 1;
#X obj 89 483 *~ 0.5;
#X obj 142 451 bp~ 1000 4;
#X obj 142 485 *~ 0.5;
#X obj 47 279 *~ 2;
#X obj 47 300 clip~ -1 1;
#X obj 48 556 *~, f 30;
#X obj 422 86 b;
#X msg 396 356 0;
#X msg 368 199 \$1 4000;
#X obj 368 220 line;
#X obj 368 241 * 1;
#X obj 368 179 / 2000;
#X obj 447 159 random 1000;
#X msg 447 200 \$1 4000;
#X obj 447 221 line;
#X obj 447 242 * 1;
#X obj 483 11 bng 15 250 50 0 empty empty empty 17 7 0 10 -262144 -1
-1;
#N canvas 1 81 593 338 clic 0;
#X obj 402 178 noise~;
#X obj 146 118 *~;
#N canvas 1 243 354 265 band2 0;
#X obj 114 117 nbx 5 14 -1e+37 1e+37 0 1 empty empty empty 0 -8 0 10
-262130 -1 -1 76 256;
#X obj 40 114 mtof;
#X obj 192 118 nbx 4 14 -1e+37 1e+37 0 1 empty empty Q -8 7 0 10 -204786
-1 -1 110.2 256;
#X obj 192 135 nbx 4 14 0 200 0 1 empty empty dB -12 7 0 10 -261234
-1 -1 21 256;
#X obj 114 134 nbx 5 14 -1e+37 1e+37 0 0 empty empty Hz -12 7 0 10
-262130 -1 -1 659.255 256;
#X obj 36 52 ftom;
#X msg 40 135 set \$1;
#X msg 36 71 set \$1;
#X obj 281 167 switch~;
#X obj 281 128 > 0;
#X obj 281 147 change;
#X obj 89 43 inlet~;
#X obj 181 47 inlet;
#X obj 225 47 inlet;
#X obj 270 47 inlet;
#X obj 88 227 outlet~;
#X obj 313 47 inlet;
#X obj 88 189 para_bp2~ 450 10 5 5;
#X obj 124 167 m 1;
#X connect 0 0 1 0;
#X connect 1 0 6 0;
#X connect 1 0 18 0;
#X connect 2 0 17 2;
#X connect 3 0 9 0;
#X connect 3 0 17 3;
#X connect 4 0 5 0;
#X connect 5 0 7 0;
#X connect 6 0 4 0;
#X connect 7 0 0 0;
#X connect 9 0 10 0;
#X connect 10 0 8 0;
#X connect 11 0 17 0;
#X connect 12 0 0 0;
#X connect 13 0 2 0;
#X connect 14 0 3 0;
#X connect 16 0 18 1;
#X connect 17 0 15 0;
#X connect 18 0 17 1;
#X coords 0 -1 1 1 140 50 1 100 100;
#X restore 401 206 pd band2;
#X obj 147 201 outlet~;
#X obj 263 43 t b b b;
#X obj 263 131 pack f f f;
#X msg 263 152 \$1 \, \$2 \$3;
#X obj 146 28 bng 15 250 50 0 empty empty empty 17 7 0 10 -262144 -1
-1;
#X obj 332 72 random 100;
#X floatatom 413 149 5 0 0 0 - - -, f 5;
#X obj 263 73 random 100;
#X obj 263 94 + 20;
#X obj 332 91 + 20;
#X obj 400 72 random 2000;
#X obj 51 95 metro 500;
#X obj 59 56 tgl 15 0 empty empty empty 17 7 0 10 -262144 -1 -1 0 1
;
#X obj 263 235 clip~ -0.5 0.5;
#X obj 401 261 hip~ 100;
#X obj 263 173 line~;
#X obj 263 193 mtof~;
#X obj 263 214 osc~;
#X floatatom 360 147 5 0 0 0 - - -, f 5;
#X floatatom 222 145 5 0 0 0 - - -, f 5;
#X obj 146 7 inlet;
#X obj 181 282 clip~ -0.2 0.2;
#X obj 146 164 clip~ -0.2 0.2;
#X obj 146 89 ead~ 0 200;
#X connect 0 0 2 0;
#X connect 1 0 25 0;
#X connect 2 0 17 0;
#X connect 4 0 10 0;
#X connect 4 1 8 0;
#X connect 4 2 13 0;
#X connect 5 0 6 0;
#X connect 6 0 18 0;
#X connect 7 0 4 0;
#X connect 7 0 26 0;
#X connect 8 0 12 0;
#X connect 10 0 11 0;
#X connect 11 0 5 0;
#X connect 11 0 22 0;
#X connect 12 0 5 1;
#X connect 12 0 21 0;
#X connect 13 0 5 2;
#X connect 13 0 9 0;
#X connect 15 0 14 0;
#X connect 16 0 1 1;
#X connect 17 0 1 1;
#X connect 18 0 19 0;
#X connect 19 0 20 0;
#X connect 20 0 16 0;
#X connect 23 0 7 0;
#X connect 25 0 3 0;
#X connect 26 0 1 0;
#X restore 90 148 pd clic;
#X obj 90 125 bng 15 250 50 0 empty empty empty 17 7 0 10 -262144 -1
-1;
#X obj 343 458 noise~;
#X obj 343 479 lop~ 0.1;
#X obj 343 521 +~ 3000;
#X obj 414 455 noise~;
#X obj 414 476 lop~ 0.1;
#X obj 414 518 +~ 150;
#X obj 343 500 *~ 2000;
#X obj 414 497 *~ 500;
#X floatatom 372 267 5 0 0 0 - - -, f 5;
#X obj 143 520 hip~ 500;
#X obj 447 180 / 1000;
#X obj 47 82 speaker MAIN VOITURE;
#X obj 549 55 say MAINVOITURE - - - 2000;
#X obj 549 91 say MAINVOITURE VOICE1 RND bienvenue 1200;
#X obj 549 129 say MAINVOITURE VOICE1 RND jesuisvotrechef 300;
#X obj 549 168 say MAINVOITURE VOICE1 RND lepersonnel 800;
#X obj 549 203 say MAINVOITURE VOICE1 RND cetrain 300;
#X obj 549 237 say MAINVOITURE VOICE1 RND gare 1000;
#X obj 549 273 say MAINVOITURE VOICE1 RND ildesservira 300;
#X obj 549 315 say MAINVOITURE VOICE1 RND gare 700;
#X obj 576 455 say MAINVOITURE VOICE1 RND gare 700;
#X obj 549 494 say MAINVOITURE VOICE1 RND et 200;
#X obj 549 530 say MAINVOITURE VOICE1 RND gare 700;
#X obj 549 579 say MAINVOITURE - - - 1200;
#X obj 1162 183 bng 15 250 50 0 empty empty empty 17 7 0 10 -262144
-1 -1;
#X obj 549 614 say MAINVOITURE VOICE1 RND annonce 2500;
#X obj 549 682 say MAINVOITURE - - - 600;
#X obj 1100 22 inlet stop;
#X obj 164 132 loadbang;
#X obj 164 175 metro 2000;
#X obj 368 158 random 1000;
#X obj 549 8 inlet depart;
#X obj 887 20 inlet arrivee;
#X obj 887 63 say MAINVOITURE - - - 2000;
#X obj 887 176 say MAINVOITURE VOICE1 RND rienoublier 800;
#X obj 549 651 b;
#X obj 984 33 bng 15 250 50 0 empty empty empty 17 7 0 10 -262144 -1
-1;
#X obj 887 137 say MAINVOITURE VOICE1 RND gare 1500;
#X obj 887 99 say MAINVOITURE VOICE1 RND arrivee 300;
#X obj 241 224 / 7000;
#X obj 164 224 / 7000, f 24;
#X obj 294 593 +~ 3;
#X obj 142 408 *~;
#X floatatom 345 578 5 0 0 0 - - -, f 5;
#X obj 294 574 *~ 3;
#X obj 381 641 osc~ 7000;
#X obj 294 553 hip~ 1000;
#X msg 430 676 600;
#X msg 459 676 3000;
#X obj 381 662 *~ 2;
#X obj 392 602 +~ 800;
#X obj 393 582 *~ 600;
#X obj 142 426 clip~ -0.4 0.5;
#X obj 48 512 hip~ 600;
#X msg 366 356 0.7;
#X obj 933 465 say MAINVOITURE VOICE1 RND minibar 800;
#X obj 933 416 inlet minibar, f 32;
#X connect 1 0 67 0;
#X connect 1 1 2 0;
#X connect 2 0 66 0;
#X connect 2 1 3 0;
#X connect 3 0 4 0;
#X connect 4 0 66 4;
#X connect 5 0 1 0;
#X connect 6 0 30 0;
#X connect 7 0 6 1;
#X connect 8 0 86 0;
#X connect 9 0 85 0;
#X connect 10 0 11 0;
#X connect 11 0 13 0;
#X connect 12 0 75 0;
#X connect 13 0 7 1;
#X connect 14 0 15 0;
#X connect 15 0 16 0;
#X connect 16 0 7 2;
#X connect 17 0 88 0;
#X connect 18 0 17 1;
#X connect 19 0 17 0;
#X connect 19 0 18 0;
#X connect 20 0 18 0;
#X connect 21 0 19 0;
#X connect 22 0 20 0;
#X connect 22 0 24 1;
#X connect 23 0 17 0;
#X connect 23 0 18 0;
#X connect 23 0 24 0;
#X connect 24 0 18 0;
#X connect 25 0 99 0;
#X connect 26 0 25 1;
#X connect 27 0 26 0;
#X connect 28 0 27 0;
#X connect 28 0 29 0;
#X connect 29 0 55 0;
#X connect 30 0 31 0;
#X connect 31 0 25 0;
#X connect 32 0 0 0;
#X connect 33 0 100 0;
#X connect 33 0 44 0;
#X connect 34 0 32 1;
#X connect 35 0 36 0;
#X connect 36 0 37 0;
#X connect 37 0 27 1;
#X connect 38 0 35 0;
#X connect 39 0 56 0;
#X connect 40 0 41 0;
#X connect 41 0 42 0;
#X connect 42 0 29 1;
#X connect 43 0 33 0;
#X connect 44 0 7 0;
#X connect 44 0 6 0;
#X connect 45 0 44 0;
#X connect 46 0 47 0;
#X connect 46 0 92 0;
#X connect 47 0 52 0;
#X connect 48 0 21 0;
#X connect 49 0 50 0;
#X connect 49 0 97 0;
#X connect 50 0 53 0;
#X connect 51 0 22 0;
#X connect 52 0 48 0;
#X connect 53 0 51 0;
#X connect 55 0 32 0;
#X connect 56 0 40 0;
#X connect 57 0 6 0;
#X connect 57 0 7 0;
#X connect 58 0 59 0;
#X connect 59 0 60 0;
#X connect 60 0 61 0;
#X connect 61 0 62 0;
#X connect 62 0 63 0;
#X connect 63 0 64 0;
#X connect 64 0 65 0;
#X connect 65 0 5 0;
#X connect 66 0 5 0;
#X connect 67 0 68 0;
#X connect 68 0 69 0;
#X connect 69 0 71 0;
#X connect 70 0 72 0;
#X connect 71 0 81 0;
#X connect 72 0 34 0;
#X connect 73 0 70 0;
#X connect 74 0 12 0;
#X connect 75 0 8 0;
#X connect 75 0 9 0;
#X connect 75 0 39 0;
#X connect 75 0 76 0;
#X connect 76 0 38 0;
#X connect 77 0 33 0;
#X connect 77 0 58 0;
#X connect 78 0 33 0;
#X connect 78 0 79 0;
#X connect 79 0 84 0;
#X connect 80 0 81 0;
#X connect 81 0 44 0;
#X connect 81 0 72 0;
#X connect 82 0 79 0;
#X connect 82 0 33 0;
#X connect 83 0 80 0;
#X connect 84 0 83 0;
#X connect 85 0 14 0;
#X connect 86 0 10 0;
#X connect 87 0 88 1;
#X connect 88 0 98 0;
#X connect 89 0 90 1;
#X connect 90 0 87 0;
#X connect 91 0 95 0;
#X connect 92 0 90 0;
#X connect 93 0 91 0;
#X connect 94 0 91 0;
#X connect 95 0 87 0;
#X connect 96 0 91 0;
#X connect 97 0 96 0;
#X connect 98 0 28 0;
#X connect 99 0 32 0;
#X connect 100 0 32 1;
#X connect 101 0 81 0;
#X connect 102 0 101 0;
#X connect 102 0 33 0;
#X restore 54 315 pd annonce-voiture;
#X obj 54 291 bng 15 250 50 0 empty empty depart 17 7 0 10 -262144
-1 -1;
#X obj 244 292 bng 15 250 50 0 empty empty stop 17 7 0 10 -262144 -1
-1;
#X obj 117 293 bng 15 250 50 0 empty empty arrivee 17 7 0 10 -262144
-1 -1;
#N canvas 1 81 882 314 loco 0;
#X obj 173 169 say MAINLOCO VOICE1 RND baille 300;
#X obj 403 169 say MAINLOCO VOICE1 RND demande 300;
#X obj 626 169 say MAINLOCO VOICE1 RND telephone 300;
#X obj 341 42 r pupitreMaitre;
#X obj 341 63 route sw;
#X floatatom 341 84 5 0 0 0 - - -, f 5;
#X obj 296 105 route 2 4 7;
#X connect 3 0 4 0;
#X connect 4 0 5 0;
#X connect 4 0 6 0;
#X connect 6 0 0 0;
#X connect 6 1 1 0;
#X connect 6 2 2 0;
#X restore 307 75 pd loco;
#X obj 43 72 del 100;
#X obj 53 366 dac~ 1;
#X obj 163 362 dac~ 2;
#X obj 306 14 auxcommon;
#X obj 306 32 declare -stdpath creb -lib creb -stdpath iemlib -lib
iemlib1 -lib iemlib2 -stdpath hcs -stdpath moonlib -path absGAMME;
#N canvas 1 81 1236 702 alarmes 0;
#X obj 435 626 throw~ loco;
#X obj 50 220 clip~ -1 1;
#X obj 50 311 *~;
#X obj 127 239 tgl 15 0 empty empty empty 17 7 0 10 -262144 -1 -1 0
1;
#X obj 49 175 hip~ 600;
#X obj 50 241 bp~ 2000 4;
#X obj 50 199 *~ 1000;
#X msg 127 181 1;
#X msg 154 202 0;
#X obj 50 262 hip~ 2000;
#X obj 287 70 r trainVitesse;
#X obj 311 127 log;
#X floatatom 373 250 5 0 0 0 - - -, f 5;
#X obj 311 148 i;
#X msg 311 192 2 \$1;
#X obj 311 215 pow;
#X obj 311 168 max 0;
#X obj 311 103 * 4;
#X obj 311 236 / 32;
#X obj 127 94 r trainClock;
#X obj 127 115 ndmetro 4 3;
#X obj 127 136 == 0;
#X obj 127 157 sel 1 0;
#X obj 311 258 change;
#X msg 311 279 3 \$1;
#X obj 311 300 /;
#X msg 311 321 nd 4 \$1;
#X obj 206 260 route sw;
#X obj 206 239 r pupitreMaitre;
#X obj 206 283 route 23;
#X obj 127 259 *;
#X obj 154 259 t b f;
#X obj 97 361 s toPupitreMaitre;
#X msg 99 331 led 5 \$1;
#X obj 127 286 * 0.2;
#X msg 814 76 300;
#X obj 814 97 ftom;
#X obj 814 121 gammeRound GAMME 10;
#X obj 814 142 mtof;
#X floatatom 814 163 5 0 0 0 - - -, f 5;
#X obj 49 154 phasor~ 310;
#N canvas 1 389 354 265 band2 0;
#X obj 114 117 nbx 5 14 -1e+37 1e+37 0 1 empty empty empty 0 -8 0 10
-262130 -1 -1 84.235 256;
#X obj 40 114 mtof;
#X obj 192 118 nbx 4 14 -1e+37 1e+37 0 1 empty empty Q -8 7 0 10 -204786
-1 -1 928.75 256;
#X obj 192 135 nbx 4 14 0 200 0 1 empty empty dB -12 7 0 10 -261234
-1 -1 43 256;
#X obj 114 134 nbx 5 14 -1e+37 1e+37 0 0 empty empty Hz -12 7 0 10
-262130 -1 -1 1060.8 256;
#X obj 36 52 ftom;
#X msg 40 135 set \$1;
#X msg 36 71 set \$1;
#X obj 281 167 switch~;
#X obj 281 128 > 0;
#X obj 281 147 change;
#X obj 89 43 inlet~;
#X obj 181 47 inlet;
#X obj 225 47 inlet;
#X obj 270 47 inlet;
#X obj 88 227 outlet~;
#X obj 313 47 inlet;
#X obj 124 167 m 1;
#X obj 88 189 para_bp2~ 450 10 5 5;
#X connect 0 0 1 0;
#X connect 1 0 6 0;
#X connect 1 0 17 0;
#X connect 2 0 18 2;
#X connect 3 0 9 0;
#X connect 3 0 18 3;
#X connect 4 0 5 0;
#X connect 5 0 7 0;
#X connect 6 0 4 0;
#X connect 7 0 0 0;
#X connect 9 0 10 0;
#X connect 10 0 8 0;
#X connect 11 0 18 0;
#X connect 12 0 0 0;
#X connect 13 0 2 0;
#X connect 14 0 3 0;
#X connect 16 0 17 1;
#X connect 17 0 18 1;
#X connect 18 0 15 0;
#X coords 0 -1 1 1 140 50 1 100 100;
#X restore 495 321 pd band2;
#X obj 541 227 noise~;
#N canvas 1 389 354 265 band2 0;
#X obj 114 117 nbx 5 14 -1e+37 1e+37 0 1 empty empty empty 0 -8 0 10
-262130 -1 -1 96.215 256;
#X obj 40 114 mtof;
#X obj 192 118 nbx 4 14 -1e+37 1e+37 0 1 empty empty Q -8 7 0 10 -204786
-1 -1 753.75 256;
#X obj 192 135 nbx 4 14 0 200 0 1 empty empty dB -12 7 0 10 -261234
-1 -1 40 256;
#X obj 114 134 nbx 5 14 -1e+37 1e+37 0 0 empty empty Hz -12 7 0 10
-262130 -1 -1 2119.16 256;
#X obj 36 52 ftom;
#X msg 40 135 set \$1;
#X msg 36 71 set \$1;
#X obj 281 167 switch~;
#X obj 281 128 > 0;
#X obj 281 147 change;
#X obj 89 43 inlet~;
#X obj 181 47 inlet;
#X obj 225 47 inlet;
#X obj 270 47 inlet;
#X obj 88 227 outlet~;
#X obj 313 47 inlet;
#X obj 124 167 m 1;
#X obj 88 189 para_bp2~ 450 10 5 5;
#X connect 0 0 1 0;
#X connect 1 0 6 0;
#X connect 1 0 17 0;
#X connect 2 0 18 2;
#X connect 3 0 9 0;
#X connect 3 0 18 3;
#X connect 4 0 5 0;
#X connect 5 0 7 0;
#X connect 6 0 4 0;
#X connect 7 0 0 0;
#X connect 9 0 10 0;
#X connect 10 0 8 0;
#X connect 11 0 18 0;
#X connect 12 0 0 0;
#X connect 13 0 2 0;
#X connect 14 0 3 0;
#X connect 16 0 17 1;
#X connect 17 0 18 1;
#X connect 18 0 15 0;
#X coords 0 -1 1 1 140 50 1 100 100;
#X restore 518 389 pd band2;
#X obj 434 234 *~;
#X obj 480 232 tgl 15 0 empty empty empty 17 7 0 10 -262144 -1 -1 0
1;
#X obj 541 290 +~ 1;
#X obj 497 292 *~;
#X obj 541 269 *~ 2;
#N canvas 1 389 354 265 band2 0;
#X obj 114 117 nbx 5 14 -1e+37 1e+37 0 1 empty empty empty 0 -8 0 10
-262130 -1 -1 102.525 256;
#X obj 40 114 mtof;
#X obj 192 118 nbx 4 14 -1e+37 1e+37 0 1 empty empty Q -8 7 0 10 -204786
-1 -1 1182.75 256;
#X obj 192 135 nbx 4 14 0 200 0 1 empty empty dB -12 7 0 10 -261234
-1 -1 38 256;
#X obj 114 134 nbx 5 14 -1e+37 1e+37 0 0 empty empty Hz -12 7 0 10
-262130 -1 -1 3051.09 256;
#X obj 36 52 ftom;
#X msg 40 135 set \$1;
#X msg 36 71 set \$1;
#X obj 281 167 switch~;
#X obj 281 128 > 0;
#X obj 281 147 change;
#X obj 89 43 inlet~;
#X obj 181 47 inlet;
#X obj 225 47 inlet;
#X obj 270 47 inlet;
#X obj 88 227 outlet~;
#X obj 313 47 inlet;
#X obj 124 167 m 1;
#X obj 88 189 para_bp2~ 450 10 5 5;
#X connect 0 0 1 0;
#X connect 1 0 6 0;
#X connect 1 0 17 0;
#X connect 2 0 18 2;
#X connect 3 0 9 0;
#X connect 3 0 18 3;
#X connect 4 0 5 0;
#X connect 5 0 7 0;
#X connect 6 0 4 0;
#X connect 7 0 0 0;
#X connect 9 0 10 0;
#X connect 10 0 8 0;
#X connect 11 0 18 0;
#X connect 12 0 0 0;
#X connect 13 0 2 0;
#X connect 14 0 3 0;
#X connect 16 0 17 1;
#X connect 17 0 18 1;
#X connect 18 0 15 0;
#X coords 0 -1 1 1 140 50 1 100 100;
#X restore 503 444 pd band2;
#X obj 710 365 gammeRound GAMME 10;
#X obj 710 386 mtof;
#X obj 710 407 phasor~;
#X floatatom 756 330 5 0 0 0 - - -, f 5;
#X floatatom 604 176 5 0 0 0 - - -, f 5;
#X obj 770 462 tgl 15 0 empty empty empty 17 7 0 10 -262144 -1 -1 0
1;
#X obj 541 248 bp~ 800 5;
#X obj 426 70 route sw;
#X obj 426 49 r pupitreMaitre;
#X floatatom 387 97 5 0 0 0 - - -, f 5;
#X obj 446 126 tgl 15 0 empty empty empty 17 7 0 10 -262144 -1 -1 0
1;
#X obj 837 189 r trainVitesse;
#X obj 837 233 log;
#X obj 837 254 i;
#X msg 837 298 2 \$1;
#X obj 837 321 pow;
#X obj 837 274 max 0;
#X obj 837 209 * 4;
#X obj 848 449 r trainClock;
#X obj 837 471 ndmetro 4 3;
#X obj 837 364 change;
#X floatatom 879 405 5 0 0 0 - - -, f 5;
#X msg 837 385 3 \$1;
#X obj 837 406 /;
#X obj 709 452 hip~ 2000;
#X obj 709 494 clip~ -1 1;
#X obj 837 492 < 2;
#X msg 837 427 nd 3 \$1;
#X obj 837 342 / 64;
#X msg 710 342 48;
#X obj 710 312 loadbang;
#X obj 837 513 *;
#X obj 863 515 t b f;
#X obj 870 495 tgl 15 0 empty empty empty 17 7 0 10 -262144 -1 -1 0
1;
#X obj 693 215 == 0;
#X obj 206 327 * 0.2;
#X obj 1056 370 gammeRound GAMME 10;
#X obj 1056 391 mtof;
#X obj 1056 412 phasor~;
#X floatatom 1102 335 5 0 0 0 - - -, f 5;
#X obj 1116 467 tgl 15 0 empty empty empty 17 7 0 10 -262144 -1 -1
0 1;
#X obj 1055 457 hip~ 2000;
#X obj 1055 478 *~ 200;
#X obj 1055 499 clip~ -1 1;
#X obj 1056 317 loadbang;
#X obj 426 94 route 9;
#X obj 693 194 route 10 6, f 17;
#X obj 710 430 *~ 0;
#X obj 1056 435 *~ 0;
#X obj 963 442 r trainClock;
#X obj 952 464 ndmetro 4 3;
#X obj 952 357 change;
#X floatatom 994 398 5 0 0 0 - - -, f 5;
#X msg 952 378 3 \$1;
#X obj 952 399 /;
#X obj 918 509 < 2;
#X obj 952 579 *;
#X obj 978 579 t b f;
#X obj 1014 554 tgl 15 0 empty empty empty 17 7 0 10 -262144 -1 -1
0 1;
#X msg 952 420 nd 6 \$1;
#X obj 426 115 == 0;
#X obj 749 221 tgl 15 0 empty empty empty 17 7 0 10 -262144 -1 -1 0
1;
#X msg 1056 347 72;
#X obj 952 335 / 256;
#X msg 952 506 1;
#X msg 986 505 0;
#X obj 952 485 sel 0 2;
#X obj 434 537 *~ 0.025;
#X obj 1056 522 *~ 0.025;
#X obj 709 473 *~ 400;
#X obj 710 518 *~ 0.07;
#X obj 693 236 autostop;
#X obj 206 306 autostop;
#X obj 433 200 wavplayertab clochemini 0.97 1;
#X connect 1 0 5 0;
#X connect 2 0 0 0;
#X connect 3 0 30 0;
#X connect 4 0 6 0;
#X connect 5 0 9 0;
#X connect 6 0 1 0;
#X connect 7 0 3 0;
#X connect 8 0 3 0;
#X connect 9 0 2 0;
#X connect 10 0 17 0;
#X connect 11 0 13 0;
#X connect 13 0 16 0;
#X connect 14 0 15 0;
#X connect 15 0 18 0;
#X connect 16 0 14 0;
#X connect 17 0 11 0;
#X connect 18 0 23 0;
#X connect 19 0 20 0;
#X connect 20 0 21 0;
#X connect 21 0 22 0;
#X connect 22 0 7 0;
#X connect 22 1 8 0;
#X connect 23 0 24 0;
#X connect 24 0 25 0;
#X connect 25 0 26 0;
#X connect 26 0 20 0;
#X connect 27 0 29 0;
#X connect 28 0 27 0;
#X connect 29 0 31 0;
#X connect 29 0 122 0;
#X connect 30 0 33 0;
#X connect 30 0 34 0;
#X connect 31 0 30 0;
#X connect 31 1 30 1;
#X connect 33 0 32 0;
#X connect 34 0 2 1;
#X connect 35 0 36 0;
#X connect 36 0 37 0;
#X connect 37 0 38 0;
#X connect 38 0 39 0;
#X connect 40 0 4 0;
#X connect 41 0 117 0;
#X connect 42 0 56 0;
#X connect 43 0 117 0;
#X connect 44 0 47 0;
#X connect 44 0 117 0;
#X connect 45 0 44 1;
#X connect 46 0 47 1;
#X connect 47 0 41 0;
#X connect 47 0 43 0;
#X connect 47 0 49 0;
#X connect 48 0 46 0;
#X connect 49 0 117 0;
#X connect 50 0 51 0;
#X connect 51 0 52 0;
#X connect 52 0 97 0;
#X connect 53 0 50 0;
#X connect 54 0 123 2;
#X connect 56 0 48 0;
#X connect 57 0 59 0;
#X connect 57 0 95 0;
#X connect 58 0 57 0;
#X connect 61 0 67 0;
#X connect 62 0 63 0;
#X connect 63 0 66 0;
#X connect 64 0 65 0;
#X connect 65 0 78 0;
#X connect 65 0 113 0;
#X connect 66 0 64 0;
#X connect 67 0 62 0;
#X connect 68 0 69 0;
#X connect 69 0 76 0;
#X connect 70 0 72 0;
#X connect 72 0 73 0;
#X connect 73 0 77 0;
#X connect 73 0 71 0;
#X connect 74 0 119 0;
#X connect 75 0 120 0;
#X connect 76 0 81 0;
#X connect 77 0 69 0;
#X connect 78 0 70 0;
#X connect 79 0 50 0;
#X connect 80 0 79 0;
#X connect 81 0 97 1;
#X connect 82 0 81 0;
#X connect 82 1 81 1;
#X connect 83 0 82 0;
#X connect 84 0 121 0;
#X connect 85 0 34 1;
#X connect 86 0 87 0;
#X connect 87 0 88 0;
#X connect 88 0 98 0;
#X connect 89 0 86 0;
#X connect 91 0 92 0;
#X connect 92 0 93 0;
#X connect 93 0 118 0;
#X connect 94 0 112 0;
#X connect 95 0 60 0;
#X connect 95 0 110 0;
#X connect 95 1 96 0;
#X connect 96 0 84 0;
#X connect 96 1 111 0;
#X connect 96 1 108 0;
#X connect 97 0 74 0;
#X connect 98 0 91 0;
#X connect 99 0 100 0;
#X connect 100 0 116 0;
#X connect 101 0 103 0;
#X connect 103 0 104 0;
#X connect 104 0 109 0;
#X connect 104 0 102 0;
#X connect 106 0 98 1;
#X connect 107 0 106 0;
#X connect 107 1 106 1;
#X connect 108 0 107 0;
#X connect 109 0 100 0;
#X connect 110 0 45 0;
#X connect 112 0 86 0;
#X connect 113 0 101 0;
#X connect 114 0 106 0;
#X connect 115 0 106 0;
#X connect 116 0 114 0;
#X connect 116 1 114 0;
#X connect 116 2 115 0;
#X connect 117 0 0 0;
#X connect 118 0 0 0;
#X connect 119 0 75 0;
#X connect 120 0 0 0;
#X connect 121 0 83 0;
#X connect 122 0 85 0;
#X connect 123 0 44 0;
#X restore 591 81 pd alarmes;
#N canvas 1 81 567 477 pressure 0;
#X obj 196 64 route sw;
#X obj 196 43 r pupitreMaitre;
#X obj 196 109 b;
#X obj 165 349 throw~ loco;
#X obj 164 295 *~;
#X obj 68 153 noise~;
#N canvas 1 267 354 265 band2 0;
#X obj 114 117 nbx 5 14 -1e+37 1e+37 0 1 empty empty empty 0 -8 0 10
-262130 -1 -1 69.397 256;
#X obj 40 114 mtof;
#X obj 192 118 nbx 4 14 -1e+37 1e+37 0 1 empty empty Q -8 7 0 10 -204786
-1 -1 1.2 256;
#X obj 192 135 nbx 4 14 0 200 0 1 empty empty dB -12 7 0 10 -261234
-1 -1 9 256;
#X obj 114 134 nbx 5 14 -1e+37 1e+37 0 0 empty empty Hz -12 7 0 10
-262130 -1 -1 450.207 256;
#X obj 36 52 ftom;
#X msg 40 135 set \$1;
#X msg 36 71 set \$1;
#X obj 281 167 switch~;
#X obj 281 128 > 0;
#X obj 281 147 change;
#X obj 89 43 inlet~;
#X obj 181 47 inlet;
#X obj 225 47 inlet;
#X obj 270 47 inlet;
#X obj 88 227 outlet~;
#X obj 313 47 inlet;
#X obj 88 189 para_bp2~ 450 10 5 5;
#X obj 124 167 m 1;
#X connect 0 0 1 0;
#X connect 1 0 6 0;
#X connect 1 0 18 0;
#X connect 2 0 17 2;
#X connect 3 0 9 0;
#X connect 3 0 17 3;
#X connect 4 0 5 0;
#X connect 5 0 7 0;
#X connect 6 0 4 0;
#X connect 7 0 0 0;
#X connect 9 0 10 0;
#X connect 10 0 8 0;
#X connect 11 0 17 0;
#X connect 12 0 0 0;
#X connect 13 0 2 0;
#X connect 14 0 3 0;
#X connect 16 0 18 1;
#X connect 17 0 15 0;
#X connect 18 0 17 1;
#X coords 0 -1 1 1 140 50 1 100 100;
#X restore 67 176 pd band2;
#N canvas 1 267 354 265 band2 0;
#X obj 114 117 nbx 5 14 -1e+37 1e+37 0 1 empty empty empty 0 -8 0 10
-262130 -1 -1 103.397 256;
#X obj 40 114 mtof;
#X obj 192 118 nbx 4 14 -1e+37 1e+37 0 1 empty empty Q -8 7 0 10 -204786
-1 -1 3.2 256;
#X obj 192 135 nbx 4 14 0 200 0 1 empty empty dB -12 7 0 10 -261234
-1 -1 16 256;
#X obj 114 134 nbx 5 14 -1e+37 1e+37 0 0 empty empty Hz -12 7 0 10
-262130 -1 -1 3208.71 256;
#X obj 36 52 ftom;
#X msg 40 135 set \$1;
#X msg 36 71 set \$1;
#X obj 281 167 switch~;
#X obj 281 128 > 0;
#X obj 281 147 change;
#X obj 89 43 inlet~;
#X obj 181 47 inlet;
#X obj 225 47 inlet;
#X obj 270 47 inlet;
#X obj 88 227 outlet~;
#X obj 313 47 inlet;
#X obj 88 189 para_bp2~ 450 10 5 5;
#X obj 124 167 m 1;
#X connect 0 0 1 0;
#X connect 1 0 6 0;
#X connect 1 0 18 0;
#X connect 2 0 17 2;
#X connect 3 0 9 0;
#X connect 3 0 17 3;
#X connect 4 0 5 0;
#X connect 5 0 7 0;
#X connect 6 0 4 0;
#X connect 7 0 0 0;
#X connect 9 0 10 0;
#X connect 10 0 8 0;
#X connect 11 0 17 0;
#X connect 12 0 0 0;
#X connect 13 0 2 0;
#X connect 14 0 3 0;
#X connect 16 0 18 1;
#X connect 17 0 15 0;
#X connect 18 0 17 1;
#X coords 0 -1 1 1 140 50 1 100 100;
#X restore 218 177 pd band2;
#X obj 202 264 hsl 128 15 0 1 0 0 empty empty empty -2 -8 0 10 -262144
-1 -1 0 1;
#X obj 284 295 bng 15 250 50 0 empty empty empty 17 7 0 10 -262144
-1 -1;
#X obj 200 283 sig~;
#X obj 274 322 eadsrh~ 100 500 0.5 1000 500;
#X obj 196 88 route 1;
#X obj 164 323 *~ 0.05;
#X connect 0 0 12 0;
#X connect 1 0 0 0;
#X connect 2 0 11 0;
#X connect 4 0 13 0;
#X connect 5 0 6 0;
#X connect 5 0 7 0;
#X connect 6 0 4 0;
#X connect 7 0 4 0;
#X connect 8 0 10 0;
#X connect 9 0 11 0;
#X connect 10 0 4 1;
#X connect 11 0 4 1;
#X connect 12 0 2 0;
#X connect 13 0 3 0;
#X restore 586 99 pd pressure;
#X obj 164 341 catch~ loco;
#X obj 65 340 catch~ voiture;
#X obj 307 101 speaker MAIN LOCO;
#X obj 307 122 *~ 0.3;
#X obj 307 143 throw~ loco;
#X text 489 355 1 2 3 4 5 6 7 8;
#X obj 394 323 throw~ voiture;
#X obj 393 273 *~ 1;
#X obj 54 219 route sw;
#X obj 54 198 r pupitreDisjo;
#X floatatom 9 263 5 0 0 0 - - -, f 5;
#X obj 393 206 speaker MAIN PASSAGERS;
#N canvas 1 81 979 440 passagers 0;
#X obj 106 66 route sw;
#X obj 106 45 r pupitreDisjo;
#X floatatom 74 101 5 0 0 0 - - -, f 5;
#X obj 106 127 route 5 0 12 11 10 9, f 69;
#X obj 297 167 say MAINPASSAGERS VOICE1 RND rire;
#X obj 439 208 say MAINPASSAGERS VOICE1 RND pardon;
#X obj 504 165 say MAINPASSAGERS VOICE1 RND cestmaplace;
#X obj 215 209 say MAINPASS2 VOICE1 RND ronfle;
#X obj 153 241 say MAINPASS2 VOICE1 RND baillevoiture;
#X obj 99 282 say MAINPASS3 VOICE1 RND controleur;
#X connect 0 0 2 0;
#X connect 0 0 3 0;
#X connect 1 0 0 0;
#X connect 3 0 9 0;
#X connect 3 1 8 0;
#X connect 3 2 7 0;
#X connect 3 3 4 0;
#X connect 3 4 5 0;
#X connect 3 5 6 0;
#X restore 394 168 pd passagers;
#X obj 182 292 bng 15 250 50 0 empty empty minibar 17 7 0 10 -262144
-1 -1;
#X obj 54 240 route 8 6 7, f 36;
#X obj 410 227 speaker MAIN PASS2;
#X obj 428 249 speaker MAIN PASS3;
#N canvas 1 81 663 409 bébé 0;
#X obj 159 294 wavplayertab bruits/Baby/BabyLong 1 1;
#X obj 159 320 *~;
#X obj 378 248 loadbang;
#X msg 378 269 0;
#X msg 298 250 1;
#X msg 279 207 stop;
#X msg 266 250 0;
#X obj 175 272 line~;
#X obj 266 141 tgl 15 0 empty empty empty 17 7 0 10 -262144 -1 -1 0
1;
#X obj 266 182 sel 0;
#X msg 221 250 \$1 100;
#X obj 266 161 * 0.2;
#X obj 266 229 del 1000;
#X obj 266 49 route sw;
#X obj 266 28 r pupitreDisjo;
#X obj 266 70 route 4;
#X obj 159 341 outlet~;
#X msg 175 251 0 200;
#X obj 266 91 == 0;
#X obj 266 119 autostop 20000;
#X connect 0 0 1 0;
#X connect 1 0 16 0;
#X connect 2 0 3 0;
#X connect 3 0 0 3;
#X connect 4 0 0 3;
#X connect 5 0 12 0;
#X connect 6 0 0 3;
#X connect 7 0 1 1;
#X connect 8 0 11 0;
#X connect 9 0 17 0;
#X connect 9 0 12 0;
#X connect 9 1 4 0;
#X connect 9 1 10 0;
#X connect 9 1 5 0;
#X connect 10 0 7 0;
#X connect 11 0 9 0;
#X connect 12 0 6 0;
#X connect 13 0 15 0;
#X connect 14 0 13 0;
#X connect 15 0 18 0;
#X connect 17 0 7 0;
#X connect 18 0 19 0;
#X connect 19 0 8 0;
#X restore 579 243 pd bébé;
#N canvas 1 81 450 354 walkman 0;
#X obj 130 126 say MAINWALKMAN VOICE1 RND Walkman 1;
#X obj 111 168 say MAINWALKMAN - - -;
#X obj 111 40 route sw;
#X obj 111 19 r pupitreDisjo;
#X obj 111 82 == 0;
#X obj 111 102 sel 0 1;
#X obj 119 310 throw~ voiture;
#X obj 118 234 speaker MAIN WALKMAN;
#X obj 111 61 route 3;
#X obj 118 255 *~ 0.2;
#X obj 118 276 hp2_butt~ 200;
#X connect 2 0 8 0;
#X connect 3 0 2 0;
#X connect 4 0 5 0;
#X connect 5 0 1 0;
#X connect 5 1 0 0;
#X connect 7 0 9 0;
#X connect 8 0 4 0;
#X connect 9 0 10 0;
#X connect 10 0 6 0;
#X restore 561 195 pd walkman;
#N canvas 1 81 450 354 jeuxVideo 0;
#X obj 111 39 route sw;
#X obj 111 19 r pupitreDisjo;
#X obj 111 82 == 0;
#X obj 111 102 sel 0 1;
#X obj 119 310 throw~ voiture;
#X obj 118 234 speaker MAIN VIDEO;
#X obj 111 168 say MAINVIDEO - - -;
#X obj 130 126 say MAINVIDEO VOICE1 RND Videogame 1;
#X floatatom 56 90 5 0 0 0 - - -, f 5;
#X obj 111 61 route 1;
#X obj 118 255 *~ 0.1;
#X connect 0 0 9 0;
#X connect 1 0 0 0;
#X connect 2 0 3 0;
#X connect 3 0 6 0;
#X connect 3 1 7 0;
#X connect 5 0 10 0;
#X connect 9 0 2 0;
#X connect 10 0 4 0;
#X restore 635 195 pd jeuxVideo;
#X obj 528 297 speaker MAIN BRUITS;
#N canvas 1 81 751 522 bruits 0;
#X obj 106 66 route sw;
#X obj 106 45 r pupitreDisjo;
#X floatatom 74 101 5 0 0 0 - - -, f 5;
#X obj 141 172 say MAINBRUITS VOICE1 RND Slam;
#X obj 172 122 say MAINBRUITS VOICE1 RND PneumaticDoor;
#X obj 103 282 say MAINBRUITS VOICE1 RND Flush;
#X obj 106 87 route 24 25 26;
#X connect 0 0 2 0;
#X connect 0 0 6 0;
#X connect 1 0 0 0;
#X connect 6 0 5 0;
#X connect 6 1 3 0;
#X connect 6 2 4 0;
#X restore 724 194 pd bruits;
#X obj 528 318 *~ 0.5;
#N canvas 169 201 448 416 alarme 0;
#X obj 73 229 phasor~;
#X obj 135 123 metro 300;
#X obj 135 85 tgl 15 0 empty empty empty 17 7 0 10 -262144 -1 -1 0
1;
#X obj 135 165 line~;
#X obj 135 186 mtof~;
#X obj 136 314 throw~ voiture;
#X obj 136 291 *~ 0.1;
#X msg 135 144 90 \, 80 300;
#X obj 135 237 clip~ -0.5 0.5;
#X obj 135 214 osc~;
#X msg 252 187 1;
#X obj 282 185 del 150;
#X msg 282 206 0;
#X obj 252 229 f;
#X obj 172 272 * 0.1;
#X obj 125 35 route sw;
#X obj 125 14 r pupitreDisjo;
#X floatatom 74 73 5 0 0 0 - - -, f 5;
#X obj 125 56 route 30;
#X msg 252 265 led 0 \$1;
#X obj 252 286 s toPupitreDisjo;
#X obj 252 105 != 1;
#X obj 252 152 b;
#X obj 252 129 metro 2000;
#X obj 261 28 loadbang;
#X msg 261 49 0;
#X connect 1 0 7 0;
#X connect 1 0 22 0;
#X connect 2 0 1 0;
#X connect 2 0 14 0;
#X connect 2 0 21 0;
#X connect 3 0 4 0;
#X connect 4 0 9 0;
#X connect 6 0 5 0;
#X connect 7 0 3 0;
#X connect 8 0 6 0;
#X connect 9 0 8 0;
#X connect 10 0 13 0;
#X connect 11 0 12 0;
#X connect 12 0 13 0;
#X connect 13 0 19 0;
#X connect 14 0 6 1;
#X connect 15 0 17 0;
#X connect 15 0 18 0;
#X connect 16 0 15 0;
#X connect 18 0 2 0;
#X connect 19 0 20 0;
#X connect 21 0 23 0;
#X connect 22 0 10 0;
#X connect 22 0 11 0;
#X connect 23 0 22 0;
#X connect 24 0 25 0;
#X connect 25 0 2 0;
#X restore 735 256 pd alarme;
#X obj 702 28 r toPupitreMaitre;
#X obj 702 49 list prepend toPupitreMaitre;
#X obj 702 130 list trim;
#X obj 702 151 stdout;
#X obj 730 77 r toPupitreDisjo;
#X obj 730 98 list prepend toPupitreDisjo;
#N canvas 211 199 450 466 ventilo 0;
#X obj 93 399 throw~ voiture;
#N canvas 1 423 354 265 band2 0;
#X obj 114 117 nbx 5 14 -1e+37 1e+37 0 1 empty empty empty 0 -8 0 10
-262130 -1 -1 60 256;
#X obj 40 114 mtof;
#X obj 192 118 nbx 4 14 -1e+37 1e+37 0 1 empty empty Q -8 7 0 10 -204786
-1 -1 6 256;
#X obj 192 135 nbx 4 14 0 200 0 1 empty empty dB -12 7 0 10 -261234
-1 -1 31 256;
#X obj 114 134 nbx 5 14 -1e+37 1e+37 0 0 empty empty Hz -12 7 0 10
-262130 -1 -1 261.626 256;
#X obj 36 52 ftom;
#X msg 40 135 set \$1;
#X msg 36 71 set \$1;
#X obj 281 167 switch~;
#X obj 281 128 > 0;
#X obj 281 147 change;
#X obj 89 43 inlet~;
#X obj 181 47 inlet;
#X obj 225 47 inlet;
#X obj 270 47 inlet;
#X obj 88 227 outlet~;
#X obj 313 47 inlet;
#X obj 124 167 m 1;
#X obj 88 189 para_bp2~ 450 10 5 5;
#X connect 0 0 1 0;
#X connect 1 0 6 0;
#X connect 1 0 17 0;
#X connect 2 0 18 2;
#X connect 3 0 9 0;
#X connect 3 0 18 3;
#X connect 4 0 5 0;
#X connect 5 0 7 0;
#X connect 6 0 4 0;
#X connect 7 0 0 0;
#X connect 9 0 10 0;
#X connect 10 0 8 0;
#X connect 11 0 18 0;
#X connect 12 0 0 0;
#X connect 13 0 2 0;
#X connect 14 0 3 0;
#X connect 16 0 17 1;
#X connect 17 0 18 1;
#X connect 18 0 15 0;
#X coords 0 -1 1 1 140 50 1 100 100;
#X restore 249 213 pd band2;
#X obj 93 214 *~;
#X obj 155 166 noise~;
#X obj 155 208 *~ 5;
#X obj 155 229 +~ 1;
#X obj 155 187 lp2_butt~ 200;
#X obj 316 111 mtof;
#X floatatom 316 132 5 0 0 0 - - -, f 5;
#X floatatom 317 68 5 0 0 0 - - -, f 5;
#X obj 316 90 gammeRound GAMME 10;
#X obj 94 129 osc~ 65.4;
#X obj 249 170 noise~;
#X obj 94 42 tgl 15 0 empty empty empty 17 7 0 10 -262144 -1 -1 0 1
;
#X obj 94 83 line;
#X obj 94 104 * 65.4;
#X obj 23 133 osc~ 65.4;
#X obj 23 111 * 4;
#X obj 23 154 *~ 0.1;
#X obj 230 302 * 0.1;
#X obj 93 235 *~ 0.5;
#X msg 94 62 \$1 5000;
#X obj 249 191 lop~ 200;
#X obj 210 37 route sw;
#X obj 210 16 r pupitreDisjo;
#X floatatom 159 75 5 0 0 0 - - -, f 5;
#X obj 210 59 route 2;
#X obj 284 124 tgl 15 0 empty empty empty 17 7 0 10 -262144 -1 -1 0
1;
#X obj 210 80 == 0;
#X obj 210 101 autostop;
#X obj 93 376 *~ 0;
#X connect 1 0 30 0;
#X connect 2 0 20 0;
#X connect 3 0 6 0;
#X connect 4 0 5 0;
#X connect 5 0 2 1;
#X connect 6 0 4 0;
#X connect 7 0 8 0;
#X connect 9 0 10 0;
#X connect 10 0 7 0;
#X connect 11 0 2 0;
#X connect 12 0 22 0;
#X connect 13 0 21 0;
#X connect 14 0 15 0;
#X connect 14 0 19 0;
#X connect 14 0 1 4;
#X connect 15 0 11 0;
#X connect 15 0 17 0;
#X connect 16 0 18 0;
#X connect 17 0 16 0;
#X connect 18 0 2 0;
#X connect 19 0 30 1;
#X connect 20 0 30 0;
#X connect 21 0 14 0;
#X connect 22 0 1 0;
#X connect 23 0 26 0;
#X connect 24 0 23 0;
#X connect 26 0 28 0;
#X connect 28 0 29 0;
#X connect 29 0 13 0;
#X connect 30 0 0 0;
#X restore 736 282 pd ventilo;
#X connect 1 0 4 0;
#X connect 2 0 11 0;
#X connect 4 0 5 0;
#X connect 5 0 0 0;
#X connect 6 0 12 0;
#X connect 7 0 6 0;
#X connect 8 0 6 3;
#X connect 9 0 6 1;
#X connect 11 0 1 0;
#X connect 18 0 13 0;
#X connect 19 0 12 0;
#X connect 20 0 21 0;
#X connect 21 0 22 0;
#X connect 25 0 24 0;
#X connect 26 0 28 0;
#X connect 26 0 32 0;
#X connect 27 0 26 0;
#X connect 29 0 25 0;
#X connect 31 0 6 2;
#X connect 32 0 7 0;
#X connect 32 1 9 0;
#X connect 32 2 31 0;
#X connect 33 0 25 0;
#X connect 34 0 25 0;
#X connect 35 0 24 0;
#X connect 38 0 40 0;
#X connect 40 0 25 0;
#X connect 42 0 43 0;
#X connect 43 0 44 0;
#X connect 44 0 45 0;
#X connect 46 0 47 0;
#X connect 47 0 44 0;
