#N canvas 132 96 737 685 10;
#X declare -stdpath creb;
#X obj 64 34 r trainClock;
#X obj 64 88 ndmetro 9 9;
#X obj 64 188 sel 0 1 3 4;
#X floatatom 100 143 5 0 0 0 - - -, f 5;
#X obj 64 146 + 6;
#X obj 64 167 mod 9;
#X msg 238 196 nd \$1 9;
#X obj 238 132 sel 0;
#X obj 68 500 *~ 0.7;
#X floatatom 179 146 5 0 0 0 - - -, f 5;
#X obj 68 590 throw~ rails;
#X obj 68 553 +~;
#X obj 64 228 b;
#X obj 111 227 b;
#N canvas 651 152 660 526 rail1 0;
#N canvas 1 216 354 265 band2 0;
#X obj 114 117 nbx 5 14 -1e+37 1e+37 0 1 empty empty empty 0 -8 0 10
-262130 -1 -1 63 256;
#X obj 40 114 mtof;
#X obj 192 118 nbx 4 14 -1e+37 1e+37 0 1 empty empty Q -8 7 0 10 -204786
-1 -1 3.79 256;
#X obj 192 135 nbx 4 14 0 200 0 1 empty empty dB -12 7 0 10 -261234
-1 -1 31 256;
#X obj 114 134 nbx 5 14 -1e+37 1e+37 0 0 empty empty Hz -12 7 0 10
-262130 -1 -1 311.127 256;
#X obj 36 52 ftom;
#X msg 40 135 set \$1;
#X msg 36 71 set \$1;
#X obj 281 167 switch~;
#X obj 281 128 > 0;
#X obj 281 147 change;
#X obj 89 43 inlet~;
#X obj 181 47 inlet;
#X obj 225 47 inlet;
#X obj 270 47 inlet;
#X obj 88 227 outlet~;
#X obj 313 47 inlet;
#X obj 88 189 para_bp2~ 450 10 5 5;
#X obj 124 167 m 1;
#X connect 0 0 1 0;
#X connect 1 0 6 0;
#X connect 1 0 18 0;
#X connect 2 0 17 2;
#X connect 3 0 9 0;
#X connect 3 0 17 3;
#X connect 4 0 5 0;
#X connect 5 0 7 0;
#X connect 6 0 4 0;
#X connect 7 0 0 0;
#X connect 9 0 10 0;
#X connect 10 0 8 0;
#X connect 11 0 17 0;
#X connect 12 0 0 0;
#X connect 13 0 2 0;
#X connect 14 0 3 0;
#X connect 16 0 18 1;
#X connect 17 0 15 0;
#X connect 18 0 17 1;
#X coords 0 -1 1 1 140 50 1 100 100;
#X restore 100 241 pd band2;
#X obj 100 313 outlet~;
#N canvas 1 216 354 265 band2 0;
#X obj 114 117 nbx 5 14 -1e+37 1e+37 0 1 empty empty empty 0 -8 0 10
-262130 -1 -1 81.0374 256;
#X obj 40 114 mtof;
#X obj 192 118 nbx 4 14 -1e+37 1e+37 0 1 empty empty Q -8 7 0 10 -204786
-1 -1 11.2 256;
#X obj 192 135 nbx 4 14 0 200 0 1 empty empty dB -12 7 0 10 -261234
-1 -1 32 256;
#X obj 114 134 nbx 5 14 -1e+37 1e+37 0 0 empty empty Hz -12 7 0 10
-262130 -1 -1 881.903 256;
#X obj 36 52 ftom;
#X msg 40 135 set \$1;
#X msg 36 71 set \$1;
#X obj 281 167 switch~;
#X obj 281 128 > 0;
#X obj 281 147 change;
#X obj 89 43 inlet~;
#X obj 181 47 inlet;
#X obj 225 47 inlet;
#X obj 270 47 inlet;
#X obj 88 227 outlet~;
#X obj 313 47 inlet;
#X obj 88 189 para_bp2~ 450 10 5 5;
#X obj 124 167 m 1;
#X connect 0 0 1 0;
#X connect 1 0 6 0;
#X connect 1 0 18 0;
#X connect 2 0 17 2;
#X connect 3 0 9 0;
#X connect 3 0 17 3;
#X connect 4 0 5 0;
#X connect 5 0 7 0;
#X connect 6 0 4 0;
#X connect 7 0 0 0;
#X connect 9 0 10 0;
#X connect 10 0 8 0;
#X connect 11 0 17 0;
#X connect 12 0 0 0;
#X connect 13 0 2 0;
#X connect 14 0 3 0;
#X connect 16 0 18 1;
#X connect 17 0 15 0;
#X connect 18 0 17 1;
#X coords 0 -1 1 1 140 50 1 100 100;
#X restore 247 242 pd band2;
#N canvas 1 216 354 265 band2 0;
#X obj 114 117 nbx 5 14 -1e+37 1e+37 0 1 empty empty empty 0 -8 0 10
-262130 -1 -1 106.037 256;
#X obj 40 114 mtof;
#X obj 192 118 nbx 4 14 -1e+37 1e+37 0 1 empty empty Q -8 7 0 10 -204786
-1 -1 14.2 256;
#X obj 192 135 nbx 4 14 0 200 0 1 empty empty dB -12 7 0 10 -261234
-1 -1 25 256;
#X obj 114 134 nbx 5 14 -1e+37 1e+37 0 0 empty empty Hz -12 7 0 10
-262130 -1 -1 3737.29 256;
#X obj 36 52 ftom;
#X msg 40 135 set \$1;
#X msg 36 71 set \$1;
#X obj 281 167 switch~;
#X obj 281 128 > 0;
#X obj 281 147 change;
#X obj 89 43 inlet~;
#X obj 181 47 inlet;
#X obj 225 47 inlet;
#X obj 270 47 inlet;
#X obj 88 227 outlet~;
#X obj 313 47 inlet;
#X obj 88 189 para_bp2~ 450 10 5 5;
#X obj 124 167 m 1;
#X connect 0 0 1 0;
#X connect 1 0 6 0;
#X connect 1 0 18 0;
#X connect 2 0 17 2;
#X connect 3 0 9 0;
#X connect 3 0 17 3;
#X connect 4 0 5 0;
#X connect 5 0 7 0;
#X connect 6 0 4 0;
#X connect 7 0 0 0;
#X connect 9 0 10 0;
#X connect 10 0 8 0;
#X connect 11 0 17 0;
#X connect 12 0 0 0;
#X connect 13 0 2 0;
#X connect 14 0 3 0;
#X connect 16 0 18 1;
#X connect 17 0 15 0;
#X connect 18 0 17 1;
#X coords 0 -1 1 1 140 50 1 100 100;
#X restore 393 242 pd band2;
#X obj 100 132 inlet~;
#X obj 100 212 +~;
#X connect 0 0 1 0;
#X connect 2 0 1 0;
#X connect 3 0 1 0;
#X connect 4 0 5 0;
#X connect 5 0 0 0;
#X connect 5 0 2 0;
#X connect 5 0 3 0;
#X restore 67 448 pd rail1;
#X obj 367 40 declare -stdpath creb;
#N canvas 1 81 851 574 frottements 0;
#X obj 50 58 noise~;
#N canvas 1 267 354 265 band2 0;
#X obj 114 117 nbx 5 14 -1e+37 1e+37 0 1 empty empty empty 0 -8 0 10
-262130 -1 -1 101.5 256;
#X obj 40 114 mtof;
#X obj 192 118 nbx 4 14 -1e+37 1e+37 0 1 empty empty Q -8 7 0 10 -204786
-1 -1 2.2 256;
#X obj 192 135 nbx 4 14 0 200 0 1 empty empty dB -12 7 0 10 -261234
-1 -1 33 256;
#X obj 114 134 nbx 5 14 -1e+37 1e+37 0 0 empty empty Hz -12 7 0 10
-262130 -1 -1 2875.69 256;
#X obj 36 52 ftom;
#X msg 40 135 set \$1;
#X msg 36 71 set \$1;
#X obj 281 167 switch~;
#X obj 281 128 > 0;
#X obj 281 147 change;
#X obj 89 43 inlet~;
#X obj 181 47 inlet;
#X obj 225 47 inlet;
#X obj 270 47 inlet;
#X obj 88 227 outlet~;
#X obj 313 47 inlet;
#X obj 88 189 para_bp2~ 450 10 5 5;
#X obj 124 167 m 1;
#X connect 0 0 1 0;
#X connect 1 0 6 0;
#X connect 1 0 18 0;
#X connect 2 0 17 2;
#X connect 3 0 9 0;
#X connect 3 0 17 3;
#X connect 4 0 5 0;
#X connect 5 0 7 0;
#X connect 6 0 4 0;
#X connect 7 0 0 0;
#X connect 9 0 10 0;
#X connect 10 0 8 0;
#X connect 11 0 17 0;
#X connect 12 0 0 0;
#X connect 13 0 2 0;
#X connect 14 0 3 0;
#X connect 16 0 18 1;
#X connect 17 0 15 0;
#X connect 18 0 17 1;
#X coords 0 -1 1 1 140 50 1 100 100;
#X restore 371 237 pd band2;
#X obj 543 172 noise~;
#N canvas 1 335 354 265 band2 0;
#X obj 114 117 nbx 5 14 -1e+37 1e+37 0 1 empty empty empty 0 -8 0 10
-262130 -1 -1 10.7249 256;
#X obj 40 114 mtof;
#X obj 192 118 nbx 4 14 -1e+37 1e+37 0 1 empty empty Q -8 7 0 10 -204786
-1 -1 14.75 256;
#X obj 192 135 nbx 4 14 0 200 0 1 empty empty dB -12 7 0 10 -261234
-1 -1 43 256;
#X obj 114 134 nbx 5 14 -1e+37 1e+37 0 0 empty empty Hz -12 7 0 10
-262130 -1 -1 15.1905 256;
#X obj 36 52 ftom;
#X msg 40 135 set \$1;
#X msg 36 71 set \$1;
#X obj 281 167 switch~;
#X obj 281 128 > 0;
#X obj 281 147 change;
#X obj 89 43 inlet~;
#X obj 181 47 inlet;
#X obj 225 47 inlet;
#X obj 270 47 inlet;
#X obj 88 227 outlet~;
#X obj 313 47 inlet;
#X obj 124 167 m 1;
#X obj 88 189 para_bp2~ 450 10 5 5;
#X connect 0 0 1 0;
#X connect 1 0 6 0;
#X connect 1 0 17 0;
#X connect 2 0 18 2;
#X connect 3 0 9 0;
#X connect 3 0 18 3;
#X connect 4 0 5 0;
#X connect 5 0 7 0;
#X connect 6 0 4 0;
#X connect 7 0 0 0;
#X connect 9 0 10 0;
#X connect 10 0 8 0;
#X connect 11 0 18 0;
#X connect 12 0 0 0;
#X connect 13 0 2 0;
#X connect 14 0 3 0;
#X connect 16 0 17 1;
#X connect 17 0 18 1;
#X connect 18 0 15 0;
#X coords 0 -1 1 1 140 50 1 100 100;
#X restore 542 218 pd band2;
#X obj 371 348 *~;
#N canvas 1 267 354 265 band2 0;
#X obj 114 117 nbx 5 14 -1e+37 1e+37 0 1 empty empty empty 0 -8 0 10
-262130 -1 -1 74.397 256;
#X obj 40 114 mtof;
#X obj 192 118 nbx 4 14 -1e+37 1e+37 0 1 empty empty Q -8 7 0 10 -204786
-1 -1 4.2 256;
#X obj 192 135 nbx 4 14 0 200 0 1 empty empty dB -12 7 0 10 -261234
-1 -1 40 256;
#X obj 114 134 nbx 5 14 -1e+37 1e+37 0 0 empty empty Hz -12 7 0 10
-262130 -1 -1 600.954 256;
#X obj 36 52 ftom;
#X msg 40 135 set \$1;
#X msg 36 71 set \$1;
#X obj 281 167 switch~;
#X obj 281 128 > 0;
#X obj 281 147 change;
#X obj 89 43 inlet~;
#X obj 181 47 inlet;
#X obj 225 47 inlet;
#X obj 270 47 inlet;
#X obj 88 227 outlet~;
#X obj 313 47 inlet;
#X obj 88 189 para_bp2~ 450 10 5 5;
#X obj 124 167 m 1;
#X connect 0 0 1 0;
#X connect 1 0 6 0;
#X connect 1 0 18 0;
#X connect 2 0 17 2;
#X connect 3 0 9 0;
#X connect 3 0 17 3;
#X connect 4 0 5 0;
#X connect 5 0 7 0;
#X connect 6 0 4 0;
#X connect 7 0 0 0;
#X connect 9 0 10 0;
#X connect 10 0 8 0;
#X connect 11 0 17 0;
#X connect 12 0 0 0;
#X connect 13 0 2 0;
#X connect 14 0 3 0;
#X connect 16 0 18 1;
#X connect 17 0 15 0;
#X connect 18 0 17 1;
#X coords 0 -1 1 1 140 50 1 100 100;
#X restore 389 170 pd band2;
#N canvas 1 267 354 265 band2 0;
#X obj 114 117 nbx 5 14 -1e+37 1e+37 0 1 empty empty empty 0 -8 0 10
-262130 -1 -1 68.397 256;
#X obj 40 114 mtof;
#X obj 192 118 nbx 4 14 -1e+37 1e+37 0 1 empty empty Q -8 7 0 10 -204786
-1 -1 8.2 256;
#X obj 192 135 nbx 4 14 0 200 0 1 empty empty dB -12 7 0 10 -261234
-1 -1 40 256;
#X obj 114 134 nbx 5 14 -1e+37 1e+37 0 0 empty empty Hz -12 7 0 10
-262130 -1 -1 424.938 256;
#X obj 36 52 ftom;
#X msg 40 135 set \$1;
#X msg 36 71 set \$1;
#X obj 281 167 switch~;
#X obj 281 128 > 0;
#X obj 281 147 change;
#X obj 89 43 inlet~;
#X obj 181 47 inlet;
#X obj 225 47 inlet;
#X obj 270 47 inlet;
#X obj 88 227 outlet~;
#X obj 313 47 inlet;
#X obj 88 189 para_bp2~ 450 10 5 5;
#X obj 124 167 m 1;
#X connect 0 0 1 0;
#X connect 1 0 6 0;
#X connect 1 0 18 0;
#X connect 2 0 17 2;
#X connect 3 0 9 0;
#X connect 3 0 17 3;
#X connect 4 0 5 0;
#X connect 5 0 7 0;
#X connect 6 0 4 0;
#X connect 7 0 0 0;
#X connect 9 0 10 0;
#X connect 10 0 8 0;
#X connect 11 0 17 0;
#X connect 12 0 0 0;
#X connect 13 0 2 0;
#X connect 14 0 3 0;
#X connect 16 0 18 1;
#X connect 17 0 15 0;
#X connect 18 0 17 1;
#X coords 0 -1 1 1 140 50 1 100 100;
#X restore 66 211 pd band2;
#X obj 215 149 noise~;
#N canvas 1 250 354 265 band2 0;
#X obj 114 117 nbx 5 14 -1e+37 1e+37 0 1 empty empty empty 0 -8 0 10
-262130 -1 -1 30.037 256;
#X obj 40 114 mtof;
#X obj 192 118 nbx 4 14 -1e+37 1e+37 0 1 empty empty Q -8 7 0 10 -204786
-1 -1 30.2 256;
#X obj 192 135 nbx 4 14 0 200 0 1 empty empty dB -12 7 0 10 -261234
-1 -1 24 256;
#X obj 114 134 nbx 5 14 -1e+37 1e+37 0 0 empty empty Hz -12 7 0 10
-262130 -1 -1 46.3483 256;
#X obj 36 52 ftom;
#X msg 40 135 set \$1;
#X msg 36 71 set \$1;
#X obj 281 167 switch~;
#X obj 281 128 > 0;
#X obj 281 147 change;
#X obj 89 43 inlet~;
#X obj 181 47 inlet;
#X obj 225 47 inlet;
#X obj 270 47 inlet;
#X obj 88 227 outlet~;
#X obj 313 47 inlet;
#X obj 88 189 para_bp2~ 450 10 5 5;
#X obj 124 167 m 1;
#X connect 0 0 1 0;
#X connect 1 0 6 0;
#X connect 1 0 18 0;
#X connect 2 0 17 2;
#X connect 3 0 9 0;
#X connect 3 0 17 3;
#X connect 4 0 5 0;
#X connect 5 0 7 0;
#X connect 6 0 4 0;
#X connect 7 0 0 0;
#X connect 9 0 10 0;
#X connect 10 0 8 0;
#X connect 11 0 17 0;
#X connect 12 0 0 0;
#X connect 13 0 2 0;
#X connect 14 0 3 0;
#X connect 16 0 18 1;
#X connect 17 0 15 0;
#X connect 18 0 17 1;
#X coords 0 -1 1 1 140 50 1 100 100;
#X restore 214 195 pd band2;
#X obj 214 250 *~ 0.5;
#X obj 214 271 +~ 0.5;
#X obj 215 170 lop~ 300;
#X obj 51 299 *~;
#X obj 689 57 r trainVitesse;
#X obj 50 504 *~, f 107;
#X obj 689 78 / 120;
#N canvas 1 294 354 265 band2 0;
#X obj 114 117 nbx 5 14 -1e+37 1e+37 0 1 empty empty empty 0 -8 0 10
-262130 -1 -1 40.564 256;
#X obj 40 114 mtof;
#X obj 192 118 nbx 4 14 -1e+37 1e+37 0 1 empty empty Q -8 7 0 10 -204786
-1 -1 9.2 256;
#X obj 192 135 nbx 4 14 0 200 0 1 empty empty dB -12 7 0 10 -261234
-1 -1 58 256;
#X obj 114 134 nbx 5 14 -1e+37 1e+37 0 0 empty empty Hz -12 7 0 10
-262130 -1 -1 85.1357 256;
#X obj 36 52 ftom;
#X msg 40 135 set \$1;
#X msg 36 71 set \$1;
#X obj 281 167 switch~;
#X obj 281 128 > 0;
#X obj 281 147 change;
#X obj 89 43 inlet~;
#X obj 181 47 inlet;
#X obj 225 47 inlet;
#X obj 270 47 inlet;
#X obj 88 227 outlet~;
#X obj 313 47 inlet;
#X obj 88 189 para_bp2~ 450 10 5 5;
#X obj 124 167 m 1;
#X connect 0 0 1 0;
#X connect 1 0 6 0;
#X connect 1 0 18 0;
#X connect 2 0 17 2;
#X connect 3 0 9 0;
#X connect 3 0 17 3;
#X connect 4 0 5 0;
#X connect 5 0 7 0;
#X connect 6 0 4 0;
#X connect 7 0 0 0;
#X connect 9 0 10 0;
#X connect 10 0 8 0;
#X connect 11 0 17 0;
#X connect 12 0 0 0;
#X connect 13 0 2 0;
#X connect 14 0 3 0;
#X connect 16 0 18 1;
#X connect 17 0 15 0;
#X connect 18 0 17 1;
#X coords 0 -1 1 1 140 50 1 100 100;
#X restore 51 152 pd band2;
#X obj 51 469 *~;
#X obj 149 58 noise~;
#X obj 50 79 lp2_butt~ 2500;
#X obj 149 79 lp2_butt~ 2500;
#X obj 595 139 * 10;
#X obj 595 160 + 5;
#X obj 543 193 lp2_butt~ 100;
#X obj 542 310 +~ 0.5;
#X obj 542 273 abs~;
#X obj 542 291 *~ 0.3;
#X obj 50 525 outlet~;
#X connect 0 0 19 0;
#X connect 1 0 4 0;
#X connect 2 0 23 0;
#X connect 3 0 25 0;
#X connect 4 0 14 0;
#X connect 5 0 4 0;
#X connect 6 0 12 0;
#X connect 7 0 11 0;
#X connect 8 0 9 0;
#X connect 9 0 10 0;
#X connect 10 0 12 1;
#X connect 11 0 8 0;
#X connect 12 0 17 0;
#X connect 13 0 15 0;
#X connect 14 0 27 0;
#X connect 15 0 14 1;
#X connect 15 0 17 1;
#X connect 15 0 21 0;
#X connect 16 0 12 0;
#X connect 17 0 14 0;
#X connect 18 0 20 0;
#X connect 19 0 1 0;
#X connect 19 0 16 0;
#X connect 20 0 6 0;
#X connect 20 0 5 0;
#X connect 21 0 22 0;
#X connect 22 0 3 1;
#X connect 23 0 3 0;
#X connect 24 0 4 1;
#X connect 25 0 26 0;
#X connect 26 0 24 0;
#X restore 408 369 pd frottements;
#X obj 66 377 _rail_trig;
#X obj 68 354 bng 15 250 50 0 empty empty empty 17 7 0 10 -262144 -1
-1;
#N canvas 258 278 660 526 rail2 0;
#X obj 133 163 noise~;
#N canvas 1 216 354 265 band2 0;
#X obj 114 117 nbx 5 14 -1e+37 1e+37 0 1 empty empty empty 0 -8 0 10
-262130 -1 -1 53 256;
#X obj 40 114 mtof;
#X obj 192 118 nbx 4 14 -1e+37 1e+37 0 1 empty empty Q -8 7 0 10 -204786
-1 -1 1.2 256;
#X obj 192 135 nbx 4 14 0 200 0 1 empty empty dB -12 7 0 10 -261234
-1 -1 33 256;
#X obj 114 134 nbx 5 14 -1e+37 1e+37 0 0 empty empty Hz -12 7 0 10
-262130 -1 -1 174.614 256;
#X obj 36 52 ftom;
#X msg 40 135 set \$1;
#X msg 36 71 set \$1;
#X obj 281 167 switch~;
#X obj 281 128 > 0;
#X obj 281 147 change;
#X obj 89 43 inlet~;
#X obj 181 47 inlet;
#X obj 225 47 inlet;
#X obj 270 47 inlet;
#X obj 88 227 outlet~;
#X obj 313 47 inlet;
#X obj 88 189 para_bp2~ 450 10 5 5;
#X obj 124 167 m 1;
#X connect 0 0 1 0;
#X connect 1 0 6 0;
#X connect 1 0 18 0;
#X connect 2 0 17 2;
#X connect 3 0 9 0;
#X connect 3 0 17 3;
#X connect 4 0 5 0;
#X connect 5 0 7 0;
#X connect 6 0 4 0;
#X connect 7 0 0 0;
#X connect 9 0 10 0;
#X connect 10 0 8 0;
#X connect 11 0 17 0;
#X connect 12 0 0 0;
#X connect 13 0 2 0;
#X connect 14 0 3 0;
#X connect 16 0 18 1;
#X connect 17 0 15 0;
#X connect 18 0 17 1;
#X coords 0 -1 1 1 140 50 1 100 100;
#X restore 100 241 pd band2;
#X obj 100 313 outlet~;
#N canvas 1 216 354 265 band2 0;
#X obj 114 117 nbx 5 14 -1e+37 1e+37 0 1 empty empty empty 0 -8 0 10
-262130 -1 -1 80.0374 256;
#X obj 40 114 mtof;
#X obj 192 118 nbx 4 14 -1e+37 1e+37 0 1 empty empty Q -8 7 0 10 -204786
-1 -1 9.2 256;
#X obj 192 135 nbx 4 14 0 200 0 1 empty empty dB -12 7 0 10 -261234
-1 -1 36 256;
#X obj 114 134 nbx 5 14 -1e+37 1e+37 0 0 empty empty Hz -12 7 0 10
-262130 -1 -1 832.406 256;
#X obj 36 52 ftom;
#X msg 40 135 set \$1;
#X msg 36 71 set \$1;
#X obj 281 167 switch~;
#X obj 281 128 > 0;
#X obj 281 147 change;
#X obj 89 43 inlet~;
#X obj 181 47 inlet;
#X obj 225 47 inlet;
#X obj 270 47 inlet;
#X obj 88 227 outlet~;
#X obj 313 47 inlet;
#X obj 88 189 para_bp2~ 450 10 5 5;
#X obj 124 167 m 1;
#X connect 0 0 1 0;
#X connect 1 0 6 0;
#X connect 1 0 18 0;
#X connect 2 0 17 2;
#X connect 3 0 9 0;
#X connect 3 0 17 3;
#X connect 4 0 5 0;
#X connect 5 0 7 0;
#X connect 6 0 4 0;
#X connect 7 0 0 0;
#X connect 9 0 10 0;
#X connect 10 0 8 0;
#X connect 11 0 17 0;
#X connect 12 0 0 0;
#X connect 13 0 2 0;
#X connect 14 0 3 0;
#X connect 16 0 18 1;
#X connect 17 0 15 0;
#X connect 18 0 17 1;
#X coords 0 -1 1 1 140 50 1 100 100;
#X restore 247 242 pd band2;
#N canvas 1 216 354 265 band2 0;
#X obj 114 117 nbx 5 14 -1e+37 1e+37 0 1 empty empty empty 0 -8 0 10
-262130 -1 -1 93.037 256;
#X obj 40 114 mtof;
#X obj 192 118 nbx 4 14 -1e+37 1e+37 0 1 empty empty Q -8 7 0 10 -204786
-1 -1 4.2 256;
#X obj 192 135 nbx 4 14 0 200 0 1 empty empty dB -12 7 0 10 -261234
-1 -1 26 256;
#X obj 114 134 nbx 5 14 -1e+37 1e+37 0 0 empty empty Hz -12 7 0 10
-262130 -1 -1 1763.77 256;
#X obj 36 52 ftom;
#X msg 40 135 set \$1;
#X msg 36 71 set \$1;
#X obj 281 167 switch~;
#X obj 281 128 > 0;
#X obj 281 147 change;
#X obj 89 43 inlet~;
#X obj 181 47 inlet;
#X obj 225 47 inlet;
#X obj 270 47 inlet;
#X obj 88 227 outlet~;
#X obj 313 47 inlet;
#X obj 88 189 para_bp2~ 450 10 5 5;
#X obj 124 167 m 1;
#X connect 0 0 1 0;
#X connect 1 0 6 0;
#X connect 1 0 18 0;
#X connect 2 0 17 2;
#X connect 3 0 9 0;
#X connect 3 0 17 3;
#X connect 4 0 5 0;
#X connect 5 0 7 0;
#X connect 6 0 4 0;
#X connect 7 0 0 0;
#X connect 9 0 10 0;
#X connect 10 0 8 0;
#X connect 11 0 17 0;
#X connect 12 0 0 0;
#X connect 13 0 2 0;
#X connect 14 0 3 0;
#X connect 16 0 18 1;
#X connect 17 0 15 0;
#X connect 18 0 17 1;
#X coords 0 -1 1 1 140 50 1 100 100;
#X restore 393 242 pd band2;
#X obj 133 184 lop~ 1200;
#X obj 101 120 inlet~;
#X obj 100 212 +~;
#X connect 0 0 5 0;
#X connect 1 0 2 0;
#X connect 3 0 2 0;
#X connect 4 0 2 0;
#X connect 6 0 7 0;
#X connect 7 0 1 0;
#X connect 7 0 3 0;
#X connect 7 0 4 0;
#X restore 203 454 pd rail2;
#X obj 201 356 bng 15 250 50 0 empty empty empty 17 7 0 10 -262144
-1 -1;
#X obj 273 336 bng 15 250 50 0 empty empty empty 17 7 0 10 -262144
-1 -1;
#X obj 202 400 *~;
#X obj 217 281 noise~;
#X obj 274 380 *~;
#X obj 66 425 *~;
#X obj 132 330 bng 15 250 50 0 empty empty empty 17 7 0 10 -262144
-1 -1;
#X obj 133 374 *~;
#X obj 201 379 _rail_trig;
#X obj 273 359 _rail_trig;
#X obj 132 353 _rail_trig;
#X obj 218 305 lop~ 1000;
#X obj 409 391 *~ 0.07;
#X obj 424 185 ndmetro 9 9;
#X obj 424 248 sel 0 1 3 4;
#X floatatom 460 203 5 0 0 0 - - -, f 5;
#X obj 424 206 + 6;
#X obj 424 228 mod 9;
#X obj 424 288 b;
#X obj 471 287 b;
#X msg 424 106 -1;
#X obj 469 103 unpack f f;
#X obj 469 145 pack f f;
#X floatatom 253 250 5 0 0 0 - - -, f 5;
#X floatatom 517 182 5 0 0 0 - - -, f 5;
#X obj 429 322 bng 15 250 50 0 empty empty empty 17 7 0 10 -262144
-1 -1;
#X floatatom 304 262 5 0 0 0 - - -, f 5;
#X obj 239 89 bng 15 250 50 0 empty empty empty 17 7 0 10 -262144 -1
-1;
#X obj 545 143 print;
#X obj 424 85 route -1;
#X obj 133 395 lop~ 800;
#X obj 274 401 lop~ 900;
#X obj 134 416 *~ 0.8;
#X obj 275 422 *~ 0.8;
#X obj 238 111 random 5;
#X obj 184 115 sel 0;
#X msg 343 210 14;
#X obj 302 67 r trainVitesse;
#X obj 302 89 / 120;
#X obj 238 173 + 9;
#X obj 238 153 random 9;
#X obj 302 155 + 9;
#X obj 302 176 i;
#X floatatom 371 123 5 0 0 0 - - -, f 5;
#X obj 277 91 bng 15 250 50 0 empty empty empty 17 7 0 10 -262144 -1
-1;
#X obj 302 132 * 16;
#X obj 184 95 change;
#X obj 469 124 - 3.2;
#X floatatom 20 169 5 0 0 0 - - -, f 5;
#X obj 427 520 sel 0;
#X obj 427 444 b;
#X obj 427 540 _rail_trig;
#X obj 427 465 spigot;
#X obj 463 445 tgl 15 0 empty empty empty 17 7 0 10 -262144 -1 -1 0
1;
#X obj 501 522 sel 0;
#X obj 501 544 _rail_trig;
#X obj 427 499 random 4;
#X obj 501 501 random 5;
#X obj 527 435 noise~;
#X obj 427 561 *~;
#X obj 501 564 *~;
#X obj 528 459 lop~ 2000;
#X obj 427 601 *~ 2;
#X obj 501 603 *~ 1.5;
#X obj 463 414 r aiguillage;
#X obj 577 522 sel 0;
#X obj 577 542 _rail_trig;
#X obj 651 524 sel 0;
#X obj 651 546 _rail_trig;
#X obj 577 501 random 4;
#X obj 651 503 random 5;
#X obj 577 563 *~;
#X obj 651 566 *~;
#X obj 573 646 *~ 2;
#X obj 646 627 lop~ 900;
#X obj 647 648 *~ 1;
#X obj 580 627 lop~ 900;
#X connect 0 0 1 0;
#X connect 0 0 49 0;
#X connect 1 0 4 0;
#X connect 1 0 66 0;
#X connect 1 0 70 0;
#X connect 2 0 12 0;
#X connect 2 1 12 0;
#X connect 2 2 12 0;
#X connect 2 3 13 0;
#X connect 3 0 4 1;
#X connect 4 0 5 0;
#X connect 5 0 2 0;
#X connect 6 0 1 0;
#X connect 6 0 33 0;
#X connect 7 0 60 0;
#X connect 8 0 11 0;
#X connect 11 0 10 0;
#X connect 12 0 17 0;
#X connect 13 0 28 0;
#X connect 14 0 8 0;
#X connect 16 0 32 0;
#X connect 17 0 25 0;
#X connect 18 0 17 0;
#X connect 19 0 8 0;
#X connect 20 0 28 0;
#X connect 21 0 29 0;
#X connect 22 0 19 0;
#X connect 23 0 31 0;
#X connect 24 0 51 0;
#X connect 25 0 14 0;
#X connect 26 0 30 0;
#X connect 27 0 50 0;
#X connect 28 0 22 0;
#X connect 29 0 24 0;
#X connect 30 0 27 0;
#X connect 31 0 22 1;
#X connect 31 0 24 1;
#X connect 31 0 25 1;
#X connect 31 0 27 1;
#X connect 32 0 11 0;
#X connect 33 0 36 0;
#X connect 34 0 38 0;
#X connect 34 1 38 0;
#X connect 34 2 38 0;
#X connect 34 3 39 0;
#X connect 35 0 36 1;
#X connect 36 0 37 0;
#X connect 37 0 34 0;
#X connect 38 0 30 0;
#X connect 39 0 29 0;
#X connect 40 0 33 0;
#X connect 41 0 67 0;
#X connect 41 1 42 1;
#X connect 42 0 33 0;
#X connect 47 0 54 0;
#X connect 49 0 40 0;
#X connect 49 1 41 0;
#X connect 50 0 52 0;
#X connect 51 0 53 0;
#X connect 52 0 14 0;
#X connect 53 0 19 0;
#X connect 54 0 7 0;
#X connect 55 0 47 0;
#X connect 56 0 59 0;
#X connect 57 0 58 0;
#X connect 58 0 65 0;
#X connect 59 0 6 0;
#X connect 59 0 5 1;
#X connect 59 0 37 1;
#X connect 59 0 43 0;
#X connect 60 0 9 0;
#X connect 60 0 59 0;
#X connect 61 0 62 0;
#X connect 62 0 59 1;
#X connect 62 0 46 0;
#X connect 64 0 60 0;
#X connect 65 0 60 1;
#X connect 65 0 61 0;
#X connect 66 0 55 0;
#X connect 67 0 42 0;
#X connect 69 0 71 0;
#X connect 70 0 72 0;
#X connect 71 0 79 0;
#X connect 72 0 76 0;
#X connect 72 0 77 0;
#X connect 72 0 89 0;
#X connect 72 0 90 0;
#X connect 73 0 72 1;
#X connect 74 0 75 0;
#X connect 75 0 80 0;
#X connect 76 0 69 0;
#X connect 77 0 74 0;
#X connect 78 0 81 0;
#X connect 79 0 82 0;
#X connect 80 0 83 0;
#X connect 81 0 79 1;
#X connect 81 0 80 1;
#X connect 81 0 91 1;
#X connect 81 0 92 1;
#X connect 82 0 14 0;
#X connect 83 0 19 0;
#X connect 84 0 73 0;
#X connect 85 0 86 0;
#X connect 86 0 91 0;
#X connect 87 0 88 0;
#X connect 88 0 92 0;
#X connect 89 0 85 0;
#X connect 90 0 87 0;
#X connect 91 0 50 0;
#X connect 92 0 51 0;
#X connect 94 0 95 0;
