#N canvas 1 81 720 498 10;
#X obj 239 377 *~;
#X obj 26 437 outlet~;
#X obj 241 42 inlet;
#X obj 516 166 line~;
#X obj 516 356 mtof;
#X floatatom 516 377 5 0 0 0 - - -, f 5;
#X msg 508 317 66;
#X msg 546 316 77;
#X obj 25 46 noise~;
#X obj 27 250 *~;
#X obj 56 224 vline~;
#X obj 56 179 sel 0 1;
#X obj 241 63 sel 0 1;
#X obj 241 147 line~;
#X obj 277 274 osc~ 370;
#X obj 398 273 osc~ 370;
#X obj 399 252 *~ 0.5005;
#X obj 398 294 *~ 0.1;
#X obj 26 405 lop~ 2000;
#X obj 26 149 *~ 0.5;
#X obj 241 190 +~ 355;
#X obj 404 35 loadbang;
#X obj 404 56 f \$1;
#X obj 465 35 inlet;
#X obj 404 77 mtof;
#X obj 506 37 loadbang;
#X obj 567 37 inlet;
#X obj 506 58 f \$2;
#X msg 561 141 1 150;
#X obj 364 43 bng 15 250 50 0 empty empty empty 17 7 0 10 -262144 -1
-1;
#X obj 26 384 +~;
#X obj 240 252 osc~;
#X obj 277 295 *~ 0.4;
#X obj 368 146 noise~;
#X obj 368 167 lop~ 10;
#X obj 278 253 *~ 1.999;
#X obj 338 274 osc~ 370;
#X obj 338 295 *~ 0.2;
#X obj 339 253 *~ 2.999;
#X obj 241 169 *~ 40;
#X obj 288 169 - 40;
#X msg 241 124 0 300;
#X msg 286 122 0 \, 1 250;
#X msg 516 144 0 250;
#X msg 56 203 0 100;
#X msg 97 202 1 10 \, 0.15 200 12;
#X obj 25 67 bp~ 6000 2;
#X obj 25 88 hip~ 200;
#X obj 368 188 *~ 100;
#X obj 422 168 lop~ 200;
#X obj 403 119 line;
#X msg 403 98 \$1 90;
#X connect 0 0 30 0;
#X connect 2 0 11 0;
#X connect 2 0 12 0;
#X connect 3 0 0 1;
#X connect 4 0 5 0;
#X connect 6 0 4 0;
#X connect 7 0 4 0;
#X connect 8 0 46 0;
#X connect 9 0 30 0;
#X connect 10 0 9 1;
#X connect 11 0 44 0;
#X connect 11 1 45 0;
#X connect 12 0 43 0;
#X connect 12 0 41 0;
#X connect 12 1 28 0;
#X connect 12 1 42 0;
#X connect 13 0 39 0;
#X connect 14 0 32 0;
#X connect 15 0 17 0;
#X connect 16 0 15 0;
#X connect 17 0 0 0;
#X connect 18 0 1 0;
#X connect 19 0 9 0;
#X connect 20 0 16 0;
#X connect 20 0 31 0;
#X connect 20 0 35 0;
#X connect 20 0 38 0;
#X connect 21 0 22 0;
#X connect 22 0 24 0;
#X connect 23 0 22 0;
#X connect 24 0 51 0;
#X connect 25 0 27 0;
#X connect 26 0 27 0;
#X connect 28 0 3 0;
#X connect 29 0 22 0;
#X connect 30 0 18 0;
#X connect 31 0 0 0;
#X connect 33 0 34 0;
#X connect 33 0 49 0;
#X connect 34 0 48 0;
#X connect 35 0 14 0;
#X connect 36 0 37 0;
#X connect 37 0 0 0;
#X connect 38 0 36 0;
#X connect 39 0 20 0;
#X connect 40 0 20 1;
#X connect 41 0 13 0;
#X connect 42 0 13 0;
#X connect 43 0 3 0;
#X connect 44 0 10 0;
#X connect 45 0 10 0;
#X connect 46 0 47 0;
#X connect 47 0 19 0;
#X connect 48 0 20 0;
#X connect 49 0 48 0;
#X connect 50 0 40 0;
#X connect 51 0 50 0;
