#N canvas 246 178 489 684 10;
#X obj 24 14 inlet~;
#X obj 29 548 vd~ \$0-d;
#X obj 24 89 *~;
#X obj 43 148 r trainLine;
#X obj 239 167 r trainLine;
#X obj 224 192 +;
#X obj 224 213 pack f f;
#X obj 29 603 throw~ \$1L;
#X obj 128 607 throw~ \$1R;
#X obj 28 171 -;
#X obj 224 235 unpack f f;
#X obj 281 258 t f f;
#X obj 281 279 *, f 5;
#X obj 28 389 +;
#X obj 28 409 sqrt;
#X msg 168 206 1 \$1;
#X obj 168 227 /;
#X obj 28 525 line~;
#X obj 224 11 inlet set;
#X obj 224 117 pack f f f f;
#X msg 293 84 0;
#X obj 224 140 unpack f f f f;
#X obj 224 32 t a b;
#X text 290 12 x [y [width [speed]]];
#X obj 28 347 t f f;
#X obj 28 367 *, f 5;
#X obj 67 193 t f f;
#X obj 67 213 *, f 5;
#X obj 224 306 pack f f, f 19;
#X obj 224 327 unpack f f;
#X obj 224 348 t f f;
#X obj 251 370 +;
#X obj 224 396 pack f f;
#X obj 224 438 line;
#X obj 266 349 * 1000;
#X msg 224 418 \$1 \, \$2 1e+06;
#X obj 28 195 t f f;
#X obj 28 215 *, f 5;
#X obj 28 234 +, f 7;
#X obj 28 255 sqrt;
#X obj 28 276 -, f 10;
#X obj 67 171 * 1;
#X obj 269 191 max 0.02;
#X obj 168 184 max 1;
#X obj 84 13 * 16000;
#X obj 100 365 t f f;
#X obj 142 372 * -1;
#X obj 142 393 max 0;
#X obj 142 414 + 1;
#X msg 142 435 1 \$1;
#X obj 142 456 /;
#X obj 100 388 max 0;
#X obj 100 409 + 1;
#X msg 100 430 1 \$1;
#X obj 100 451 /;
#X obj 28 583 *~;
#X obj 127 582 *~;
#X obj 100 549 line~;
#X msg 100 528 \$1 50;
#X obj 142 550 line~;
#X msg 142 529 \$1 50;
#X obj 168 248 pow 2;
#X obj 100 344 *, f 7;
#X obj 100 319 pow 2;
#X obj 139 320 * 50;
#X obj 100 299 * 1;
#X obj 168 162 * 2;
#X obj 28 453 + 50;
#X obj 28 432 * 30;
#X msg 28 504 \$1 50;
#X obj 290 551 outlet;
#X obj 24 112 delwrite~ \$0-d 300;
#X obj 28 474 clip 1 300;
#X floatatom 5 628 8 0 0 0 - - -, f 8;
#X obj 100 508 *;
#X obj 154 481 t b f;
#X obj 142 509 *;
#X obj 318 448 line;
#X obj 224 51 t b l;
#X obj 224 93 list;
#X obj 224 72 del 50;
#X msg 318 427 0 \, 1 200;
#X obj 25 63 hip~ 30;
#X msg 379 389 0;
#X obj 25 38 lp2_butt~ 3000 200;
#X connect 0 0 84 0;
#X connect 1 0 55 0;
#X connect 1 0 56 0;
#X connect 2 0 71 0;
#X connect 3 0 9 1;
#X connect 4 0 5 1;
#X connect 5 0 6 0;
#X connect 6 0 10 0;
#X connect 9 0 36 0;
#X connect 10 0 28 0;
#X connect 10 1 11 0;
#X connect 11 0 12 0;
#X connect 11 1 12 1;
#X connect 12 0 13 1;
#X connect 13 0 14 0;
#X connect 14 0 66 0;
#X connect 14 0 68 0;
#X connect 15 0 16 0;
#X connect 16 0 61 0;
#X connect 17 0 1 0;
#X connect 18 0 22 0;
#X connect 19 0 21 0;
#X connect 20 0 19 2;
#X connect 20 0 19 3;
#X connect 20 0 19 1;
#X connect 21 0 5 0;
#X connect 21 1 42 0;
#X connect 21 2 41 0;
#X connect 21 3 28 1;
#X connect 22 0 78 0;
#X connect 22 1 20 0;
#X connect 22 1 81 0;
#X connect 24 0 25 0;
#X connect 24 1 25 1;
#X connect 25 0 13 0;
#X connect 26 0 27 0;
#X connect 26 1 27 1;
#X connect 27 0 38 1;
#X connect 28 0 29 0;
#X connect 29 0 30 0;
#X connect 29 1 34 0;
#X connect 30 0 32 0;
#X connect 30 1 31 0;
#X connect 31 0 32 1;
#X connect 32 0 35 0;
#X connect 33 0 9 0;
#X connect 34 0 31 1;
#X connect 35 0 33 0;
#X connect 36 0 37 0;
#X connect 36 1 37 1;
#X connect 36 1 64 0;
#X connect 37 0 38 0;
#X connect 38 0 39 0;
#X connect 39 0 40 0;
#X connect 40 0 24 0;
#X connect 40 0 65 0;
#X connect 41 0 26 0;
#X connect 41 0 40 1;
#X connect 42 0 6 1;
#X connect 43 0 15 0;
#X connect 44 0 84 1;
#X connect 45 0 51 0;
#X connect 45 1 46 0;
#X connect 46 0 47 0;
#X connect 47 0 48 0;
#X connect 48 0 49 0;
#X connect 49 0 50 0;
#X connect 50 0 76 0;
#X connect 51 0 52 0;
#X connect 52 0 53 0;
#X connect 53 0 54 0;
#X connect 54 0 74 0;
#X connect 55 0 7 0;
#X connect 56 0 8 0;
#X connect 57 0 55 1;
#X connect 58 0 57 0;
#X connect 59 0 56 1;
#X connect 60 0 59 0;
#X connect 61 0 2 1;
#X connect 61 0 44 0;
#X connect 62 0 45 0;
#X connect 62 0 70 0;
#X connect 63 0 62 0;
#X connect 64 0 62 1;
#X connect 65 0 63 0;
#X connect 66 0 43 0;
#X connect 67 0 72 0;
#X connect 68 0 67 0;
#X connect 69 0 17 0;
#X connect 72 0 69 0;
#X connect 74 0 58 0;
#X connect 75 0 74 0;
#X connect 75 0 76 0;
#X connect 75 1 74 1;
#X connect 75 1 76 1;
#X connect 76 0 60 0;
#X connect 77 0 75 0;
#X connect 78 0 80 0;
#X connect 78 1 79 1;
#X connect 79 0 19 0;
#X connect 80 0 79 0;
#X connect 81 0 77 0;
#X connect 82 0 2 0;
#X connect 83 0 77 0;
#X connect 84 0 82 0;
