#N canvas 135 304 611 521 10;
#X floatatom 129 67 5 0 400 0 - - -, f 5;
#X obj 260 252 bng 15 250 50 0 empty empty empty 17 7 0 10 -262144
-1 -1;
#X obj 129 47 r trainVitesse;
#X floatatom 129 85 5 0 400 0 - - -, f 5;
#X obj 129 103 s trainVitesse;
#X obj 331 122 r trainClock;
#X obj 364 271 unpack f f;
#X obj 364 292 t f f;
#X obj 364 361 pack f f f;
#X msg 364 382 \$1 \, \$2 \$3;
#X msg 288 252 stop;
#X obj 391 312 + 1000;
#X obj 443 312 * 1000;
#X floatatom 447 365 5 0 0 0 - - -, f 5;
#X obj 364 194 ndmetro 1e+06 1;
#X obj 331 143 t a a a;
#X obj 364 247 pack f f;
#X obj 375 164 unpack f f;
#X obj 288 209 route float;
#X obj 288 231 route -1;
#X obj 364 403 line;
#X obj 364 427 s trainLine;
#X obj 24 340 ndmetro 1e+06 1;
#X msg 24 214 bang \, -1;
#X obj 86 234 /;
#X obj 24 186 sel 0;
#X obj 24 146 max 0;
#X obj 86 277 pack f f;
#X msg 86 298 \$2 \$1;
#X obj 86 255 t f b;
#X msg 86 213 60000 \$1;
#X obj 164 342 s trainClock;
#X obj 24 125 r trainVitesse;
#X obj 24 167 change -1;
#X msg 109 174 1;
#X msg 184 224 0 60000;
#X msg 193 253 1 60000;
#X obj 190 439 print;
#X obj 187 412 bng 15 250 50 0 empty empty empty 17 7 0 10 -262144
-1 -1;
#X obj 433 97 unpack f f;
#X connect 2 0 0 0;
#X connect 3 0 4 0;
#X connect 5 0 15 0;
#X connect 6 0 7 0;
#X connect 6 1 12 0;
#X connect 7 0 8 0;
#X connect 7 1 11 0;
#X connect 8 0 9 0;
#X connect 9 0 20 0;
#X connect 10 0 20 0;
#X connect 11 0 8 1;
#X connect 12 0 8 2;
#X connect 14 0 16 0;
#X connect 14 1 16 0;
#X connect 15 0 18 0;
#X connect 15 1 14 0;
#X connect 15 2 17 0;
#X connect 16 0 6 0;
#X connect 17 1 16 1;
#X connect 18 0 19 0;
#X connect 19 0 10 0;
#X connect 20 0 21 0;
#X connect 22 1 27 1;
#X connect 23 0 22 0;
#X connect 23 0 31 0;
#X connect 24 0 29 0;
#X connect 25 0 23 0;
#X connect 25 1 30 0;
#X connect 26 0 33 0;
#X connect 27 0 28 0;
#X connect 28 0 22 0;
#X connect 28 0 31 0;
#X connect 29 0 27 0;
#X connect 29 1 22 0;
#X connect 30 0 24 0;
#X connect 32 0 26 0;
#X connect 33 0 25 0;
#X connect 34 0 30 0;
#X connect 35 0 31 0;
#X connect 36 0 31 0;
#X connect 38 0 37 0;
