#N canvas 221 380 390 426 10;
#X obj 51 234 outlet~;
#X obj 50 0 inlet;
#X msg 103 186 stop \, open \$1;
#X msg 50 62 start;
#X obj 132 68 loadbang;
#X obj 50 87 readsfv~ 2;
#X obj 130 45 bng 15 250 50 0 empty empty empty 17 7 0 10 -262144 -1
-1;
#X obj 200 43 init \$2;
#X obj 200 68 sel 0;
#X obj 227 94 f;
#X obj 306 7 inlet speed;
#X obj 206 9 inlet file;
#X msg 227 115 speed \$1;
#X msg 200 88 1;
#X obj 107 109 t b b;
#X obj 134 134 del 1;
#X obj 103 165 symbol ~/Datas/sons-train1/\$1.wav;
#X connect 1 0 3 0;
#X connect 2 0 5 0;
#X connect 3 0 5 0;
#X connect 4 0 14 0;
#X connect 5 0 0 0;
#X connect 5 1 0 0;
#X connect 5 2 14 0;
#X connect 6 0 14 0;
#X connect 7 0 8 0;
#X connect 8 0 13 0;
#X connect 8 1 9 0;
#X connect 9 0 12 0;
#X connect 10 0 9 0;
#X connect 11 0 16 1;
#X connect 12 0 5 0;
#X connect 13 0 9 0;
#X connect 14 0 9 0;
#X connect 14 1 15 0;
#X connect 15 0 16 0;
#X connect 16 0 2 0;
