#N canvas 674 149 590 686 8;
#X obj 116 61 inlet;
#X obj 217 630 outlet;
#X msg 116 83 1023 \$1;
#X obj 116 104 /;
#X obj 116 125 - 1;
#X obj 116 167 t b f;
#X obj 167 168 t b f;
#X msg 167 190 1;
#X msg 116 190 0;
#X obj 194 241 t b f;
#X obj 245 242 t b f;
#X msg 245 264 1;
#X msg 194 264 0;
#X obj 116 456 pack f f f f;
#X obj 272 311 t b f;
#X obj 323 312 t b f;
#X msg 323 334 1;
#X msg 272 334 0;
#X obj 350 385 t b f;
#X obj 407 386 t b f;
#X msg 407 408 1;
#X msg 350 408 0;
#X obj 116 478 unpack f f f f, f 51;
#X obj 116 147 moses 0.9;
#X obj 194 220 moses 0.4;
#X obj 272 290 moses 0.2;
#X obj 350 364 moses 0.08;
#X obj 194 190 - 0.99;
#X obj 272 264 - 0.461;
#X obj 350 334 - 0.216;
#X obj 167 55 list prepend \$1 \$2 \$3 \$4;
#X obj 167 76 unpack f f f f;
#X obj 167 104 t f f;
#X obj 167 125 * 0.92;
#X obj 245 178 t f f;
#X obj 245 199 * 0.92;
#X obj 323 242 t f f;
#X obj 323 263 * 0.92;
#X obj 407 315 t f f;
#X obj 407 336 * 0.92;
#X obj 167 34 loadbang;
#X obj 12 665 tgl 15 0 empty empty empty 17 7 0 10 -262144 -1 -1 1
1;
#X obj 34 644 spigot;
#X floatatom 34 665 5 0 0 0 - - -, f 5;
#X msg 116 521 3 \$1;
#X msg 217 521 2 \$1;
#X msg 318 521 1 \$1;
#X msg 419 521 0 \$1;
#X obj 77 665 tgl 15 0 empty empty 0 4 8 0 10 -228856 -1 -1 0 1;
#X obj 96 665 tgl 15 0 empty empty 1 4 8 0 10 -228856 -1 -1 0 1;
#X obj 115 665 tgl 15 0 empty empty 2 4 8 0 10 -228856 -1 -1 0 1;
#X obj 134 665 tgl 15 0 empty empty 3 4 8 0 10 -228856 -1 -1 0 1;
#X obj 77 636 route 0 1 2 3;
#X obj 77 616 spigot;
#X obj 116 500 debounce 80 80;
#X obj 217 500 debounce 80 80;
#X obj 318 500 debounce 80 80;
#X obj 419 500 debounce 80 80;
#X connect 0 0 2 0;
#X connect 2 0 3 0;
#X connect 3 0 4 0;
#X connect 4 0 23 0;
#X connect 4 0 42 0;
#X connect 5 0 8 0;
#X connect 5 1 24 0;
#X connect 6 0 7 0;
#X connect 6 1 27 0;
#X connect 7 0 13 0;
#X connect 8 0 13 0;
#X connect 9 0 12 0;
#X connect 9 1 25 0;
#X connect 10 0 11 0;
#X connect 10 1 28 0;
#X connect 11 0 13 1;
#X connect 12 0 13 1;
#X connect 13 0 22 0;
#X connect 14 0 17 0;
#X connect 14 1 26 0;
#X connect 15 0 16 0;
#X connect 15 1 29 0;
#X connect 16 0 13 2;
#X connect 17 0 13 2;
#X connect 18 0 21 0;
#X connect 19 0 20 0;
#X connect 20 0 13 3;
#X connect 21 0 13 3;
#X connect 22 0 54 0;
#X connect 22 1 55 0;
#X connect 22 2 56 0;
#X connect 22 3 57 0;
#X connect 23 0 5 0;
#X connect 23 1 6 0;
#X connect 24 0 9 0;
#X connect 24 1 10 0;
#X connect 25 0 14 0;
#X connect 25 1 15 0;
#X connect 26 0 18 0;
#X connect 26 1 19 0;
#X connect 27 0 24 0;
#X connect 28 0 25 0;
#X connect 29 0 26 0;
#X connect 30 0 31 0;
#X connect 31 0 32 0;
#X connect 31 1 34 0;
#X connect 31 2 36 0;
#X connect 31 3 38 0;
#X connect 32 0 33 0;
#X connect 32 1 27 1;
#X connect 33 0 23 1;
#X connect 34 0 35 0;
#X connect 34 1 28 1;
#X connect 35 0 24 1;
#X connect 36 0 37 0;
#X connect 36 1 29 1;
#X connect 37 0 25 1;
#X connect 38 0 39 0;
#X connect 39 0 26 1;
#X connect 40 0 30 0;
#X connect 41 0 42 1;
#X connect 41 0 53 1;
#X connect 42 0 43 0;
#X connect 44 0 1 0;
#X connect 44 0 53 0;
#X connect 45 0 1 0;
#X connect 45 0 53 0;
#X connect 46 0 1 0;
#X connect 46 0 53 0;
#X connect 47 0 1 0;
#X connect 47 0 53 0;
#X connect 52 0 48 0;
#X connect 52 1 49 0;
#X connect 52 2 50 0;
#X connect 52 3 51 0;
#X connect 53 0 52 0;
#X connect 54 0 44 0;
#X connect 55 0 45 0;
#X connect 56 0 46 0;
#X connect 57 0 47 0;
#X coords 0 -1 1 1 150 32 1 10 650;
