#N canvas 1 81 450 300 10;
#X obj 139 34 inlet;
#X obj 139 60 change;
#X obj 139 81 sel 0 1, f 21;
#X msg 154 105 stop;
#X msg 209 105 stop;
#X obj 139 130 del \$1;
#X obj 200 130 del \$2;
#X msg 139 151 0;
#X msg 200 151 1;
#X obj 139 172 change;
#X obj 139 193 outlet;
#X connect 0 0 1 0;
#X connect 1 0 2 0;
#X connect 2 0 3 0;
#X connect 2 0 5 0;
#X connect 2 1 4 0;
#X connect 2 1 6 0;
#X connect 3 0 6 0;
#X connect 4 0 5 0;
#X connect 5 0 7 0;
#X connect 6 0 8 0;
#X connect 7 0 9 0;
#X connect 8 0 9 0;
#X connect 9 0 10 0;
