#N canvas 134 166 600 694 10;
#X declare -path ../anaMux;
#X text 45 25 Pupitre Maître (vapeur/électrique \, mise en route
+ commutateurs à levier) : 23 contacts + 8 leds + 2 vu-metres + 1
potard, f 76;
#X obj 26 159 analog/parse;
#X obj 26 209 anaMux 0.994 0.461 0.216 0.094;
#X obj 26 337 list prepend sw;
#X obj 185 245 unpack f f;
#X obj 185 266 + 4;
#X obj 185 287 pack f f;
#X obj 185 209 anaMux 0.994 0.461 0.216 0.094;
#X obj 345 208 anaMux 0.994 0.461 0.216 0.094;
#X obj 345 244 unpack f f;
#X obj 345 286 pack f f;
#X obj 345 265 + 8;
#X obj 810 68 declare -path ../anaMux;
#X obj 26 356 list trim;
#X obj 26 129 fruit/receive joystick;
#X obj 26 376 s pupitreJoystick;
#X obj 25 65 fruit/fruit 1 joystick 12 pupitreJoystickFW;
#X obj 26 184 route 0 1 2, f 80;
#X obj 41 528 pack f f f f f, f 27;
#X obj 25 473 tgl 15 0 empty empty empty 17 7 0 10 -262144 -1 -1 0
1;
#X obj 52 494 t b f;
#X obj 93 494 t b f;
#X obj 134 494 t b f;
#X obj 175 494 t b f;
#X obj 52 470 tgl 15 0 empty empty empty 17 7 0 10 -262144 -1 -1 0
1;
#X obj 93 469 tgl 15 0 empty empty empty 17 7 0 10 -262144 -1 -1 0
1;
#X obj 134 472 tgl 15 0 empty empty empty 17 7 0 10 -262144 -1 -1 0
1;
#X obj 175 471 tgl 15 0 empty empty empty 17 7 0 10 -262144 -1 -1 0
1;
#X obj 41 549 unpack f f f f f, f 30;
#X obj 41 570 * 1;
#X obj 85 572 * 2;
#X obj 129 572 * 4;
#X obj 173 572 * 8;
#X obj 218 571 * 16;
#X obj 41 591 +;
#X obj 85 593 +;
#X obj 129 593 +;
#X obj 173 593 +;
#X msg 41 614 c 12 c \$1;
#X obj 25 428 route led, f 10;
#X obj 25 449 route 0 1 2 3 4;
#X obj 25 406 r toPupitreJoystick;
#X obj 41 636 fruit/send2 joystick;
#X text 404 69 K3: anaMux 1-4;
#X text 403 83 K4: anaMux 5-8;
#X text 403 96 K5: anaMux 9-12;
#X text 402 116 K1: led;
#X obj 302 396 metro 200;
#X obj 302 417 del 50;
#X msg 302 438 0;
#X msg 347 418 1;
#X obj 302 459 f;
#X obj 313 365 tgl 15 0 empty empty empty 17 7 0 10 -262144 -1 -1 0
1;
#X msg 302 480 led 0 \$1;
#X obj 302 501 s toPupitreJoystick;
#X msg 379 372 200;
#X msg 379 393 50;
#X msg 416 371 4000;
#X msg 416 392 2000;
#X connect 1 0 17 0;
#X connect 2 0 3 0;
#X connect 3 0 13 0;
#X connect 4 0 5 0;
#X connect 4 1 6 1;
#X connect 5 0 6 0;
#X connect 6 0 3 0;
#X connect 7 0 4 0;
#X connect 8 0 9 0;
#X connect 9 0 11 0;
#X connect 9 1 10 1;
#X connect 10 0 3 0;
#X connect 11 0 10 0;
#X connect 13 0 15 0;
#X connect 14 0 1 0;
#X connect 17 0 2 0;
#X connect 17 1 7 0;
#X connect 17 2 8 0;
#X connect 18 0 28 0;
#X connect 19 0 18 0;
#X connect 20 0 18 0;
#X connect 20 1 18 1;
#X connect 21 0 18 0;
#X connect 21 1 18 2;
#X connect 22 0 18 0;
#X connect 22 1 18 3;
#X connect 23 0 18 0;
#X connect 23 1 18 4;
#X connect 24 0 20 0;
#X connect 25 0 21 0;
#X connect 26 0 22 0;
#X connect 27 0 23 0;
#X connect 28 0 29 0;
#X connect 28 1 30 0;
#X connect 28 2 31 0;
#X connect 28 3 32 0;
#X connect 28 4 33 0;
#X connect 29 0 34 0;
#X connect 30 0 35 0;
#X connect 31 0 36 0;
#X connect 32 0 37 0;
#X connect 33 0 37 1;
#X connect 34 0 38 0;
#X connect 35 0 34 1;
#X connect 36 0 35 1;
#X connect 37 0 36 1;
#X connect 38 0 42 0;
#X connect 39 0 40 0;
#X connect 40 0 19 0;
#X connect 40 1 24 0;
#X connect 40 2 25 0;
#X connect 40 3 26 0;
#X connect 40 4 27 0;
#X connect 41 0 39 0;
#X connect 47 0 48 0;
#X connect 47 0 50 0;
#X connect 48 0 49 0;
#X connect 49 0 51 0;
#X connect 50 0 51 0;
#X connect 51 0 53 0;
#X connect 52 0 47 0;
#X connect 53 0 54 0;
#X connect 55 0 56 0;
#X connect 55 0 47 1;
#X connect 56 0 48 1;
#X connect 57 0 58 0;
#X connect 57 0 47 1;
#X connect 58 0 48 1;
