#N canvas 169 323 1270 735 10;
#X declare -path ../anaMux;
#X text 45 25 Pupitre Maître (vapeur/électrique \, mise en route
+ commutateurs à levier) : 23 contacts + 8 leds + 2 vu-metres + 1
potard, f 76;
#X text 518 15 K1: anaMux 1-4;
#X text 517 29 K2: anaMux 5-8;
#X text 517 42 K3: anaMux 9-12;
#X text 517 74 K5: anaMux 13-16;
#X text 517 87 K6: anaMux 17-20;
#X obj 26 159 analog/parse;
#X obj 26 209 anaMux 0.994 0.461 0.216 0.094;
#X obj 26 337 list prepend sw;
#X obj 185 245 unpack f f;
#X obj 185 266 + 4;
#X obj 185 287 pack f f;
#X obj 345 244 unpack f f;
#X obj 345 286 pack f f;
#X obj 504 245 unpack f f;
#X obj 504 287 pack f f;
#X obj 665 245 unpack f f;
#X obj 665 287 pack f f;
#X obj 824 244 unpack f f;
#X obj 824 286 pack f f;
#X obj 345 265 + 8;
#X obj 504 266 + 12;
#X obj 665 266 + 16;
#X obj 824 265 + 20;
#X obj 810 68 declare -path ../anaMux;
#X obj 26 356 list trim;
#X obj 25 65 fruit/fruit 1 disjo 11 pupitreDisjoFW;
#X obj 26 184 route 0 1 2 3 4 5 6, f 187;
#X obj 983 245 unpack f f;
#X obj 983 287 pack f f;
#X obj 26 376 s pupitreDisjo;
#X obj 26 129 fruit/receive disjo;
#X obj 983 266 + 24;
#X text 517 100 K7: anaMux 21-24;
#X text 517 117 K8: anaMux 25-28;
#X obj 41 528 pack f f f f f, f 27;
#X obj 25 473 tgl 15 0 empty empty empty 17 7 0 10 -262144 -1 -1 0
1;
#X obj 52 494 t b f;
#X obj 93 494 t b f;
#X obj 134 494 t b f;
#X obj 175 494 t b f;
#X obj 52 470 tgl 15 0 empty empty empty 17 7 0 10 -262144 -1 -1 0
1;
#X obj 93 469 tgl 15 0 empty empty empty 17 7 0 10 -262144 -1 -1 0
1;
#X obj 134 472 tgl 15 0 empty empty empty 17 7 0 10 -262144 -1 -1 0
1;
#X obj 175 471 tgl 15 0 empty empty empty 17 7 0 10 -262144 -1 -1 0
1;
#X obj 41 549 unpack f f f f f, f 30;
#X obj 41 570 * 1;
#X obj 85 572 * 2;
#X obj 129 572 * 4;
#X obj 173 572 * 8;
#X obj 218 571 * 16;
#X obj 41 591 +;
#X obj 85 593 +;
#X obj 129 593 +;
#X obj 173 593 +;
#X msg 41 614 c 12 c \$1;
#X obj 25 428 route led, f 10;
#X obj 25 449 route 0 1 2 3 4;
#X obj 25 406 r toPupitreDisjo;
#X obj 41 636 fruit/send2 disjo;
#X obj 387 492 metro 300;
#X obj 424 450 tgl 15 0 empty empty empty 17 7 0 10 -262144 -1 -1 0
1;
#X obj 516 414 route s;
#X obj 516 435 route 0;
#X msg 516 456 30 \$1;
#X obj 762 534 print;
#X obj 185 209 anaMux 0.994 0.461 0.216 0.094;
#X obj 345 208 anaMux 0.994 0.461 0.216 0.094;
#X obj 504 209 anaMux 0.994 0.461 0.216 0.094;
#X obj 664 209 anaMux 0.994 0.461 0.216 0.094;
#X obj 823 209 anaMux 0.994 0.461 0.216 0.094;
#X obj 982 210 anaMux 0.994 0.461 0.216 0.094;
#X connect 6 0 27 0;
#X connect 6 1 62 0;
#X connect 7 0 8 0;
#X connect 8 0 25 0;
#X connect 9 0 10 0;
#X connect 9 1 11 1;
#X connect 10 0 11 0;
#X connect 11 0 8 0;
#X connect 12 0 20 0;
#X connect 12 1 13 1;
#X connect 13 0 8 0;
#X connect 14 0 21 0;
#X connect 14 1 15 1;
#X connect 15 0 8 0;
#X connect 16 0 22 0;
#X connect 16 1 17 1;
#X connect 17 0 8 0;
#X connect 18 0 23 0;
#X connect 18 1 19 1;
#X connect 19 0 8 0;
#X connect 20 0 13 0;
#X connect 21 0 15 0;
#X connect 22 0 17 0;
#X connect 23 0 19 0;
#X connect 25 0 30 0;
#X connect 27 0 7 0;
#X connect 27 1 66 0;
#X connect 27 2 67 0;
#X connect 27 3 68 0;
#X connect 27 4 69 0;
#X connect 27 5 70 0;
#X connect 27 6 71 0;
#X connect 28 0 32 0;
#X connect 28 1 29 1;
#X connect 29 0 8 0;
#X connect 31 0 6 0;
#X connect 32 0 29 0;
#X connect 35 0 45 0;
#X connect 36 0 35 0;
#X connect 37 0 35 0;
#X connect 37 1 35 1;
#X connect 38 0 35 0;
#X connect 38 1 35 2;
#X connect 39 0 35 0;
#X connect 39 1 35 3;
#X connect 40 0 35 0;
#X connect 40 1 35 4;
#X connect 41 0 37 0;
#X connect 42 0 38 0;
#X connect 43 0 39 0;
#X connect 44 0 40 0;
#X connect 45 0 46 0;
#X connect 45 1 47 0;
#X connect 45 2 48 0;
#X connect 45 3 49 0;
#X connect 45 4 50 0;
#X connect 46 0 51 0;
#X connect 47 0 52 0;
#X connect 48 0 53 0;
#X connect 49 0 54 0;
#X connect 50 0 54 1;
#X connect 51 0 55 0;
#X connect 52 0 51 1;
#X connect 53 0 52 1;
#X connect 54 0 53 1;
#X connect 55 0 59 0;
#X connect 56 0 57 0;
#X connect 57 0 36 0;
#X connect 57 1 41 0;
#X connect 57 2 42 0;
#X connect 57 3 43 0;
#X connect 57 4 44 0;
#X connect 58 0 56 0;
#X connect 60 0 36 0;
#X connect 61 0 60 0;
#X connect 62 0 63 0;
#X connect 63 0 64 0;
#X connect 64 0 8 0;
#X connect 66 0 9 0;
#X connect 67 0 12 0;
#X connect 68 0 14 0;
#X connect 69 0 16 0;
#X connect 70 0 18 0;
#X connect 71 0 28 0;
