#N canvas 32 127 1049 659 10;
#X declare -path ../anaMux;
#X text 45 25 Pupitre Maître (vapeur/électrique \, mise en route
+ commutateurs à levier) : 23 contacts + 8 leds + 2 vu-metres + 1
potard, f 76;
#X text 518 15 K1: anaMux 1-4;
#X text 517 29 K2: anaMux 5-8;
#X text 517 42 K3: anaMux 9-12;
#X text 517 74 K5: anaMux 13-16;
#X text 517 87 K6: anaMux 17-20;
#X text 517 100 K7: anaMux 21-24(23);
#X text 517 121 K8: pot;
#X text 517 152 K10: pwm vu2;
#X obj 26 159 analog/parse;
#X obj 26 209 anaMux 0.994 0.461 0.216 0.094;
#X obj 25 65 fruit/fruit 1 maitre 10 pupitreMaitreFW;
#X obj 26 129 fruit/receive maitre;
#X msg 25 555 c 10 i \$1;
#X obj 44 511 hsl 128 15 0 1 0 0 empty empty empty -2 -8 0 10 -262144
-1 -1 7049 1;
#X obj 25 535 * 1023;
#X obj 53 622 fruit/send2 maitre;
#X obj 192 511 hsl 128 15 0 1 0 0 empty empty empty -2 -8 0 10 -262144
-1 -1 7049 1;
#X obj 182 536 * 1023;
#X msg 182 556 c 11 i \$1;
#X obj 25 407 r toPupitreMaitre;
#X obj 25 428 route vu1 vu2, f 34;
#X obj 25 456 clip 0 1;
#X obj 25 477 _speedlim 80;
#X obj 182 456 clip 0 1;
#X obj 182 477 _speedlim 80;
#X obj 26 337 list prepend sw;
#X obj 26 376 s pupitreMaitre;
#X obj 185 245 unpack f f;
#X obj 185 266 + 4;
#X obj 185 287 pack f f;
#X obj 185 209 anaMux 0.994 0.461 0.216 0.094;
#X obj 345 208 anaMux 0.994 0.461 0.216 0.094;
#X obj 504 209 anaMux 0.994 0.461 0.216 0.094;
#X obj 664 209 anaMux 0.994 0.461 0.216 0.094;
#X obj 823 209 anaMux 0.994 0.461 0.216 0.094;
#X obj 345 244 unpack f f;
#X obj 345 286 pack f f;
#X obj 504 245 unpack f f;
#X obj 504 287 pack f f;
#X obj 665 245 unpack f f;
#X obj 665 287 pack f f;
#X obj 824 244 unpack f f;
#X obj 824 286 pack f f;
#X obj 345 265 + 8;
#X obj 504 266 + 12;
#X obj 665 266 + 16;
#X obj 824 265 + 20;
#X obj 26 184 route 0 1 2 3 4 5, f 160;
#X obj 983 247 route 6;
#X obj 885 322 list prepend pot;
#X obj 810 68 declare -path ../anaMux;
#X text 518 55 K4: pwm vu1;
#X text 677 31 VNH2:;
#X text 680 47 INA2/MB1:LED1;
#X text 681 59 ENA2/MBEN:LED2;
#X text 682 72 K9:LED3;
#X text 682 85 K10:--;
#X text 681 98 KB4/MBEN2:LED4;
#X text 682 111 KB5/MB2:LED5;
#X text 681 124 (VDD);
#X text 682 139 GND;
#X obj 336 433 tgl 15 0 empty empty empty 17 7 0 10 -262144 -1 -1 1
1;
#X obj 363 454 t b f;
#X obj 404 454 t b f;
#X obj 445 454 t b f;
#X obj 486 454 t b f;
#X obj 363 430 tgl 15 0 empty empty empty 17 7 0 10 -262144 -1 -1 1
1;
#X obj 404 429 tgl 15 0 empty empty empty 17 7 0 10 -262144 -1 -1 1
1;
#X obj 445 432 tgl 15 0 empty empty empty 17 7 0 10 -262144 -1 -1 0
1;
#X obj 486 431 tgl 15 0 empty empty empty 17 7 0 10 -262144 -1 -1 0
1;
#X obj 352 530 * 1;
#X obj 396 532 * 2;
#X obj 440 532 * 4;
#X obj 484 532 * 8;
#X obj 529 531 * 16;
#X obj 352 551 +;
#X obj 396 553 +;
#X obj 440 553 +;
#X obj 484 553 +;
#X msg 352 574 c 12 c \$1;
#X obj 336 388 route led, f 10;
#X obj 856 358 hsl 128 15 0 1 0 0 empty empty empty -2 -8 0 10 -262144
-1 -1 7049 1;
#X floatatom 925 282 5 0 0 0 - - -, f 5;
#X obj 983 268 / 400;
#X obj 983 287 clip 0 1;
#X obj 666 432 r pupitreMaitre;
#X obj 666 482 route sw;
#X obj 666 503 list prepend led;
#X obj 666 561 s toPupitreMaitre;
#X floatatom 422 623 5 0 0 0 - - -, f 5;
#X obj 666 524 list trim;
#X msg 796 457 1 \$1;
#X obj 819 421 tgl 15 0 empty empty empty 17 7 0 10 -262144 -1 -1 0
1;
#X obj 826 508 print;
#X obj 26 356 list trim;
#X text 518 166 K11: LED6;
#X obj 528 453 t b f;
#X obj 528 430 tgl 15 0 empty empty empty 17 7 0 10 -262144 -1 -1 0
1;
#X obj 352 488 pack f f f f f f, f 34;
#X obj 336 409 route 0 1 2 3 4 5, f 38;
#X obj 352 509 unpack f f f f f f, f 38;
#X obj 529 553 +;
#X obj 577 532 * 32;
#X connect 9 0 48 0;
#X connect 10 0 26 0;
#X connect 12 0 9 0;
#X connect 13 0 16 0;
#X connect 14 0 15 0;
#X connect 15 0 13 0;
#X connect 17 0 18 0;
#X connect 18 0 19 0;
#X connect 19 0 16 0;
#X connect 20 0 21 0;
#X connect 21 0 22 0;
#X connect 21 1 24 0;
#X connect 21 2 81 0;
#X connect 22 0 23 0;
#X connect 23 0 15 0;
#X connect 24 0 25 0;
#X connect 25 0 18 0;
#X connect 26 0 95 0;
#X connect 28 0 29 0;
#X connect 28 1 30 1;
#X connect 29 0 30 0;
#X connect 30 0 26 0;
#X connect 31 0 28 0;
#X connect 32 0 36 0;
#X connect 33 0 38 0;
#X connect 34 0 40 0;
#X connect 35 0 42 0;
#X connect 36 0 44 0;
#X connect 36 1 37 1;
#X connect 37 0 26 0;
#X connect 38 0 45 0;
#X connect 38 1 39 1;
#X connect 39 0 26 0;
#X connect 40 0 46 0;
#X connect 40 1 41 1;
#X connect 41 0 26 0;
#X connect 42 0 47 0;
#X connect 42 1 43 1;
#X connect 43 0 26 0;
#X connect 44 0 37 0;
#X connect 45 0 39 0;
#X connect 46 0 41 0;
#X connect 47 0 43 0;
#X connect 48 0 10 0;
#X connect 48 1 31 0;
#X connect 48 2 32 0;
#X connect 48 3 33 0;
#X connect 48 4 34 0;
#X connect 48 5 35 0;
#X connect 48 6 49 0;
#X connect 49 0 84 0;
#X connect 50 0 95 0;
#X connect 62 0 99 0;
#X connect 63 0 99 0;
#X connect 63 1 99 1;
#X connect 64 0 99 0;
#X connect 64 1 99 2;
#X connect 65 0 99 0;
#X connect 65 1 99 3;
#X connect 66 0 99 0;
#X connect 66 1 99 4;
#X connect 67 0 63 0;
#X connect 68 0 64 0;
#X connect 69 0 65 0;
#X connect 70 0 66 0;
#X connect 71 0 76 0;
#X connect 72 0 77 0;
#X connect 73 0 78 0;
#X connect 74 0 79 0;
#X connect 75 0 102 0;
#X connect 76 0 80 0;
#X connect 76 0 90 0;
#X connect 77 0 76 1;
#X connect 78 0 77 1;
#X connect 79 0 78 1;
#X connect 80 0 16 0;
#X connect 81 0 100 0;
#X connect 82 0 17 0;
#X connect 82 0 14 0;
#X connect 84 0 85 0;
#X connect 85 0 50 0;
#X connect 87 0 88 0;
#X connect 88 0 91 0;
#X connect 92 0 88 0;
#X connect 93 0 92 0;
#X connect 95 0 27 0;
#X connect 97 0 99 0;
#X connect 97 1 99 5;
#X connect 98 0 97 0;
#X connect 99 0 101 0;
#X connect 100 0 62 0;
#X connect 100 1 67 0;
#X connect 100 2 68 0;
#X connect 100 3 69 0;
#X connect 100 4 70 0;
#X connect 100 5 98 0;
#X connect 101 0 71 0;
#X connect 101 1 72 0;
#X connect 101 2 73 0;
#X connect 101 3 74 0;
#X connect 101 4 75 0;
#X connect 101 5 103 0;
#X connect 102 0 79 1;
#X connect 103 0 102 1;
